<svg xmlns="http://www.w3.org/2000/svg" xmlns:xlink="http://www.w3.org/1999/xlink" xmlns:lucid="lucid" width="1701" height="597"><g transform="translate(-1958 -1935)" lucid:page-tab-id="0_0"><path d="M0 1259.2h3676.8v7619.2H0z" fill="#fff"/><path d="M2380 2086c0-3.3 2.7-6 6-6h328c3.3 0 6 2.7 6 6v114c-56.78-20.04-92.14-20.04-113.56-20.04-34 0-79.22 20.04-113.22 20.04-21.08 0-56.78 0-113.22-20.04z" stroke="#5e5e5e" stroke-width="3" fill="#fff"/><use xlink:href="#a" transform="matrix(1,0,0,1,2385,2085) translate(7.834595959595987 39.2361111111111)"/><use xlink:href="#b" transform="matrix(1,0,0,1,2385,2085) translate(117.91193181818184 74.1982323232323)"/><path d="M2292 2350.9c37.56 0 68 17.9 68 40s-30.44 40-68 40h-204c-37.56 0-68-17.9-68-40s30.44-40 68-40z" stroke="#5e5e5e" stroke-width="3" fill="#fff"/><use xlink:href="#c" transform="matrix(1,0,0,1,2025,2355.8998747310525) translate(48.23890151515155 45.4861111111111)"/><use xlink:href="#d" transform="matrix(1,0,0,1,2025,2355.8998747310525) translate(182.87589646464647 45.4861111111111)"/><use xlink:href="#e" transform="matrix(1,0,0,1,2025,2355.8998747310525) translate(257.8885227272727 45.4861111111111)"/><path d="M2652 2350.9c37.56 0 68 17.9 68 40s-30.44 40-68 40h-204c-37.56 0-68-17.9-68-40s30.44-40 68-40z" stroke="#5e5e5e" stroke-width="3" fill="#fff"/><use xlink:href="#c" transform="matrix(1,0,0,1,2385,2355.8998747310525) translate(46.20765151515155 45.4861111111111)"/><use xlink:href="#d" transform="matrix(1,0,0,1,2385,2355.8998747310525) translate(180.84464646464647 45.4861111111111)"/><use xlink:href="#f" transform="matrix(1,0,0,1,2385,2355.8998747310525) translate(255.8572727272727 45.4861111111111)"/><path d="M3012 2350.9c37.56 0 68 17.9 68 40s-30.44 40-68 40h-204c-37.56 0-68-17.9-68-40s30.44-40 68-40z" stroke="#5e5e5e" stroke-width="3" fill="#fff"/><use xlink:href="#c" transform="matrix(1,0,0,1,2745,2355.8998747310525) translate(45.75626262626266 45.4861111111111)"/><use xlink:href="#d" transform="matrix(1,0,0,1,2745,2355.8998747310525) translate(180.39325757575756 45.4861111111111)"/><use xlink:href="#g" transform="matrix(1,0,0,1,2745,2355.8998747310525) translate(255.40588383838383 45.4861111111111)"/><path d="M2551.5 2264.54l-.98 3.6-2.7 2.73-3.62.98h-348l-2.45.66-1.6 1.6-.65 2.44v71.36h-3v-71.75l.98-3.6 2.7-2.73 3.62-.97h348l2.45-.67 1.6-1.58.65-2.45v-21.34h3zm0-43.24h-3v-9.4h3z" fill="#5e5e5e"/><path d="M2191.5 2349.4h-3v-1.54h3z" fill="#5e5e5e"/><path d="M2554.64 2210.4h-9.28l4.64-14.26z" fill="#fff"/><path d="M2556.7 2211.9h-13.4l6.7-20.6zm-9.27-3h5.14l-2.57-7.9zM2551.5 2347.9h-3v-105.1h3zm0-126.6h-3v-8.66h3z" fill="#5e5e5e"/><path d="M2551.5 2349.4h-3v-1.54h3z" fill="#5e5e5e"/><path d="M2554.64 2211.14h-9.28l4.64-14.27z" fill="#fff"/><path d="M2556.7 2212.64h-13.4l6.7-20.62zm-9.27-3h5.14l-2.57-7.9z" fill="#5e5e5e"/><path d="M2551.5 2264.15l.66 2.45 1.6 1.58 2.44.67h348l3.6.97 2.72 2.72.98 3.6v71.76h-3v-71.36l-.66-2.45-1.6-1.6-2.44-.65h-348l-3.6-.98-2.72-2.72-.98-3.6v-21.74h3zm0-42.85h-3v-9.4h3z" fill="#5e5e5e"/><path d="M2911.5 2349.4h-3v-1.54h3z" fill="#5e5e5e"/><path d="M2554.64 2210.4h-9.28l4.64-14.26z" fill="#fff"/><path d="M2556.7 2211.9h-13.4l6.7-20.6zm-9.27-3h5.14l-2.57-7.9z" fill="#5e5e5e"/><use xlink:href="#h" transform="matrix(1,0,0,1,2520.445075757576,2221.29622416671) translate(0 17.22222222222222)"/><path d="M2190 2453.02v13.38c0 3.3 2.7 6 6 6h1208c3.3 0 6-2.7 6-6v-124.28" stroke="#5e5e5e" stroke-width="3" fill="none"/><path d="M2190 2437.25l4.64 14.27h-9.28zM3410 2326.35l4.64 14.27h-9.28z" stroke="#5e5e5e" stroke-width="3" fill="#fff"/><path d="M2550 2453.02v13.38c0 3.3 2.7 6 6 6h848c3.3 0 6-2.7 6-6v-124.28" stroke="#5e5e5e" stroke-width="3" fill="none"/><path d="M2550 2437.25l4.64 14.27h-9.28zM3410 2326.35l4.64 14.27h-9.28zM3328.07 2204.53c2.17-2.5 6.62-4.53 9.93-4.53h144c3.3 0 7.76 2.03 9.93 4.53l44.14 50.94c2.17 2.5 2.17 6.56 0 9.06l-44.14 50.94c-2.17 2.5-6.62 4.53-9.93 4.53h-144c-3.3 0-7.76-2.03-9.93-4.53l-44.14-50.94c-2.17-2.5-2.17-6.56 0-9.06z" stroke="#5e5e5e" stroke-width="3" fill="#fff"/><use xlink:href="#i" transform="matrix(1,0,0,1,3285,2205) translate(54.85506313131315 27.9861111111111)"/><use xlink:href="#j" transform="matrix(1,0,0,1,3285,2205) translate(46.258156565656584 62.9482323232323)"/><use xlink:href="#k" transform="matrix(1,0,0,1,3285,2205) translate(68.39672979797982 97.9103535353535)"/><path d="M2910 2453.02v13.38c0 3.3 2.7 6 6 6h488c3.3 0 6-2.7 6-6v-124.28" stroke="#5e5e5e" stroke-width="3" fill="none"/><path d="M2910 2437.25l4.64 14.27h-9.28zM3410 2326.35l4.64 14.27h-9.28z" stroke="#5e5e5e" stroke-width="3" fill="#fff"/><use xlink:href="#l" transform="matrix(1,0,0,1,2572.769794370413,2476.3998747310525) translate(0 17.22222222222222)"/><use xlink:href="#m" transform="matrix(1,0,0,1,2572.769794370413,2476.3998747310525) translate(27.089646464646464 17.22222222222222)"/><use xlink:href="#n" transform="matrix(1,0,0,1,2572.769794370413,2476.3998747310525) translate(123.7121212121212 17.22222222222222)"/><use xlink:href="#o" transform="matrix(1,0,0,1,2572.769794370413,2476.3998747310525) translate(156.04166666666666 17.22222222222222)"/><use xlink:href="#p" transform="matrix(1,0,0,1,2572.769794370413,2476.3998747310525) translate(214.98737373737373 17.22222222222222)"/><use xlink:href="#q" transform="matrix(1,0,0,1,2572.769794370413,2476.3998747310525) translate(239.41287878787878 17.22222222222222)"/><use xlink:href="#r" transform="matrix(1,0,0,1,2572.769794370413,2476.3998747310525) translate(359.7790404040404 17.22222222222222)"/><use xlink:href="#s" transform="matrix(1,0,0,1,2572.769794370413,2476.3998747310525) translate(428.91414141414145 17.22222222222222)"/><use xlink:href="#t" transform="matrix(1,0,0,1,2572.769794370413,2476.3998747310525) translate(450.85227272727275 17.22222222222222)"/><use xlink:href="#u" transform="matrix(1,0,0,1,2572.769794370413,2476.3998747310525) translate(483.604797979798 17.22222222222222)"/><use xlink:href="#v" transform="matrix(1,0,0,1,2572.769794370413,2476.3998747310525) translate(579.2234848484849 17.22222222222222)"/><use xlink:href="#w" transform="matrix(1,0,0,1,2572.769794370413,2476.3998747310525) translate(682.9229797979798 17.22222222222222)"/><path d="M3509.2 2128c0 6.63-44.4 12-99.2 12-54.8 0-99.2-5.37-99.2-12v-96c0-6.63 44.4-12 99.2-12 54.8 0 99.2 5.37 99.2 12z" stroke="#5e5e5e" stroke-width="3" fill="#fff"/><path d="M3509.2 2032c0 6.63-44.4 12-99.2 12-54.8 0-99.2-5.37-99.2-12" stroke="#5e5e5e" stroke-width="3" fill="none"/><use xlink:href="#x" transform="matrix(1,0,0,1,3315.8,2049) translate(20.513257575757606 52.1736111111111)"/><path d="M3410 2177.88v-15.76" stroke="#5e5e5e" stroke-width="3" fill="none"/><path d="M3410 2193.65l-4.64-14.27h9.28zM3410 2146.35l4.64 14.27h-9.28z" stroke="#5e5e5e" stroke-width="3" fill="#fff"/><path d="M2760.55 2141.6H2723v-3h37.55zm137.33-.1l-18.43.02v-3l18.43-.02z" fill="#5e5e5e"/><path d="M2723.04 2141.6h-1.54v-3h1.54z" fill="#5e5e5e"/><path d="M2913.64 2140l-14.26 4.64v-9.28z" fill="#fff"/><path d="M2918.5 2140l-20.62 6.7v-13.4zm-17.62 2.57l7.9-2.57-7.9-2.57z" fill="#5e5e5e"/><g><use xlink:href="#y" transform="matrix(1,0,0,1,2760.5487922180787,2129.285358319502) translate(0 17.22222222222222)"/></g><path d="M3064 2080c8.84 0 16 26.86 16 60s-7.16 60-16 60h-128c-8.84 0-16-26.86-16-60s7.16-60 16-60z" stroke="#5e5e5e" stroke-width="3" fill="#fff"/><path d="M3064 2200c-8.84 0-16-26.86-16-60s7.16-60 16-60" stroke="#5e5e5e" stroke-width="3" fill="none"/><g><use xlink:href="#z" transform="matrix(1,0,0,1,2925,2085) translate(28.326073232323246 65.7986111111111)"/></g><path d="M3162.77 1980H3006.2l-2.45.66-1.6 1.6-.65 2.44v73.18h-3v-73.58l.98-3.6 2.7-2.72 3.62-.98h156.97zm245.04-2.02l2.72 2.7.98 3.62v32.7h-3v-32.3l-.66-2.45-1.6-1.6-2.44-.65h-136.26v-3h136.66z" fill="#5e5e5e"/><path d="M3411.5 2018.54l-1.48-.04h-1.52v-1.54h3z" fill="#5e5e5e"/><path d="M3000 2073.65l-4.64-14.27h9.28z" fill="#fff"/><path d="M3000 2078.5l-6.7-20.62h13.4zm-2.57-17.62l2.57 7.9 2.57-7.9z" fill="#5e5e5e"/><g><use xlink:href="#A" transform="matrix(1,0,0,1,3162.7683323891024,1967.7424118325862) translate(0 17.22222222222222)"/><use xlink:href="#B" transform="matrix(1,0,0,1,3162.7683323891024,1967.7424118325862) translate(40.44191919191919 17.22222222222222)"/><use xlink:href="#C" transform="matrix(1,0,0,1,3162.7683323891024,1967.7424118325862) translate(86.9570707070707 17.22222222222222)"/></g><path d="M3182.68 2253.8l.66 2.45 1.6 1.6 2.44.65h72.86v3h-73.26l-3.6-.98-2.72-2.7-.98-3.62v-85.44h3zM3083 2141.5v-3h10.12v3z" fill="#5e5e5e"/><path d="M3083.04 2141.5h-1.6l.06-1.5-.05-1.5h1.6z" fill="#5e5e5e"/><path d="M3276 2260l-14.26 4.64v-9.28z" fill="#fff"/><path d="M3280.86 2260l-20.62 6.7v-13.4zm-17.62 2.57l7.9-2.57-7.9-2.57z" fill="#5e5e5e"/><g><use xlink:href="#D" transform="matrix(1,0,0,1,3093.1246491635397,2129.242424242424) translate(0 17.22222222222222)"/><use xlink:href="#E" transform="matrix(1,0,0,1,3093.1246491635397,2129.242424242424) translate(66.32575757575756 17.22222222222222)"/></g><g><use xlink:href="#F" transform="matrix(1,0,0,1,3132.0708983586833,2147.247650767115) translate(0 17.22222222222222)"/></g><path d="M3093.12 2141.5H3083v-3h10.12zm195.56-60h-87.08l-2.45.66-1.6 1.6-.65 2.44v43.04h-3v-43.44l.98-3.6 2.7-2.72 3.62-.98h87.48z" fill="#5e5e5e"/><path d="M3083.04 2141.5h-1.6l.06-1.5-.05-1.5h1.6z" fill="#5e5e5e"/><path d="M3304.45 2080l-14.27 4.64v-9.28z" fill="#fff"/><path d="M3309.3 2080l-20.62 6.7v-13.4zm-17.62 2.57l7.9-2.57-7.9-2.57z" fill="#5e5e5e"/><defs><path fill="#333" d="M248 0v-2048h692c481 0 696 286 696 648s-215 652-692 652H496V0H248zm248-968h440c329 0 456-186 456-432s-127-428-460-428H496v860" id="G"/><path fill="#333" d="M668 36c-292 0-524-172-524-472 0-352 311-415 596-452 284-38 396-22 396-148 0-197-107-312-324-312-225 0-348 120-400 232l-224-80c120-280 384-360 616-360 196 0 568 56 568 544V0h-236v-208h-12C1076-108 936 36 668 36zm36-212c280 0 432-188 432-380v-216c-40 48-308 76-408 88-184 24-348 80-348 260 0 164 136 248 324 248" id="H"/><path fill="#333" d="M216 576v-2112h228v244h28c52-80 144-264 444-264 388 0 656 308 656 792 0 488-268 796-652 796-296 0-396-184-448-268h-20v812H216zM448-768c0 348 156 588 440 588 296 0 448-260 448-588 0-324-148-576-448-576-288 0-440 232-440 576" id="I"/><path fill="#333" d="M860 32c-444 0-716-316-716-788s276-800 692-800c320 0 660 196 660 768v100H381c11 329 202 508 479 508 185 0 324-80 384-240l228 64c-72 232-300 388-612 388zM381-892h875c0-260-164-452-420-452-270 0-439 213-455 452" id="J"/><path fill="#333" d="M216 0v-1536h228v232h16c56-152 216-256 400-256 35 0 97 2 124 4v240c-16-4-81-16-144-16-224 0-388 152-388 360V0H216" id="K"/><path fill="#333" d="M940-2144L280 308H64l660-2452h216" id="L"/><path fill="#333" d="M332 0H72l752-2048h256L1832 0h-260l-206-580H538zm284-800h672l-328-924h-16" id="M"/><path fill="#333" d="M884-1536v200H556v896c3 250 148 245 308 220L912-8C642 78 320-42 320-376v-960H88v-200h232v-368h236v368h328" id="N"/><path fill="#333" d="M216 0v-1536h236V0H216zm120-1792c-92 0-168-72-168-160s76-160 168-160 168 72 168 160-76 160-168 160" id="O"/><path fill="#333" d="M840 32c-432 0-696-332-696-792 0-468 276-796 692-796 324 0 568 192 608 480h-236c-36-140-160-268-368-268-276 0-460 228-460 576 0 356 180 588 460 588 184 0 324-100 368-268h236c-40 272-264 480-604 480" id="P"/><path fill="#333" d="M452-2048V0H216v-2048h236" id="Q"/><path fill="#333" d="M248 0v-2048h692c480 0 696 266 696 628 0 272-122 485-383 574L1716 0h-288L996-801c-165 2-334 0-500 1V0H248zm248-1024h440c328 0 456-150 456-396s-128-408-460-408H496v804" id="R"/><path fill="#333" d="M1304-1192l-212 60c-41-106-126-220-332-220-188 0-328 96-328 228 0 118 82 179 264 224l228 56c274 67 408 202 408 416 0 265-243 460-600 460-314 0-529-139-584-400l224-56c42 165 163 248 356 248 220 0 360-108 360-240 0-106-73-180-228-216l-256-60c-282-66-408-208-408-420 0-260 240-444 564-444 304 0 470 146 544 364" id="S"/><path fill="#333" d="M452-924V0H216v-2048h236v752h20c72-159 210-260 452-260 314 0 524 185 524 580V0h-236v-960c0-244-134-384-356-384-233 0-404 152-404 420" id="T"/><g id="a"><use transform="matrix(0.01025883838383838,0,0,0.01025883838383838,0,0)" xlink:href="#G"/><use transform="matrix(0.01025883838383838,0,0,0.01025883838383838,18.342803030303024,0)" xlink:href="#H"/><use transform="matrix(0.01025883838383838,0,0,0.01025883838383838,34.63383838383837,0)" xlink:href="#I"/><use transform="matrix(0.01025883838383838,0,0,0.01025883838383838,52.23800505050503,0)" xlink:href="#J"/><use transform="matrix(0.01025883838383838,0,0,0.01025883838383838,69.06249999999999,0)" xlink:href="#K"/><use transform="matrix(0.01025883838383838,0,0,0.01025883838383838,78.82891414141412,0)" xlink:href="#L"/><use transform="matrix(0.01025883838383838,0,0,0.01025883838383838,89.12878787878785,0)" xlink:href="#M"/><use transform="matrix(0.01025883838383838,0,0,0.01025883838383838,108.66161616161612,0)" xlink:href="#K"/><use transform="matrix(0.01025883838383838,0,0,0.01025883838383838,119.41287878787875,0)" xlink:href="#N"/><use transform="matrix(0.01025883838383838,0,0,0.01025883838383838,129.91792929292924,0)" xlink:href="#O"/><use transform="matrix(0.01025883838383838,0,0,0.01025883838383838,136.7708333333333,0)" xlink:href="#P"/><use transform="matrix(0.01025883838383838,0,0,0.01025883838383838,152.89772727272722,0)" xlink:href="#Q"/><use transform="matrix(0.01025883838383838,0,0,0.01025883838383838,159.75063131313127,0)" xlink:href="#J"/><use transform="matrix(0.01025883838383838,0,0,0.01025883838383838,176.5751262626262,0)" xlink:href="#L"/><use transform="matrix(0.01025883838383838,0,0,0.01025883838383838,186.87499999999994,0)" xlink:href="#R"/><use transform="matrix(0.01025883838383838,0,0,0.01025883838383838,205.34090909090904,0)" xlink:href="#J"/><use transform="matrix(0.01025883838383838,0,0,0.01025883838383838,222.16540404040396,0)" xlink:href="#S"/><use transform="matrix(0.01025883838383838,0,0,0.01025883838383838,237.2664141414141,0)" xlink:href="#J"/><use transform="matrix(0.01025883838383838,0,0,0.01025883838383838,254.09090909090904,0)" xlink:href="#H"/><use transform="matrix(0.01025883838383838,0,0,0.01025883838383838,270.3819444444444,0)" xlink:href="#K"/><use transform="matrix(0.01025883838383838,0,0,0.01025883838383838,281.13320707070704,0)" xlink:href="#P"/><use transform="matrix(0.01025883838383838,0,0,0.01025883838383838,297.260101010101,0)" xlink:href="#T"/></g><path fill="#333" d="M1976-1024c0 648-380 1052-904 1052S168-376 168-1024s380-1052 904-1052 904 404 904 1052zm-240 0c0-532-292-820-664-820s-664 288-664 820 292 820 664 820 664-288 664-820" id="U"/><path fill="#333" d="M1184-628v-908h236V0h-236v-260h-16C1096-104 944 20 712 20c-288 0-496-188-496-580v-976h236v960c0 224 140 368 336 368 176 0 396-132 396-420" id="V"/><g id="b"><use transform="matrix(0.01025883838383838,0,0,0.01025883838383838,0,0)" xlink:href="#U"/><use transform="matrix(0.01025883838383838,0,0,0.01025883838383838,21.994949494949488,0)" xlink:href="#V"/><use transform="matrix(0.01025883838383838,0,0,0.01025883838383838,38.77840909090908,0)" xlink:href="#N"/><use transform="matrix(0.01025883838383838,0,0,0.01025883838383838,49.28345959595958,0)" xlink:href="#I"/><use transform="matrix(0.01025883838383838,0,0,0.01025883838383838,66.88762626262624,0)" xlink:href="#V"/><use transform="matrix(0.01025883838383838,0,0,0.01025883838383838,83.67108585858583,0)" xlink:href="#N"/></g><path fill="#333" d="M248 0v-2048h236v756h20c52-80 144-264 444-264 388 0 656 308 656 792 0 488-268 796-652 796-296 0-396-184-448-268h-28V0H248zm232-768c0 348 156 588 440 588 296 0 448-260 448-588 0-324-148-576-448-576-288 0-440 232-440 576" id="W"/><g id="c"><use transform="matrix(0.01025883838383838,0,0,0.01025883838383838,0,0)" xlink:href="#G"/><use transform="matrix(0.01025883838383838,0,0,0.01025883838383838,18.342803030303024,0)" xlink:href="#V"/><use transform="matrix(0.01025883838383838,0,0,0.01025883838383838,35.126262626262616,0)" xlink:href="#W"/><use transform="matrix(0.01025883838383838,0,0,0.01025883838383838,53.0587121212121,0)" xlink:href="#Q"/><use transform="matrix(0.01025883838383838,0,0,0.01025883838383838,59.911616161616145,0)" xlink:href="#O"/><use transform="matrix(0.01025883838383838,0,0,0.01025883838383838,66.76452020202018,0)" xlink:href="#S"/><use transform="matrix(0.01025883838383838,0,0,0.01025883838383838,81.86553030303028,0)" xlink:href="#T"/><use transform="matrix(0.01025883838383838,0,0,0.01025883838383838,98.93623737373736,0)" xlink:href="#J"/><use transform="matrix(0.01025883838383838,0,0,0.01025883838383838,115.7607323232323,0)" xlink:href="#K"/></g><path fill="#333" d="M300-864c0-504 136-924 380-1280h208c-192 264-344 804-344 1280S696 152 888 416H680C436 60 300-360 300-864" id="X"/><path fill="#333" d="M1368-1536c-24-202-212-320-460-320-272 0-452 144-452 340 0 220 244 300 396 340l208 56c212 56 576 180 576 564 0 332-268 592-740 592-440 0-712-228-736-564h256c20 232 236 340 480 340 284 0 500-148 500-372 3-291-407-333-660-412-318-99-520-256-520-532 0-344 308-572 700-572 396 0 681 231 692 540h-240" id="Y"/><g id="d"><use transform="matrix(0.01025883838383838,0,0,0.01025883838383838,0,0)" xlink:href="#X"/><use transform="matrix(0.01025883838383838,0,0,0.01025883838383838,10.464015151515149,0)" xlink:href="#R"/><use transform="matrix(0.01025883838383838,0,0,0.01025883838383838,28.92992424242423,0)" xlink:href="#M"/><use transform="matrix(0.01025883838383838,0,0,0.01025883838383838,48.46275252525251,0)" xlink:href="#Y"/></g><path fill="#333" d="M932-2048V0H684v-1788h-12l-500 332v-252l512-340h248" id="Z"/><path fill="#333" d="M720-864c0 504-136 924-380 1280H132C324 152 476-388 476-864S324-1880 132-2144h208c244 356 380 776 380 1280" id="aa"/><g id="e"><use transform="matrix(0.01025883838383838,0,0,0.01025883838383838,0,0)" xlink:href="#Z"/><use transform="matrix(0.01025883838383838,0,0,0.01025883838383838,13.418560606060602,0)" xlink:href="#aa"/></g><path fill="#333" d="M212 0v-180l676-740c237-259 348-399 348-588 0-216-170-352-392-352-237 0-388 155-388 388H220c0-360 273-604 632-604 360 0 616 252 616 568 0 227-104 403-456 780L552-236v16h952V0H212" id="ab"/><g id="f"><use transform="matrix(0.01025883838383838,0,0,0.01025883838383838,0,0)" xlink:href="#ab"/><use transform="matrix(0.01025883838383838,0,0,0.01025883838383838,17.481060606060602,0)" xlink:href="#aa"/></g><path fill="#333" d="M904 28c-397 0-681-218-696-540h252c15 198 203 320 440 320 263 0 452-147 452-364 0-226-173-384-484-384H704v-220h164c243 0 412-140 412-356 0-207-146-344-372-344-213 0-407 120-416 324H252c12-322 306-540 660-540 379 0 608 258 608 548 0 231-129 401-336 464v16c258 43 412 232 412 492 0 335-295 584-692 584" id="ac"/><g id="g"><use transform="matrix(0.01025883838383838,0,0,0.01025883838383838,0,0)" xlink:href="#ac"/><use transform="matrix(0.01025883838383838,0,0,0.01025883838383838,18.383838383838377,0)" xlink:href="#aa"/></g><path fill="#333" d="M1985-1331h-438c-33-225-204-362-441-362-317 0-525 243-525 669 0 438 211 669 522 669 231 0 403-126 444-345l438 2c-47 377-364 726-889 726-548 0-954-384-954-1052 0-670 413-1052 954-1052 474 0 832 272 889 745" id="ad"/><path fill="#333" d="M170 0v-1536h413v268h16c74-233 253-330 503-275v378c-40-13-121-23-180-23-188 0-326 130-326 319V0H170" id="ae"/><path fill="#333" d="M870 30c-473 0-762-304-762-791 0-474 293-795 745-795 406 0 722 258 722 780v117c-348 1-699-1-1046 1 0 229 135 370 348 370 142 0 252-61 295-178l394 26c-60 285-316 470-696 470zM529-923h645c-1-183-129-315-314-315-189 0-322 140-331 315" id="af"/><path fill="#333" d="M608 29C315 29 98-125 98-429c0-343 273-445 577-473 270-28 372-36 372-144 0-126-83-199-228-199-153 0-244 75-273 177l-394-32c59-280 301-456 669-456 342 0 652 154 652 520V0h-404v-213h-12C982-70 835 29 608 29zm122-294c187 0 320-123 320-284v-163c-51 34-203 56-296 69-150 21-249 80-249 200 0 117 94 178 225 178" id="ag"/><path fill="#333" d="M987-1536v320H698v744c0 118 59 150 144 150 40 0 85-10 106-14l67 317C972-5 894 17 784 21 475 34 270-115 272-416v-800H62v-320h210v-368h426v368h289" id="ah"/><g id="h"><use transform="matrix(0.006313131313131313,0,0,0.006313131313131313,0,0)" xlink:href="#ad"/><use transform="matrix(0.006313131313131313,0,0,0.006313131313131313,13.371212121212121,0)" xlink:href="#ae"/><use transform="matrix(0.006313131313131313,0,0,0.006313131313131313,20.637626262626263,0)" xlink:href="#af"/><use transform="matrix(0.006313131313131313,0,0,0.006313131313131313,31.262626262626263,0)" xlink:href="#ag"/><use transform="matrix(0.006313131313131313,0,0,0.006313131313131313,41.57828282828283,0)" xlink:href="#ah"/><use transform="matrix(0.006313131313131313,0,0,0.006313131313131313,48.484848484848484,0)" xlink:href="#af"/></g><path fill="#333" d="M452-924V0H216v-1536h228v240h20c72-156 216-260 448-260 311 0 520 188 520 580V0h-236v-960c0-241-133-384-352-384-226 0-392 152-392 420" id="ai"/><path fill="#333" d="M836 608c-343 0-532-147-628-308l188-132c63 85 161 232 440 232 248 0 428-116 428-372v-312h-20c-52 84-148 260-448 260-372 0-652-272-652-752 0-472 268-780 656-780 300 0 396 184 448 264h24v-244h228V44c0 396-296 564-664 564zm-8-844c284 0 440-204 440-544 0-332-152-564-440-564-300 0-448 252-448 564 0 320 152 544 448 544" id="aj"/><g id="i"><use transform="matrix(0.01025883838383838,0,0,0.01025883838383838,0,0)" xlink:href="#G"/><use transform="matrix(0.01025883838383838,0,0,0.01025883838383838,18.342803030303024,0)" xlink:href="#V"/><use transform="matrix(0.01025883838383838,0,0,0.01025883838383838,35.126262626262616,0)" xlink:href="#W"/><use transform="matrix(0.01025883838383838,0,0,0.01025883838383838,53.0587121212121,0)" xlink:href="#Q"/><use transform="matrix(0.01025883838383838,0,0,0.01025883838383838,59.911616161616145,0)" xlink:href="#O"/><use transform="matrix(0.01025883838383838,0,0,0.01025883838383838,66.76452020202018,0)" xlink:href="#S"/><use transform="matrix(0.01025883838383838,0,0,0.01025883838383838,81.86553030303028,0)" xlink:href="#T"/><use transform="matrix(0.01025883838383838,0,0,0.01025883838383838,98.93623737373736,0)" xlink:href="#O"/><use transform="matrix(0.01025883838383838,0,0,0.01025883838383838,105.7891414141414,0)" xlink:href="#ai"/><use transform="matrix(0.01025883838383838,0,0,0.01025883838383838,122.69570707070704,0)" xlink:href="#aj"/></g><path fill="#333" d="M1896-1408h-248c-60-284-304-436-576-436-372 0-664 288-664 820s292 820 664 820c272 0 516-152 576-436h248c-76 420-412 668-824 668-524 0-904-404-904-1052s380-1052 904-1052c412 0 748 248 824 668" id="ak"/><path fill="#333" d="M840 32c-416 0-696-316-696-792 0-480 280-796 696-796s696 316 696 796c0 476-280 792-696 792zm0-212c316 0 460-272 460-580s-144-584-460-584-460 276-460 584 144 580 460 580" id="al"/><path fill="#333" d="M216 0v-1536h228v240h20c64-164 212-260 412-260 202 0 336 96 412 260h16c79-159 240-260 460-260 274 0 468 167 468 528V0h-236v-1028c0-227-144-316-312-316-216 0-340 146-340 344V0h-240v-1052c0-175-125-292-304-292-184 0-348 159-348 384V0H216" id="am"/><g id="j"><use transform="matrix(0.01025883838383838,0,0,0.01025883838383838,0,0)" xlink:href="#ak"/><use transform="matrix(0.01025883838383838,0,0,0.01025883838383838,21.010101010101003,0)" xlink:href="#al"/><use transform="matrix(0.01025883838383838,0,0,0.01025883838383838,38.24494949494948,0)" xlink:href="#ai"/><use transform="matrix(0.01025883838383838,0,0,0.01025883838383838,55.15151515151513,0)" xlink:href="#S"/><use transform="matrix(0.01025883838383838,0,0,0.01025883838383838,70.25252525252523,0)" xlink:href="#al"/><use transform="matrix(0.01025883838383838,0,0,0.01025883838383838,87.48737373737372,0)" xlink:href="#K"/><use transform="matrix(0.01025883838383838,0,0,0.01025883838383838,98.23863636363635,0)" xlink:href="#N"/><use transform="matrix(0.01025883838383838,0,0,0.01025883838383838,108.74368686868685,0)" xlink:href="#O"/><use transform="matrix(0.01025883838383838,0,0,0.01025883838383838,115.59659090909089,0)" xlink:href="#V"/><use transform="matrix(0.01025883838383838,0,0,0.01025883838383838,132.3800505050505,0)" xlink:href="#am"/></g><g id="k"><use transform="matrix(0.01025883838383838,0,0,0.01025883838383838,0,0)" xlink:href="#M"/><use transform="matrix(0.01025883838383838,0,0,0.01025883838383838,19.532828282828277,0)" xlink:href="#P"/><use transform="matrix(0.01025883838383838,0,0,0.01025883838383838,35.659722222222214,0)" xlink:href="#P"/><use transform="matrix(0.01025883838383838,0,0,0.01025883838383838,51.78661616161615,0)" xlink:href="#al"/><use transform="matrix(0.01025883838383838,0,0,0.01025883838383838,69.02146464646464,0)" xlink:href="#V"/><use transform="matrix(0.01025883838383838,0,0,0.01025883838383838,85.80492424242422,0)" xlink:href="#ai"/><use transform="matrix(0.01025883838383838,0,0,0.01025883838383838,102.71148989898987,0)" xlink:href="#N"/></g><path fill="#333" d="M531 0H67l707-2048h558L2038 0h-464l-152-467H683zm262-805h520l-252-775h-16" id="an"/><path fill="#333" d="M596-2048V0H170v-2048h426" id="ao"/><g id="l"><use transform="matrix(0.006313131313131313,0,0,0.006313131313131313,0,0)" xlink:href="#an"/><use transform="matrix(0.006313131313131313,0,0,0.006313131313131313,13.295454545454545,0)" xlink:href="#ao"/><use transform="matrix(0.006313131313131313,0,0,0.006313131313131313,18.13131313131313,0)" xlink:href="#ao"/></g><path fill="#333" d="M178 0v-2048h808c465 0 734 287 734 694 0 409-274 690-745 690H611V0H178zm433-1011h294c248 0 369-140 369-343 0-204-121-340-371-340H611v683" id="ap"/><path fill="#333" d="M1155-654v-882h426V0h-409v-279h-16C1087-99 921 20 690 20c-309 0-519-219-520-578v-978h426v902c1 181 105 294 266 294 153 0 294-108 293-314" id="aq"/><path fill="#333" d="M178 0v-2048h426v770h13c57-125 180-278 437-278 337 0 622 262 622 790 0 514-273 791-623 791-248 0-377-143-436-271h-19V0H178zm417-768c0 274 118 454 323 454 209 0 323-186 323-454 0-266-112-449-323-449-207 0-323 175-323 449" id="ar"/><path fill="#333" d="M170 0v-1536h426V0H170zm214-1734c-126 0-230-97-230-216 0-118 104-215 230-215 127 0 231 97 231 215 0 119-104 216-231 216" id="as"/><path fill="#333" d="M1448-1098l-390 24c-21-99-109-180-257-180-132 0-236 60-235 152-1 74 52 123 195 154l278 56c298 61 443 194 444 416-1 303-286 506-684 506-407 0-657-181-697-475l419-22c26 125 127 190 279 190 149 0 248-65 250-156-2-77-63-126-197-153l-266-53c-300-60-445-209-444-439-1-296 258-478 651-478 388 0 616 175 654 458" id="at"/><path fill="#333" d="M596-888V0H170v-2048h414v783h18c70-181 226-291 459-291 320 0 532 218 531 578V0h-426v-902c1-189-101-300-274-300-174 0-295 116-296 314" id="au"/><g id="m"><use transform="matrix(0.006313131313131313,0,0,0.006313131313131313,0,0)" xlink:href="#ap"/><use transform="matrix(0.006313131313131313,0,0,0.006313131313131313,11.515151515151516,0)" xlink:href="#aq"/><use transform="matrix(0.006313131313131313,0,0,0.006313131313131313,22.569444444444443,0)" xlink:href="#ar"/><use transform="matrix(0.006313131313131313,0,0,0.006313131313131313,33.86363636363636,0)" xlink:href="#ao"/><use transform="matrix(0.006313131313131313,0,0,0.006313131313131313,38.69949494949495,0)" xlink:href="#as"/><use transform="matrix(0.006313131313131313,0,0,0.006313131313131313,43.535353535353536,0)" xlink:href="#at"/><use transform="matrix(0.006313131313131313,0,0,0.006313131313131313,53.52272727272727,0)" xlink:href="#au"/><use transform="matrix(0.006313131313131313,0,0,0.006313131313131313,64.62121212121212,0)" xlink:href="#af"/><use transform="matrix(0.006313131313131313,0,0,0.006313131313131313,75.24621212121212,0)" xlink:href="#ae"/><use transform="matrix(0.006313131313131313,0,0,0.006313131313131313,82.51262626262627,0)" xlink:href="#at"/></g><g id="n"><use transform="matrix(0.006313131313131313,0,0,0.006313131313131313,0,0)" xlink:href="#ag"/><use transform="matrix(0.006313131313131313,0,0,0.006313131313131313,10.315656565656566,0)" xlink:href="#ae"/><use transform="matrix(0.006313131313131313,0,0,0.006313131313131313,17.582070707070706,0)" xlink:href="#af"/></g><path fill="#333" d="M736 25c-350 0-623-277-623-791 0-528 285-790 622-790 257 0 380 153 437 278h13v-770h425V0h-420v-246h-18C1113-118 984 25 736 25zm135-339c205 0 323-180 323-454s-116-449-323-449c-211 0-323 183-323 449 0 268 114 454 323 454" id="av"/><g id="o"><use transform="matrix(0.006313131313131313,0,0,0.006313131313131313,0,0)" xlink:href="#ag"/><use transform="matrix(0.006313131313131313,0,0,0.006313131313131313,10.315656565656566,0)" xlink:href="#av"/><use transform="matrix(0.006313131313131313,0,0,0.006313131313131313,21.609848484848484,0)" xlink:href="#av"/><use transform="matrix(0.006313131313131313,0,0,0.006313131313131313,32.9040404040404,0)" xlink:href="#af"/><use transform="matrix(0.006313131313131313,0,0,0.006313131313131313,43.5290404040404,0)" xlink:href="#av"/></g><g id="p"><use transform="matrix(0.006313131313131313,0,0,0.006313131313131313,0,0)" xlink:href="#ag"/><use transform="matrix(0.006313131313131313,0,0,0.006313131313131313,10.315656565656566,0)" xlink:href="#at"/></g><path fill="#333" d="M1611 576h-426v-822h-13C1113-118 984 25 736 25c-350 0-623-277-623-791 0-528 285-790 622-790 257 0 380 153 437 278h19v-258h420V576zM1194-768c0-274-116-449-323-449-211 0-323 183-323 449 0 268 114 454 323 454 205 0 323-180 323-454" id="aw"/><path fill="#333" d="M1127-1010v338H193v-338h934" id="ax"/><path fill="#333" d="M473 0L55-1536h431L724-504h14l248-1032h423l252 1026h13l234-1026h430L1921 0h-451l-264-966h-19L923 0H473" id="ay"/><path fill="#333" d="M862 608c-414 0-651-186-702-428l394-53c35 93 130 175 318 175 185 0 320-82 320-293v-281h-18C1118-145 981-22 736-22c-346 0-623-238-623-749 0-523 285-785 622-785 257 0 382 153 439 278h16v-258h423V15c0 393-312 593-751 593zm9-950c205 0 323-160 323-431 0-269-116-444-323-444-211 0-323 183-323 444 0 265 114 431 323 431" id="az"/><g id="q"><use transform="matrix(0.006313131313131313,0,0,0.006313131313131313,0,0)" xlink:href="#af"/><use transform="matrix(0.006313131313131313,0,0,0.006313131313131313,10.625,0)" xlink:href="#aw"/><use transform="matrix(0.006313131313131313,0,0,0.006313131313131313,21.86868686868687,0)" xlink:href="#aq"/><use transform="matrix(0.006313131313131313,0,0,0.006313131313131313,32.9229797979798,0)" xlink:href="#ag"/><use transform="matrix(0.006313131313131313,0,0,0.006313131313131313,43.23863636363637,0)" xlink:href="#ao"/><use transform="matrix(0.006313131313131313,0,0,0.006313131313131313,48.074494949494955,0)" xlink:href="#ax"/><use transform="matrix(0.006313131313131313,0,0,0.006313131313131313,56.40782828282829,0)" xlink:href="#ay"/><use transform="matrix(0.006313131313131313,0,0,0.006313131313131313,71.52146464646465,0)" xlink:href="#af"/><use transform="matrix(0.006313131313131313,0,0,0.006313131313131313,82.14646464646465,0)" xlink:href="#as"/><use transform="matrix(0.006313131313131313,0,0,0.006313131313131313,86.98232323232324,0)" xlink:href="#az"/><use transform="matrix(0.006313131313131313,0,0,0.006313131313131313,98.23863636363637,0)" xlink:href="#au"/><use transform="matrix(0.006313131313131313,0,0,0.006313131313131313,109.3371212121212,0)" xlink:href="#ah"/></g><path fill="#333" d="M596-888V0H170v-1536h406v271h18c69-179 234-291 462-291 320 0 530 220 530 578V0h-426v-902c1-188-102-300-273-300-172 0-290 116-291 314" id="aA"/><g id="r"><use transform="matrix(0.006313131313131313,0,0,0.006313131313131313,0,0)" xlink:href="#at"/><use transform="matrix(0.006313131313131313,0,0,0.006313131313131313,9.987373737373737,0)" xlink:href="#as"/><use transform="matrix(0.006313131313131313,0,0,0.006313131313131313,14.823232323232324,0)" xlink:href="#az"/><use transform="matrix(0.006313131313131313,0,0,0.006313131313131313,26.079545454545453,0)" xlink:href="#aA"/><use transform="matrix(0.006313131313131313,0,0,0.006313131313131313,37.13383838383838,0)" xlink:href="#af"/><use transform="matrix(0.006313131313131313,0,0,0.006313131313131313,47.75883838383838,0)" xlink:href="#ae"/><use transform="matrix(0.006313131313131313,0,0,0.006313131313131313,55.025252525252526,0)" xlink:href="#at"/></g><path fill="#333" d="M864 30c-466 0-756-319-756-792 0-476 290-794 756-794s756 318 756 794c0 473-290 792-756 792zm2-330c211 0 321-197 321-465s-110-466-321-466c-215 0-325 198-325 466s110 465 325 465" id="aB"/><g id="s"><use transform="matrix(0.006313131313131313,0,0,0.006313131313131313,0,0)" xlink:href="#ah"/><use transform="matrix(0.006313131313131313,0,0,0.006313131313131313,6.906565656565657,0)" xlink:href="#aB"/></g><g id="t"><use transform="matrix(0.006313131313131313,0,0,0.006313131313131313,0,0)" xlink:href="#ah"/><use transform="matrix(0.006313131313131313,0,0,0.006313131313131313,6.906565656565657,0)" xlink:href="#au"/><use transform="matrix(0.006313131313131313,0,0,0.006313131313131313,18.005050505050505,0)" xlink:href="#af"/></g><path fill="#333" d="M170 576v-2112h420v258h19c57-125 180-278 437-278 337 0 622 262 622 790 0 514-273 791-623 791-248 0-377-143-436-271h-13v822H170zM587-768c0 274 118 454 323 454 209 0 323-186 323-454 0-266-112-449-323-449-207 0-323 175-323 449" id="aC"/><g id="u"><use transform="matrix(0.006313131313131313,0,0,0.006313131313131313,0,0)" xlink:href="#aC"/><use transform="matrix(0.006313131313131313,0,0,0.006313131313131313,11.243686868686869,0)" xlink:href="#aq"/><use transform="matrix(0.006313131313131313,0,0,0.006313131313131313,22.2979797979798,0)" xlink:href="#ar"/><use transform="matrix(0.006313131313131313,0,0,0.006313131313131313,33.592171717171716,0)" xlink:href="#ao"/><use transform="matrix(0.006313131313131313,0,0,0.006313131313131313,38.428030303030305,0)" xlink:href="#as"/><use transform="matrix(0.006313131313131313,0,0,0.006313131313131313,43.26388888888889,0)" xlink:href="#at"/><use transform="matrix(0.006313131313131313,0,0,0.006313131313131313,53.25126262626262,0)" xlink:href="#au"/><use transform="matrix(0.006313131313131313,0,0,0.006313131313131313,64.34974747474747,0)" xlink:href="#as"/><use transform="matrix(0.006313131313131313,0,0,0.006313131313131313,69.18560606060606,0)" xlink:href="#aA"/><use transform="matrix(0.006313131313131313,0,0,0.006313131313131313,80.23989898989899,0)" xlink:href="#az"/></g><path fill="#333" d="M864 30c-473 0-756-325-756-792 0-471 288-794 754-794 401 0 670 233 688 588h-402c-23-153-123-256-279-256-198 0-328 166-328 456 0 294 129 461 328 461 146 0 254-92 279-256h402c-20 353-277 593-686 593" id="aD"/><path fill="#333" d="M170 0v-1536h406v271h18c64-181 221-291 428-291 211 0 368 113 417 291h16c63-176 238-291 463-291 286 0 484 190 484 523V0h-425v-949c0-171-102-256-238-256-155 0-246 108-246 267V0h-413v-958c0-151-94-247-234-247-142 0-250 113-250 283V0H170" id="aE"/><g id="v"><use transform="matrix(0.006313131313131313,0,0,0.006313131313131313,0,0)" xlink:href="#aD"/><use transform="matrix(0.006313131313131313,0,0,0.006313131313131313,10.441919191919192,0)" xlink:href="#aB"/><use transform="matrix(0.006313131313131313,0,0,0.006313131313131313,21.3510101010101,0)" xlink:href="#aA"/><use transform="matrix(0.006313131313131313,0,0,0.006313131313131313,32.40530303030303,0)" xlink:href="#at"/><use transform="matrix(0.006313131313131313,0,0,0.006313131313131313,42.39267676767677,0)" xlink:href="#aB"/><use transform="matrix(0.006313131313131313,0,0,0.006313131313131313,53.301767676767675,0)" xlink:href="#ae"/><use transform="matrix(0.006313131313131313,0,0,0.006313131313131313,60.56818181818182,0)" xlink:href="#ah"/><use transform="matrix(0.006313131313131313,0,0,0.006313131313131313,67.47474747474747,0)" xlink:href="#as"/><use transform="matrix(0.006313131313131313,0,0,0.006313131313131313,72.31060606060606,0)" xlink:href="#aq"/><use transform="matrix(0.006313131313131313,0,0,0.006313131313131313,83.36489898989899,0)" xlink:href="#aE"/></g><g id="w"><use transform="matrix(0.006313131313131313,0,0,0.006313131313131313,0,0)" xlink:href="#ag"/><use transform="matrix(0.006313131313131313,0,0,0.006313131313131313,10.315656565656566,0)" xlink:href="#aD"/><use transform="matrix(0.006313131313131313,0,0,0.006313131313131313,20.757575757575758,0)" xlink:href="#aD"/><use transform="matrix(0.006313131313131313,0,0,0.006313131313131313,31.199494949494948,0)" xlink:href="#aB"/><use transform="matrix(0.006313131313131313,0,0,0.006313131313131313,42.108585858585855,0)" xlink:href="#aq"/><use transform="matrix(0.006313131313131313,0,0,0.006313131313131313,53.16287878787879,0)" xlink:href="#aA"/><use transform="matrix(0.006313131313131313,0,0,0.006313131313131313,64.21717171717171,0)" xlink:href="#ah"/></g><path fill="#333" d="M248 0v-2048h716c428 0 628 244 628 544 0 264-156 380-332 428v20c188 12 412 188 412 512 0 308-200 544-684 544H248zm248-220h492c324 0 448-144 448-324 0-208-168-388-436-388H496v712zm0-928h460c224 0 400-140 400-356 0-180-120-324-392-324H496v680" id="aF"/><path fill="#333" d="M216 0v-2048h236v1196h28l672-684h292L795-880 1492 0h-300L617-728 452-575V0H216" id="aG"/><g id="x"><use transform="matrix(0.01025883838383838,0,0,0.01025883838383838,0,0)" xlink:href="#aF"/><use transform="matrix(0.01025883838383838,0,0,0.01025883838383838,18.794191919191913,0)" xlink:href="#Q"/><use transform="matrix(0.01025883838383838,0,0,0.01025883838383838,25.64709595959595,0)" xlink:href="#al"/><use transform="matrix(0.01025883838383838,0,0,0.01025883838383838,42.88194444444443,0)" xlink:href="#P"/><use transform="matrix(0.01025883838383838,0,0,0.01025883838383838,59.008838383838366,0)" xlink:href="#aG"/><use transform="matrix(0.01025883838383838,0,0,0.01025883838383838,74.72537878787877,0)" xlink:href="#P"/><use transform="matrix(0.01025883838383838,0,0,0.01025883838383838,90.85227272727269,0)" xlink:href="#T"/><use transform="matrix(0.01025883838383838,0,0,0.01025883838383838,107.92297979797976,0)" xlink:href="#H"/><use transform="matrix(0.01025883838383838,0,0,0.01025883838383838,124.21401515151511,0)" xlink:href="#O"/><use transform="matrix(0.01025883838383838,0,0,0.01025883838383838,131.06691919191914,0)" xlink:href="#ai"/></g><path fill="#333" d="M1289-1459c-16-161-143-255-350-255-212 0-329 97-329 229 0 207 307 251 508 298 355 83 613 261 614 602-1 375-295 614-795 614-497 0-814-229-825-672h419c14 205 176 309 401 309 220 0 362-102 363-252-1-138-125-202-348-256l-223-56c-346-83-559-256-558-558-2-372 327-620 776-620 456 0 756 252 762 617h-415" id="aH"/><path fill="#333" d="M1062-2144L402 308H35l660-2452h367" id="aI"/><g id="y"><use transform="matrix(0.006313131313131313,0,0,0.006313131313131313,0,0)" xlink:href="#aH"/><use transform="matrix(0.006313131313131313,0,0,0.006313131313131313,11.641414141414142,0)" xlink:href="#ah"/><use transform="matrix(0.006313131313131313,0,0,0.006313131313131313,18.5479797979798,0)" xlink:href="#aB"/><use transform="matrix(0.006313131313131313,0,0,0.006313131313131313,29.457070707070706,0)" xlink:href="#ae"/><use transform="matrix(0.006313131313131313,0,0,0.006313131313131313,36.723484848484844,0)" xlink:href="#af"/><use transform="matrix(0.006313131313131313,0,0,0.006313131313131313,47.348484848484844,0)" xlink:href="#aI"/><use transform="matrix(0.006313131313131313,0,0,0.006313131313131313,54.28030303030303,0)" xlink:href="#ap"/><use transform="matrix(0.006313131313131313,0,0,0.006313131313131313,65.79545454545453,0)" xlink:href="#aq"/><use transform="matrix(0.006313131313131313,0,0,0.006313131313131313,76.84974747474746,0)" xlink:href="#ar"/><use transform="matrix(0.006313131313131313,0,0,0.006313131313131313,88.14393939393938,0)" xlink:href="#ao"/><use transform="matrix(0.006313131313131313,0,0,0.006313131313131313,92.97979797979797,0)" xlink:href="#as"/><use transform="matrix(0.006313131313131313,0,0,0.006313131313131313,97.81565656565655,0)" xlink:href="#at"/><use transform="matrix(0.006313131313131313,0,0,0.006313131313131313,107.80303030303028,0)" xlink:href="#au"/></g><path fill="#333" d="M496-2048V0H248v-2048h248" id="aJ"/><path fill="#333" d="M248 0v-2048h1228v220H496v692h888v220H496V0H248" id="aK"/><g id="z"><use transform="matrix(0.01025883838383838,0,0,0.01025883838383838,0,0)" xlink:href="#aJ"/><use transform="matrix(0.01025883838383838,0,0,0.01025883838383838,7.632575757575755,0)" xlink:href="#G"/><use transform="matrix(0.01025883838383838,0,0,0.01025883838383838,25.97537878787878,0)" xlink:href="#aK"/><use transform="matrix(0.01025883838383838,0,0,0.01025883838383838,42.92297979797978,0)" xlink:href="#Y"/></g><path fill="#333" d="M178 0v-2048h433v1691h878V0H178" id="aL"/><path fill="#333" d="M170 0v-2048h426v1095h23l492-583h489l-570 665L1629 0h-499L711-619 596-488V0H170" id="aM"/><g id="A"><use transform="matrix(0.006313131313131313,0,0,0.006313131313131313,0,0)" xlink:href="#aL"/><use transform="matrix(0.006313131313131313,0,0,0.006313131313131313,10.088383838383837,0)" xlink:href="#as"/><use transform="matrix(0.006313131313131313,0,0,0.006313131313131313,14.92424242424242,0)" xlink:href="#aA"/><use transform="matrix(0.006313131313131313,0,0,0.006313131313131313,25.978535353535346,0)" xlink:href="#aM"/></g><g id="B"><use transform="matrix(0.006313131313131313,0,0,0.006313131313131313,0,0)" xlink:href="#ar"/><use transform="matrix(0.006313131313131313,0,0,0.006313131313131313,11.294191919191919,0)" xlink:href="#ag"/><use transform="matrix(0.006313131313131313,0,0,0.006313131313131313,21.609848484848484,0)" xlink:href="#aD"/><use transform="matrix(0.006313131313131313,0,0,0.006313131313131313,32.051767676767675,0)" xlink:href="#aM"/></g><g id="C"><use transform="matrix(0.006313131313131313,0,0,0.006313131313131313,0,0)" xlink:href="#ah"/><use transform="matrix(0.006313131313131313,0,0,0.006313131313131313,6.906565656565657,0)" xlink:href="#aB"/></g><path fill="#333" d="M178 0v-2048h808c465 0 734 262 734 669 0 280-129 483-362 583L1793 0h-478L927-726H611V0H178zm433-1074h294c248 0 369-102 369-305 0-204-121-315-371-315H611v620" id="aN"/><g id="D"><use transform="matrix(0.006313131313131313,0,0,0.006313131313131313,0,0)" xlink:href="#aN"/><use transform="matrix(0.006313131313131313,0,0,0.006313131313131313,11.666666666666666,0)" xlink:href="#af"/><use transform="matrix(0.006313131313131313,0,0,0.006313131313131313,22.291666666666664,0)" xlink:href="#aD"/><use transform="matrix(0.006313131313131313,0,0,0.006313131313131313,32.733585858585855,0)" xlink:href="#aB"/><use transform="matrix(0.006313131313131313,0,0,0.006313131313131313,43.64267676767676,0)" xlink:href="#ae"/><use transform="matrix(0.006313131313131313,0,0,0.006313131313131313,50.9090909090909,0)" xlink:href="#av"/></g><g id="E"><use transform="matrix(0.006313131313131313,0,0,0.006313131313131313,0,0)" xlink:href="#aB"/><use transform="matrix(0.006313131313131313,0,0,0.006313131313131313,10.909090909090908,0)" xlink:href="#ay"/><use transform="matrix(0.006313131313131313,0,0,0.006313131313131313,26.022727272727273,0)" xlink:href="#aA"/><use transform="matrix(0.006313131313131313,0,0,0.006313131313131313,37.0770202020202,0)" xlink:href="#af"/><use transform="matrix(0.006313131313131313,0,0,0.006313131313131313,47.7020202020202,0)" xlink:href="#ae"/><use transform="matrix(0.006313131313131313,0,0,0.006313131313131313,54.96843434343434,0)" xlink:href="#at"/><use transform="matrix(0.006313131313131313,0,0,0.006313131313131313,64.95580808080808,0)" xlink:href="#au"/><use transform="matrix(0.006313131313131313,0,0,0.006313131313131313,76.05429292929293,0)" xlink:href="#as"/><use transform="matrix(0.006313131313131313,0,0,0.006313131313131313,80.89015151515152,0)" xlink:href="#aC"/></g><path fill="#333" d="M100-1691v-357h1682v357h-627V0H727v-1691H100" id="aO"/><g id="F"><use transform="matrix(0.006313131313131313,0,0,0.006313131313131313,0,0)" xlink:href="#aO"/><use transform="matrix(0.006313131313131313,0,0,0.006313131313131313,11.881313131313131,0)" xlink:href="#as"/><use transform="matrix(0.006313131313131313,0,0,0.006313131313131313,16.717171717171716,0)" xlink:href="#aE"/><use transform="matrix(0.006313131313131313,0,0,0.006313131313131313,32.92929292929293,0)" xlink:href="#af"/><use transform="matrix(0.006313131313131313,0,0,0.006313131313131313,43.55429292929293,0)" xlink:href="#at"/><use transform="matrix(0.006313131313131313,0,0,0.006313131313131313,53.541666666666664,0)" xlink:href="#ah"/><use transform="matrix(0.006313131313131313,0,0,0.006313131313131313,60.448232323232325,0)" xlink:href="#ag"/><use transform="matrix(0.006313131313131313,0,0,0.006313131313131313,70.76388888888889,0)" xlink:href="#aE"/><use transform="matrix(0.006313131313131313,0,0,0.006313131313131313,86.9760101010101,0)" xlink:href="#aC"/></g></defs></g></svg>