<svg xmlns="http://www.w3.org/2000/svg" xmlns:xlink="http://www.w3.org/1999/xlink" xmlns:lucid="lucid" width="1220" height="546"><g transform="translate(-2183 -1406)" lucid:page-tab-id="0_0"><path d="M0 1259.2h3676.8v7619.2H0z" fill="#fff"/><path d="M2512 1760c37.56 0 68 17.9 68 40s-30.44 40-68 40h-204c-37.56 0-68-17.9-68-40s30.44-40 68-40z" stroke="#5e5e5e" stroke-width="3" fill="#fff"/><use xlink:href="#a" transform="matrix(1,0,0,1,2245,1765) translate(59.010681818181844 45.4861111111111)"/><use xlink:href="#b" transform="matrix(1,0,0,1,2245,1765) translate(193.64767676767676 45.4861111111111)"/><path d="M2411.5 1757h-3v-43.75h3zm0-65.27h-3v-39.4h3z" fill="#5e5e5e"/><path d="M2411.5 1758.5h-3v-1.54h3z" fill="#5e5e5e"/><path d="M2414.64 1650.84h-9.28l4.64-14.26z" fill="#fff"/><path d="M2416.7 1652.34h-13.4l6.7-20.62zm-9.27-3h5.14l-2.57-7.9z" fill="#5e5e5e"/><use xlink:href="#c" transform="matrix(1,0,0,1,2363.036616161616,1691.7324399622087) translate(0 17.22222222222222)"/><use xlink:href="#d" transform="matrix(1,0,0,1,2363.036616161616,1691.7324399622087) translate(63.23232323232323 17.22222222222222)"/><path d="M2240 1526.43c0-3.3 2.7-6 6-6h328c3.3 0 6 2.7 6 6v114c-56.78-20.04-92.14-20.04-113.56-20.04-34 0-79.22 20.03-113.22 20.03-21.08 0-56.78 0-113.22-20.04z" stroke="#5e5e5e" stroke-width="3" fill="#fff"/><use xlink:href="#e" transform="matrix(1,0,0,1,2245,1525.4330708661423) translate(7.834595959595987 39.2361111111111)"/><use xlink:href="#f" transform="matrix(1,0,0,1,2245,1525.4330708661423) translate(117.91193181818184 74.1982323232323)"/><path d="M2601.62 1582.02H2583v-3h18.62zm136.26 0h-17.36v-3h17.36z" fill="#5e5e5e"/><path d="M2583.04 1582.02h-1.54v-3h1.54z" fill="#5e5e5e"/><path d="M2753.65 1580.52l-14.27 4.63v-9.27z" fill="#fff"/><path d="M2758.5 1580.52l-20.62 6.7v-13.4zm-17.62 2.57l7.9-2.58-7.9-2.57z" fill="#5e5e5e"/><use xlink:href="#g" transform="matrix(1,0,0,1,2601.6225801475043,1569.7613632627222) translate(0 17.22222222222222)"/><path d="M2904 1520.43c8.84 0 16 26.87 16 60 0 33.14-7.16 60-16 60h-128c-8.84 0-16-26.86-16-60 0-33.13 7.16-60 16-60z" stroke="#5e5e5e" stroke-width="3" fill="#fff"/><path d="M2904 1640.43c-8.84 0-16-26.86-16-60 0-33.13 7.16-60 16-60" stroke="#5e5e5e" stroke-width="3" fill="none"/><use xlink:href="#h" transform="matrix(1,0,0,1,2765,1525.4330708661423) translate(28.326073232323246 65.7986111111111)"/><path d="M3358.4 1628.43c0 6.63-44.4 12-99.2 12-54.8 0-99.2-5.37-99.2-12v-96c0-6.62 44.4-12 99.2-12 54.8 0 99.2 5.38 99.2 12z" stroke="#5e5e5e" stroke-width="3" fill="#fff"/><path d="M3358.4 1532.43c0 6.63-44.4 12-99.2 12-54.8 0-99.2-5.37-99.2-12" stroke="#5e5e5e" stroke-width="3" fill="none"/><use xlink:href="#i" transform="matrix(1,0,0,1,3165,1549.4330708661423) translate(20.513257575757606 52.1736111111111)"/><path d="M2737.53 1801.5H2583v-3h154.53zm273.97-7.3l-.98 3.6-2.7 2.72-3.62.98h-125.76v-3h125.36l2.45-.66 1.6-1.6.65-2.44v-182.47h3zm126.38-212.27h-29.47v-3h29.48z" fill="#5e5e5e"/><path d="M2583.04 1801.5h-1.6l.06-1.48v-.72l-.06-.8h1.6z" fill="#5e5e5e"/><path d="M3153.65 1580.43l-14.27 4.64v-9.27z" fill="#fff"/><path d="M3158.5 1580.43l-20.62 6.7v-13.4zm-17.62 2.57l7.9-2.57-7.9-2.57z" fill="#5e5e5e"/><use xlink:href="#j" transform="matrix(1,0,0,1,2960.8901515151515,1589.8151723848234) translate(0 17.22222222222222)"/><use xlink:href="#k" transform="matrix(1,0,0,1,2737.530795100059,1789.2424242424242) translate(0 17.22222222222222)"/><use xlink:href="#l" transform="matrix(1,0,0,1,2737.530795100059,1789.2424242424242) translate(42.910353535353536 17.22222222222222)"/><path d="M3137.88 1579.37v3h-29.47v-3zm-214.88 2.56v-3h17.03v3z" fill="#5e5e5e"/><path d="M2923.04 1581.93h-1.6l.06-1.5-.05-1.5h1.6z" fill="#5e5e5e"/><path d="M3153.65 1580.87l-14.27 4.63v-9.27z" fill="#fff"/><path d="M3158.5 1580.87l-20.62 6.7v-13.4zm-17.62 2.57l7.9-2.57-7.9-2.57z" fill="#5e5e5e"/><use xlink:href="#m" transform="matrix(1,0,0,1,2940.0266060013237,1569.6754951085666) translate(0 17.22222222222222)"/><use xlink:href="#n" transform="matrix(1,0,0,1,2940.0266060013237,1569.6754951085666) translate(66.32575757575756 17.22222222222222)"/><path d="M3257 1478.4l2.72 2.73.98 3.6v32.7h-3v-32.3l-.66-2.45-1.6-1.58-2.44-.67h-148.3v-3h148.7zm-262.5 2.03h-148.3l-2.45.67-1.6 1.58-.65 2.45v13.18h-3v-13.57l.98-3.6 2.7-2.72 3.62-.97h148.7z" fill="#5e5e5e"/><path d="M3260.7 1518.97l-1.48-.04h-1.52v-1.54h3z" fill="#5e5e5e"/><path d="M2840 1514.08l-4.64-14.27h9.28z" fill="#fff"/><path d="M2840 1518.93l-6.7-20.62h13.4zm-2.57-17.62l2.57 7.92 2.57-7.9z" fill="#5e5e5e"/><use xlink:href="#o" transform="matrix(1,0,0,1,2994.498983694071,1468.1754826987285) translate(0 17.22222222222222)"/><use xlink:href="#p" transform="matrix(1,0,0,1,2994.498983694071,1468.1754826987285) translate(40.44191919191919 17.22222222222222)"/><use xlink:href="#q" transform="matrix(1,0,0,1,2994.498983694071,1468.1754826987285) translate(87.41161616161615 17.22222222222222)"/><path d="M2411.5 1875.3l.66 2.45 1.6 1.6 2.44.65h289.77v3H2415.8l-3.6-.98-2.72-2.7-.98-3.62v-13.58h3zm849.2.4l-.98 3.6-2.7 2.72-3.62.98h-366.08v-3H3253l2.45-.66 1.6-1.6.65-2.44v-231.87h3z" fill="#5e5e5e"/><path d="M3259.18 1641.93h1.52v1.54h-3v-1.57z" fill="#5e5e5e"/><path d="M2414.64 1860.62h-9.28l4.64-14.27z" fill="#fff"/><path d="M2416.7 1862.12h-13.4l6.7-20.62zm-9.27-3h5.14l-2.57-7.9z" fill="#5e5e5e"/><g><use xlink:href="#o" transform="matrix(1,0,0,1,2705.969124154217,1870.7424242424242) translate(0 17.22222222222222)"/><use xlink:href="#p" transform="matrix(1,0,0,1,2705.969124154217,1870.7424242424242) translate(40.44191919191919 17.22222222222222)"/><use xlink:href="#r" transform="matrix(1,0,0,1,2705.969124154217,1870.7424242424242) translate(87.41161616161615 17.22222222222222)"/><use xlink:href="#s" transform="matrix(1,0,0,1,2705.969124154217,1870.7424242424242) translate(114.32449494949495 17.22222222222222)"/></g><defs><path fill="#333" d="M248 0v-2048h692c481 0 696 286 696 648s-215 652-692 652H496V0H248zm248-968h440c329 0 456-186 456-432s-127-428-460-428H496v860" id="t"/><path fill="#333" d="M1184-628v-908h236V0h-236v-260h-16C1096-104 944 20 712 20c-288 0-496-188-496-580v-976h236v960c0 224 140 368 336 368 176 0 396-132 396-420" id="u"/><path fill="#333" d="M248 0v-2048h236v756h20c52-80 144-264 444-264 388 0 656 308 656 792 0 488-268 796-652 796-296 0-396-184-448-268h-28V0H248zm232-768c0 348 156 588 440 588 296 0 448-260 448-588 0-324-148-576-448-576-288 0-440 232-440 576" id="v"/><path fill="#333" d="M452-2048V0H216v-2048h236" id="w"/><path fill="#333" d="M216 0v-1536h236V0H216zm120-1792c-92 0-168-72-168-160s76-160 168-160 168 72 168 160-76 160-168 160" id="x"/><path fill="#333" d="M1304-1192l-212 60c-41-106-126-220-332-220-188 0-328 96-328 228 0 118 82 179 264 224l228 56c274 67 408 202 408 416 0 265-243 460-600 460-314 0-529-139-584-400l224-56c42 165 163 248 356 248 220 0 360-108 360-240 0-106-73-180-228-216l-256-60c-282-66-408-208-408-420 0-260 240-444 564-444 304 0 470 146 544 364" id="y"/><path fill="#333" d="M452-924V0H216v-2048h236v752h20c72-159 210-260 452-260 314 0 524 185 524 580V0h-236v-960c0-244-134-384-356-384-233 0-404 152-404 420" id="z"/><path fill="#333" d="M860 32c-444 0-716-316-716-788s276-800 692-800c320 0 660 196 660 768v100H381c11 329 202 508 479 508 185 0 324-80 384-240l228 64c-72 232-300 388-612 388zM381-892h875c0-260-164-452-420-452-270 0-439 213-455 452" id="A"/><path fill="#333" d="M216 0v-1536h228v232h16c56-152 216-256 400-256 35 0 97 2 124 4v240c-16-4-81-16-144-16-224 0-388 152-388 360V0H216" id="B"/><g id="a"><use transform="matrix(0.01025883838383838,0,0,0.01025883838383838,0,0)" xlink:href="#t"/><use transform="matrix(0.01025883838383838,0,0,0.01025883838383838,18.342803030303024,0)" xlink:href="#u"/><use transform="matrix(0.01025883838383838,0,0,0.01025883838383838,35.126262626262616,0)" xlink:href="#v"/><use transform="matrix(0.01025883838383838,0,0,0.01025883838383838,53.0587121212121,0)" xlink:href="#w"/><use transform="matrix(0.01025883838383838,0,0,0.01025883838383838,59.911616161616145,0)" xlink:href="#x"/><use transform="matrix(0.01025883838383838,0,0,0.01025883838383838,66.76452020202018,0)" xlink:href="#y"/><use transform="matrix(0.01025883838383838,0,0,0.01025883838383838,81.86553030303028,0)" xlink:href="#z"/><use transform="matrix(0.01025883838383838,0,0,0.01025883838383838,98.93623737373736,0)" xlink:href="#A"/><use transform="matrix(0.01025883838383838,0,0,0.01025883838383838,115.7607323232323,0)" xlink:href="#B"/></g><path fill="#333" d="M300-864c0-504 136-924 380-1280h208c-192 264-344 804-344 1280S696 152 888 416H680C436 60 300-360 300-864" id="C"/><path fill="#333" d="M248 0v-2048h692c480 0 696 266 696 628 0 272-122 485-383 574L1716 0h-288L996-801c-165 2-334 0-500 1V0H248zm248-1024h440c328 0 456-150 456-396s-128-408-460-408H496v804" id="D"/><path fill="#333" d="M332 0H72l752-2048h256L1832 0h-260l-206-580H538zm284-800h672l-328-924h-16" id="E"/><path fill="#333" d="M1368-1536c-24-202-212-320-460-320-272 0-452 144-452 340 0 220 244 300 396 340l208 56c212 56 576 180 576 564 0 332-268 592-740 592-440 0-712-228-736-564h256c20 232 236 340 480 340 284 0 500-148 500-372 3-291-407-333-660-412-318-99-520-256-520-532 0-344 308-572 700-572 396 0 681 231 692 540h-240" id="F"/><path fill="#333" d="M720-864c0 504-136 924-380 1280H132C324 152 476-388 476-864S324-1880 132-2144h208c244 356 380 776 380 1280" id="G"/><g id="b"><use transform="matrix(0.01025883838383838,0,0,0.01025883838383838,0,0)" xlink:href="#C"/><use transform="matrix(0.01025883838383838,0,0,0.01025883838383838,10.464015151515149,0)" xlink:href="#D"/><use transform="matrix(0.01025883838383838,0,0,0.01025883838383838,28.92992424242423,0)" xlink:href="#E"/><use transform="matrix(0.01025883838383838,0,0,0.01025883838383838,48.46275252525251,0)" xlink:href="#F"/><use transform="matrix(0.01025883838383838,0,0,0.01025883838383838,66.88762626262624,0)" xlink:href="#G"/></g><path fill="#333" d="M1985-1331h-438c-33-225-204-362-441-362-317 0-525 243-525 669 0 438 211 669 522 669 231 0 403-126 444-345l438 2c-47 377-364 726-889 726-548 0-954-384-954-1052 0-670 413-1052 954-1052 474 0 832 272 889 745" id="H"/><path fill="#333" d="M170 0v-1536h413v268h16c74-233 253-330 503-275v378c-40-13-121-23-180-23-188 0-326 130-326 319V0H170" id="I"/><path fill="#333" d="M870 30c-473 0-762-304-762-791 0-474 293-795 745-795 406 0 722 258 722 780v117c-348 1-699-1-1046 1 0 229 135 370 348 370 142 0 252-61 295-178l394 26c-60 285-316 470-696 470zM529-923h645c-1-183-129-315-314-315-189 0-322 140-331 315" id="J"/><path fill="#333" d="M608 29C315 29 98-125 98-429c0-343 273-445 577-473 270-28 372-36 372-144 0-126-83-199-228-199-153 0-244 75-273 177l-394-32c59-280 301-456 669-456 342 0 652 154 652 520V0h-404v-213h-12C982-70 835 29 608 29zm122-294c187 0 320-123 320-284v-163c-51 34-203 56-296 69-150 21-249 80-249 200 0 117 94 178 225 178" id="K"/><path fill="#333" d="M987-1536v320H698v744c0 118 59 150 144 150 40 0 85-10 106-14l67 317C972-5 894 17 784 21 475 34 270-115 272-416v-800H62v-320h210v-368h426v368h289" id="L"/><g id="c"><use transform="matrix(0.006313131313131313,0,0,0.006313131313131313,0,0)" xlink:href="#H"/><use transform="matrix(0.006313131313131313,0,0,0.006313131313131313,13.371212121212121,0)" xlink:href="#I"/><use transform="matrix(0.006313131313131313,0,0,0.006313131313131313,20.637626262626263,0)" xlink:href="#J"/><use transform="matrix(0.006313131313131313,0,0,0.006313131313131313,31.262626262626263,0)" xlink:href="#K"/><use transform="matrix(0.006313131313131313,0,0,0.006313131313131313,41.57828282828283,0)" xlink:href="#L"/><use transform="matrix(0.006313131313131313,0,0,0.006313131313131313,48.484848484848484,0)" xlink:href="#J"/></g><path fill="#333" d="M178 0v-2048h1356v357H611v488h833v357H611V0H178" id="M"/><path fill="#333" d="M170 0v-1536h426V0H170zm214-1734c-126 0-230-97-230-216 0-118 104-215 230-215 127 0 231 97 231 215 0 119-104 216-231 216" id="N"/><path fill="#333" d="M596-2048V0H170v-2048h426" id="O"/><g id="d"><use transform="matrix(0.006313131313131313,0,0,0.006313131313131313,0,0)" xlink:href="#M"/><use transform="matrix(0.006313131313131313,0,0,0.006313131313131313,10.397727272727273,0)" xlink:href="#N"/><use transform="matrix(0.006313131313131313,0,0,0.006313131313131313,15.233585858585858,0)" xlink:href="#O"/><use transform="matrix(0.006313131313131313,0,0,0.006313131313131313,20.069444444444443,0)" xlink:href="#J"/></g><path fill="#333" d="M668 36c-292 0-524-172-524-472 0-352 311-415 596-452 284-38 396-22 396-148 0-197-107-312-324-312-225 0-348 120-400 232l-224-80c120-280 384-360 616-360 196 0 568 56 568 544V0h-236v-208h-12C1076-108 936 36 668 36zm36-212c280 0 432-188 432-380v-216c-40 48-308 76-408 88-184 24-348 80-348 260 0 164 136 248 324 248" id="P"/><path fill="#333" d="M216 576v-2112h228v244h28c52-80 144-264 444-264 388 0 656 308 656 792 0 488-268 796-652 796-296 0-396-184-448-268h-20v812H216zM448-768c0 348 156 588 440 588 296 0 448-260 448-588 0-324-148-576-448-576-288 0-440 232-440 576" id="Q"/><path fill="#333" d="M940-2144L280 308H64l660-2452h216" id="R"/><path fill="#333" d="M884-1536v200H556v896c3 250 148 245 308 220L912-8C642 78 320-42 320-376v-960H88v-200h232v-368h236v368h328" id="S"/><path fill="#333" d="M840 32c-432 0-696-332-696-792 0-468 276-796 692-796 324 0 568 192 608 480h-236c-36-140-160-268-368-268-276 0-460 228-460 576 0 356 180 588 460 588 184 0 324-100 368-268h236c-40 272-264 480-604 480" id="T"/><g id="e"><use transform="matrix(0.01025883838383838,0,0,0.01025883838383838,0,0)" xlink:href="#t"/><use transform="matrix(0.01025883838383838,0,0,0.01025883838383838,18.342803030303024,0)" xlink:href="#P"/><use transform="matrix(0.01025883838383838,0,0,0.01025883838383838,34.63383838383837,0)" xlink:href="#Q"/><use transform="matrix(0.01025883838383838,0,0,0.01025883838383838,52.23800505050503,0)" xlink:href="#A"/><use transform="matrix(0.01025883838383838,0,0,0.01025883838383838,69.06249999999999,0)" xlink:href="#B"/><use transform="matrix(0.01025883838383838,0,0,0.01025883838383838,78.82891414141412,0)" xlink:href="#R"/><use transform="matrix(0.01025883838383838,0,0,0.01025883838383838,89.12878787878785,0)" xlink:href="#E"/><use transform="matrix(0.01025883838383838,0,0,0.01025883838383838,108.66161616161612,0)" xlink:href="#B"/><use transform="matrix(0.01025883838383838,0,0,0.01025883838383838,119.41287878787875,0)" xlink:href="#S"/><use transform="matrix(0.01025883838383838,0,0,0.01025883838383838,129.91792929292924,0)" xlink:href="#x"/><use transform="matrix(0.01025883838383838,0,0,0.01025883838383838,136.7708333333333,0)" xlink:href="#T"/><use transform="matrix(0.01025883838383838,0,0,0.01025883838383838,152.89772727272722,0)" xlink:href="#w"/><use transform="matrix(0.01025883838383838,0,0,0.01025883838383838,159.75063131313127,0)" xlink:href="#A"/><use transform="matrix(0.01025883838383838,0,0,0.01025883838383838,176.5751262626262,0)" xlink:href="#R"/><use transform="matrix(0.01025883838383838,0,0,0.01025883838383838,186.87499999999994,0)" xlink:href="#D"/><use transform="matrix(0.01025883838383838,0,0,0.01025883838383838,205.34090909090904,0)" xlink:href="#A"/><use transform="matrix(0.01025883838383838,0,0,0.01025883838383838,222.16540404040396,0)" xlink:href="#y"/><use transform="matrix(0.01025883838383838,0,0,0.01025883838383838,237.2664141414141,0)" xlink:href="#A"/><use transform="matrix(0.01025883838383838,0,0,0.01025883838383838,254.09090909090904,0)" xlink:href="#P"/><use transform="matrix(0.01025883838383838,0,0,0.01025883838383838,270.3819444444444,0)" xlink:href="#B"/><use transform="matrix(0.01025883838383838,0,0,0.01025883838383838,281.13320707070704,0)" xlink:href="#T"/><use transform="matrix(0.01025883838383838,0,0,0.01025883838383838,297.260101010101,0)" xlink:href="#z"/></g><path fill="#333" d="M1976-1024c0 648-380 1052-904 1052S168-376 168-1024s380-1052 904-1052 904 404 904 1052zm-240 0c0-532-292-820-664-820s-664 288-664 820 292 820 664 820 664-288 664-820" id="U"/><g id="f"><use transform="matrix(0.01025883838383838,0,0,0.01025883838383838,0,0)" xlink:href="#U"/><use transform="matrix(0.01025883838383838,0,0,0.01025883838383838,21.994949494949488,0)" xlink:href="#u"/><use transform="matrix(0.01025883838383838,0,0,0.01025883838383838,38.77840909090908,0)" xlink:href="#S"/><use transform="matrix(0.01025883838383838,0,0,0.01025883838383838,49.28345959595958,0)" xlink:href="#Q"/><use transform="matrix(0.01025883838383838,0,0,0.01025883838383838,66.88762626262624,0)" xlink:href="#u"/><use transform="matrix(0.01025883838383838,0,0,0.01025883838383838,83.67108585858583,0)" xlink:href="#S"/></g><path fill="#333" d="M1289-1459c-16-161-143-255-350-255-212 0-329 97-329 229 0 207 307 251 508 298 355 83 613 261 614 602-1 375-295 614-795 614-497 0-814-229-825-672h419c14 205 176 309 401 309 220 0 362-102 363-252-1-138-125-202-348-256l-223-56c-346-83-559-256-558-558-2-372 327-620 776-620 456 0 756 252 762 617h-415" id="V"/><path fill="#333" d="M864 30c-466 0-756-319-756-792 0-476 290-794 756-794s756 318 756 794c0 473-290 792-756 792zm2-330c211 0 321-197 321-465s-110-466-321-466c-215 0-325 198-325 466s110 465 325 465" id="W"/><path fill="#333" d="M1062-2144L402 308H35l660-2452h367" id="X"/><path fill="#333" d="M178 0v-2048h808c465 0 734 287 734 694 0 409-274 690-745 690H611V0H178zm433-1011h294c248 0 369-140 369-343 0-204-121-340-371-340H611v683" id="Y"/><path fill="#333" d="M1155-654v-882h426V0h-409v-279h-16C1087-99 921 20 690 20c-309 0-519-219-520-578v-978h426v902c1 181 105 294 266 294 153 0 294-108 293-314" id="Z"/><path fill="#333" d="M178 0v-2048h426v770h13c57-125 180-278 437-278 337 0 622 262 622 790 0 514-273 791-623 791-248 0-377-143-436-271h-19V0H178zm417-768c0 274 118 454 323 454 209 0 323-186 323-454 0-266-112-449-323-449-207 0-323 175-323 449" id="aa"/><path fill="#333" d="M1448-1098l-390 24c-21-99-109-180-257-180-132 0-236 60-235 152-1 74 52 123 195 154l278 56c298 61 443 194 444 416-1 303-286 506-684 506-407 0-657-181-697-475l419-22c26 125 127 190 279 190 149 0 248-65 250-156-2-77-63-126-197-153l-266-53c-300-60-445-209-444-439-1-296 258-478 651-478 388 0 616 175 654 458" id="ab"/><path fill="#333" d="M596-888V0H170v-2048h414v783h18c70-181 226-291 459-291 320 0 532 218 531 578V0h-426v-902c1-189-101-300-274-300-174 0-295 116-296 314" id="ac"/><g id="g"><use transform="matrix(0.006313131313131313,0,0,0.006313131313131313,0,0)" xlink:href="#V"/><use transform="matrix(0.006313131313131313,0,0,0.006313131313131313,11.641414141414142,0)" xlink:href="#L"/><use transform="matrix(0.006313131313131313,0,0,0.006313131313131313,18.5479797979798,0)" xlink:href="#W"/><use transform="matrix(0.006313131313131313,0,0,0.006313131313131313,29.457070707070706,0)" xlink:href="#I"/><use transform="matrix(0.006313131313131313,0,0,0.006313131313131313,36.723484848484844,0)" xlink:href="#J"/><use transform="matrix(0.006313131313131313,0,0,0.006313131313131313,47.348484848484844,0)" xlink:href="#X"/><use transform="matrix(0.006313131313131313,0,0,0.006313131313131313,54.28030303030303,0)" xlink:href="#Y"/><use transform="matrix(0.006313131313131313,0,0,0.006313131313131313,65.79545454545453,0)" xlink:href="#Z"/><use transform="matrix(0.006313131313131313,0,0,0.006313131313131313,76.84974747474746,0)" xlink:href="#aa"/><use transform="matrix(0.006313131313131313,0,0,0.006313131313131313,88.14393939393938,0)" xlink:href="#O"/><use transform="matrix(0.006313131313131313,0,0,0.006313131313131313,92.97979797979797,0)" xlink:href="#N"/><use transform="matrix(0.006313131313131313,0,0,0.006313131313131313,97.81565656565655,0)" xlink:href="#ab"/><use transform="matrix(0.006313131313131313,0,0,0.006313131313131313,107.80303030303028,0)" xlink:href="#ac"/></g><path fill="#333" d="M496-2048V0H248v-2048h248" id="ad"/><path fill="#333" d="M248 0v-2048h1228v220H496v692h888v220H496V0H248" id="ae"/><g id="h"><use transform="matrix(0.01025883838383838,0,0,0.01025883838383838,0,0)" xlink:href="#ad"/><use transform="matrix(0.01025883838383838,0,0,0.01025883838383838,7.632575757575755,0)" xlink:href="#t"/><use transform="matrix(0.01025883838383838,0,0,0.01025883838383838,25.97537878787878,0)" xlink:href="#ae"/><use transform="matrix(0.01025883838383838,0,0,0.01025883838383838,42.92297979797978,0)" xlink:href="#F"/></g><path fill="#333" d="M248 0v-2048h716c428 0 628 244 628 544 0 264-156 380-332 428v20c188 12 412 188 412 512 0 308-200 544-684 544H248zm248-220h492c324 0 448-144 448-324 0-208-168-388-436-388H496v712zm0-928h460c224 0 400-140 400-356 0-180-120-324-392-324H496v680" id="af"/><path fill="#333" d="M840 32c-416 0-696-316-696-792 0-480 280-796 696-796s696 316 696 796c0 476-280 792-696 792zm0-212c316 0 460-272 460-580s-144-584-460-584-460 276-460 584 144 580 460 580" id="ag"/><path fill="#333" d="M216 0v-2048h236v1196h28l672-684h292L795-880 1492 0h-300L617-728 452-575V0H216" id="ah"/><path fill="#333" d="M452-924V0H216v-1536h228v240h20c72-156 216-260 448-260 311 0 520 188 520 580V0h-236v-960c0-241-133-384-352-384-226 0-392 152-392 420" id="ai"/><g id="i"><use transform="matrix(0.01025883838383838,0,0,0.01025883838383838,0,0)" xlink:href="#af"/><use transform="matrix(0.01025883838383838,0,0,0.01025883838383838,18.794191919191913,0)" xlink:href="#w"/><use transform="matrix(0.01025883838383838,0,0,0.01025883838383838,25.64709595959595,0)" xlink:href="#ag"/><use transform="matrix(0.01025883838383838,0,0,0.01025883838383838,42.88194444444443,0)" xlink:href="#T"/><use transform="matrix(0.01025883838383838,0,0,0.01025883838383838,59.008838383838366,0)" xlink:href="#ah"/><use transform="matrix(0.01025883838383838,0,0,0.01025883838383838,74.72537878787877,0)" xlink:href="#T"/><use transform="matrix(0.01025883838383838,0,0,0.01025883838383838,90.85227272727269,0)" xlink:href="#z"/><use transform="matrix(0.01025883838383838,0,0,0.01025883838383838,107.92297979797976,0)" xlink:href="#P"/><use transform="matrix(0.01025883838383838,0,0,0.01025883838383838,124.21401515151511,0)" xlink:href="#x"/><use transform="matrix(0.01025883838383838,0,0,0.01025883838383838,131.06691919191914,0)" xlink:href="#ai"/></g><path fill="#333" d="M100-1691v-357h1682v357h-627V0H727v-1691H100" id="aj"/><path fill="#333" d="M170 0v-1536h406v271h18c64-181 221-291 428-291 211 0 368 113 417 291h16c63-176 238-291 463-291 286 0 484 190 484 523V0h-425v-949c0-171-102-256-238-256-155 0-246 108-246 267V0h-413v-958c0-151-94-247-234-247-142 0-250 113-250 283V0H170" id="ak"/><path fill="#333" d="M170 576v-2112h420v258h19c57-125 180-278 437-278 337 0 622 262 622 790 0 514-273 791-623 791-248 0-377-143-436-271h-13v822H170zM587-768c0 274 118 454 323 454 209 0 323-186 323-454 0-266-112-449-323-449-207 0-323 175-323 449" id="al"/><g id="j"><use transform="matrix(0.006313131313131313,0,0,0.006313131313131313,0,0)" xlink:href="#aj"/><use transform="matrix(0.006313131313131313,0,0,0.006313131313131313,11.881313131313131,0)" xlink:href="#N"/><use transform="matrix(0.006313131313131313,0,0,0.006313131313131313,16.717171717171716,0)" xlink:href="#ak"/><use transform="matrix(0.006313131313131313,0,0,0.006313131313131313,32.92929292929293,0)" xlink:href="#J"/><use transform="matrix(0.006313131313131313,0,0,0.006313131313131313,43.55429292929293,0)" xlink:href="#ab"/><use transform="matrix(0.006313131313131313,0,0,0.006313131313131313,53.541666666666664,0)" xlink:href="#L"/><use transform="matrix(0.006313131313131313,0,0,0.006313131313131313,60.448232323232325,0)" xlink:href="#K"/><use transform="matrix(0.006313131313131313,0,0,0.006313131313131313,70.76388888888889,0)" xlink:href="#ak"/><use transform="matrix(0.006313131313131313,0,0,0.006313131313131313,86.9760101010101,0)" xlink:href="#al"/></g><path fill="#333" d="M862 608c-414 0-651-186-702-428l394-53c35 93 130 175 318 175 185 0 320-82 320-293v-281h-18C1118-145 981-22 736-22c-346 0-623-238-623-749 0-523 285-785 622-785 257 0 382 153 439 278h16v-258h423V15c0 393-312 593-751 593zm9-950c205 0 323-160 323-431 0-269-116-444-323-444-211 0-323 183-323 444 0 265 114 431 323 431" id="am"/><path fill="#333" d="M596-888V0H170v-1536h406v271h18c69-179 234-291 462-291 320 0 530 220 530 578V0h-426v-902c1-188-102-300-273-300-172 0-290 116-291 314" id="an"/><g id="k"><use transform="matrix(0.006313131313131313,0,0,0.006313131313131313,0,0)" xlink:href="#V"/><use transform="matrix(0.006313131313131313,0,0,0.006313131313131313,11.641414141414142,0)" xlink:href="#N"/><use transform="matrix(0.006313131313131313,0,0,0.006313131313131313,16.477272727272727,0)" xlink:href="#am"/><use transform="matrix(0.006313131313131313,0,0,0.006313131313131313,27.733585858585858,0)" xlink:href="#an"/></g><path fill="#333" d="M864 30c-473 0-756-325-756-792 0-471 288-794 754-794 401 0 670 233 688 588h-402c-23-153-123-256-279-256-198 0-328 166-328 456 0 294 129 461 328 461 146 0 254-92 279-256h402c-20 353-277 593-686 593" id="ao"/><g id="l"><use transform="matrix(0.006313131313131313,0,0,0.006313131313131313,0,0)" xlink:href="#Y"/><use transform="matrix(0.006313131313131313,0,0,0.006313131313131313,11.515151515151516,0)" xlink:href="#Z"/><use transform="matrix(0.006313131313131313,0,0,0.006313131313131313,22.569444444444443,0)" xlink:href="#aa"/><use transform="matrix(0.006313131313131313,0,0,0.006313131313131313,33.86363636363636,0)" xlink:href="#O"/><use transform="matrix(0.006313131313131313,0,0,0.006313131313131313,38.69949494949495,0)" xlink:href="#N"/><use transform="matrix(0.006313131313131313,0,0,0.006313131313131313,43.535353535353536,0)" xlink:href="#ao"/><use transform="matrix(0.006313131313131313,0,0,0.006313131313131313,53.97727272727273,0)" xlink:href="#K"/><use transform="matrix(0.006313131313131313,0,0,0.006313131313131313,64.29292929292929,0)" xlink:href="#L"/><use transform="matrix(0.006313131313131313,0,0,0.006313131313131313,71.19949494949495,0)" xlink:href="#N"/><use transform="matrix(0.006313131313131313,0,0,0.006313131313131313,76.03535353535354,0)" xlink:href="#W"/><use transform="matrix(0.006313131313131313,0,0,0.006313131313131313,86.94444444444444,0)" xlink:href="#an"/></g><path fill="#333" d="M178 0v-2048h808c465 0 734 262 734 669 0 280-129 483-362 583L1793 0h-478L927-726H611V0H178zm433-1074h294c248 0 369-102 369-305 0-204-121-315-371-315H611v620" id="ap"/><path fill="#333" d="M736 25c-350 0-623-277-623-791 0-528 285-790 622-790 257 0 380 153 437 278h13v-770h425V0h-420v-246h-18C1113-118 984 25 736 25zm135-339c205 0 323-180 323-454s-116-449-323-449c-211 0-323 183-323 449 0 268 114 454 323 454" id="aq"/><g id="m"><use transform="matrix(0.006313131313131313,0,0,0.006313131313131313,0,0)" xlink:href="#ap"/><use transform="matrix(0.006313131313131313,0,0,0.006313131313131313,11.666666666666666,0)" xlink:href="#J"/><use transform="matrix(0.006313131313131313,0,0,0.006313131313131313,22.291666666666664,0)" xlink:href="#ao"/><use transform="matrix(0.006313131313131313,0,0,0.006313131313131313,32.733585858585855,0)" xlink:href="#W"/><use transform="matrix(0.006313131313131313,0,0,0.006313131313131313,43.64267676767676,0)" xlink:href="#I"/><use transform="matrix(0.006313131313131313,0,0,0.006313131313131313,50.9090909090909,0)" xlink:href="#aq"/></g><path fill="#333" d="M2060-1024c0 670-416 1052-959 1052-546 0-959-385-959-1052 0-670 413-1052 959-1052 543 0 959 382 959 1052zm-439 0c0-434-206-669-520-669-315 0-520 235-520 669s205 669 520 669c314 0 520-235 520-669" id="ar"/><path fill="#333" d="M473 0L55-1536h431L724-504h14l248-1032h423l252 1026h13l234-1026h430L1921 0h-451l-264-966h-19L923 0H473" id="as"/><g id="n"><use transform="matrix(0.006313131313131313,0,0,0.006313131313131313,0,0)" xlink:href="#ar"/><use transform="matrix(0.006313131313131313,0,0,0.006313131313131313,13.90151515151515,0)" xlink:href="#as"/><use transform="matrix(0.006313131313131313,0,0,0.006313131313131313,29.015151515151516,0)" xlink:href="#an"/><use transform="matrix(0.006313131313131313,0,0,0.006313131313131313,40.06944444444444,0)" xlink:href="#J"/><use transform="matrix(0.006313131313131313,0,0,0.006313131313131313,50.69444444444444,0)" xlink:href="#I"/><use transform="matrix(0.006313131313131313,0,0,0.006313131313131313,57.96085858585859,0)" xlink:href="#ab"/><use transform="matrix(0.006313131313131313,0,0,0.006313131313131313,67.94823232323232,0)" xlink:href="#ac"/><use transform="matrix(0.006313131313131313,0,0,0.006313131313131313,79.04671717171716,0)" xlink:href="#N"/><use transform="matrix(0.006313131313131313,0,0,0.006313131313131313,83.88257575757575,0)" xlink:href="#al"/><use transform="matrix(0.006313131313131313,0,0,0.006313131313131313,95.12626262626262,0)" xlink:href="#X"/></g><path fill="#333" d="M178 0v-2048h433v1691h878V0H178" id="at"/><path fill="#333" d="M170 0v-2048h426v1095h23l492-583h489l-570 665L1629 0h-499L711-619 596-488V0H170" id="au"/><g id="o"><use transform="matrix(0.006313131313131313,0,0,0.006313131313131313,0,0)" xlink:href="#at"/><use transform="matrix(0.006313131313131313,0,0,0.006313131313131313,10.088383838383837,0)" xlink:href="#N"/><use transform="matrix(0.006313131313131313,0,0,0.006313131313131313,14.92424242424242,0)" xlink:href="#an"/><use transform="matrix(0.006313131313131313,0,0,0.006313131313131313,25.978535353535346,0)" xlink:href="#au"/></g><path fill="#333" d="M178 0v-2048h820c452 0 680 218 680 525 0 241-157 392-370 440v20c233 11 450 194 450 497 0 326-245 566-705 566H178zm433-354h353c242 0 347-101 347-255 0-169-129-289-337-289H611v544zm0-837h321c177 0 309-98 309-260 0-148-109-247-301-247H611v507" id="av"/><g id="p"><use transform="matrix(0.006313131313131313,0,0,0.006313131313131313,0,0)" xlink:href="#av"/><use transform="matrix(0.006313131313131313,0,0,0.006313131313131313,11.748737373737374,0)" xlink:href="#K"/><use transform="matrix(0.006313131313131313,0,0,0.006313131313131313,22.064393939393938,0)" xlink:href="#ao"/><use transform="matrix(0.006313131313131313,0,0,0.006313131313131313,32.50631313131313,0)" xlink:href="#au"/></g><g id="q"><use transform="matrix(0.006313131313131313,0,0,0.006313131313131313,0,0)" xlink:href="#aj"/><use transform="matrix(0.006313131313131313,0,0,0.006313131313131313,11.881313131313131,0)" xlink:href="#W"/></g><g id="r"><use transform="matrix(0.006313131313131313,0,0,0.006313131313131313,0,0)" xlink:href="#aj"/><use transform="matrix(0.006313131313131313,0,0,0.006313131313131313,11.881313131313131,0)" xlink:href="#W"/></g><path fill="#333" d="M611-2048V0H178v-2048h433" id="aw"/><path fill="#333" d="M433 576c-108 0-207-18-268-44l96-318c150 46 257 39 313-105l25-65L48-1536h448L814-408h16l321-1128h451L1005 166c-87 248-255 410-572 410" id="ax"/><g id="s"><use transform="matrix(0.006313131313131313,0,0,0.006313131313131313,0,0)" xlink:href="#aw"/><use transform="matrix(0.006313131313131313,0,0,0.006313131313131313,4.987373737373737,0)" xlink:href="#aq"/><use transform="matrix(0.006313131313131313,0,0,0.006313131313131313,16.281565656565654,0)" xlink:href="#J"/><use transform="matrix(0.006313131313131313,0,0,0.006313131313131313,26.906565656565657,0)" xlink:href="#an"/><use transform="matrix(0.006313131313131313,0,0,0.006313131313131313,37.96085858585858,0)" xlink:href="#L"/><use transform="matrix(0.006313131313131313,0,0,0.006313131313131313,44.867424242424235,0)" xlink:href="#N"/><use transform="matrix(0.006313131313131313,0,0,0.006313131313131313,49.70328282828282,0)" xlink:href="#L"/><use transform="matrix(0.006313131313131313,0,0,0.006313131313131313,56.60984848484847,0)" xlink:href="#ax"/></g></defs></g></svg>