<svg xmlns="http://www.w3.org/2000/svg" xmlns:xlink="http://www.w3.org/1999/xlink" xmlns:lucid="lucid" width="1314" height="523"><g transform="translate(-2188 -2854)" lucid:page-tab-id="0_0"><path d="M0 1259.2h3676.8v7619.2H0z" fill="#fff"/><path d="M2418 3160c17.67 0 32 17.9 32 40s-14.33 40-32 40h-96c-17.67 0-32-17.9-32-40s14.33-40 32-40z" stroke="#5e5e5e" stroke-width="3" fill="#fff"/><use xlink:href="#a" transform="matrix(1,0,0,1,2295,3165) translate(-2.515782828282809 45.505050505050505)"/><path d="M2371.5 3157h-3v-46.24h3zm0-67.76h-3v-27.12h3z" fill="#5e5e5e"/><path d="M2371.5 3158.5h-3v-1.54h3z" fill="#5e5e5e"/><path d="M2374.64 3060.62h-9.28l4.64-14.27z" fill="#fff"/><path d="M2376.7 3062.12h-13.4l6.7-20.62zm-9.27-3h5.14l-2.57-7.9z" fill="#5e5e5e"/><use xlink:href="#b" transform="matrix(1,0,0,1,2340.445075757576,3089.242424242425) translate(0 17.22222222222222)"/><path d="M2600 2926c0-3.3 2.7-6 6-6h148c3.3 0 6 2.7 6 6v114c-26.72-20.04-43.36-20.04-53.44-20.04-16 0-37.28 20.04-53.28 20.04-9.92 0-26.72 0-53.28-20.04z" stroke="#5e5e5e" stroke-width="3" fill="#fff"/><use xlink:href="#c" transform="matrix(1,0,0,1,2605,2925.0000000000014) translate(31.276830808080817 56.1111111111111)"/><path d="M2290.45 2925.8c.86-3.2 4.24-5.8 7.55-5.8h176c3.3 0 5.3 2.6 4.45 5.8l-28.9 108.4c-.86 3.2-4.24 5.8-7.55 5.8h-176c-3.3 0-5.3-2.6-4.45-5.8z" stroke="#5e5e5e" stroke-width="3" fill="#fff"/><use xlink:href="#d" transform="matrix(1,0,0,1,2265,2925.0000000000014) translate(45.77709595959598 48.6111111111111)"/><use xlink:href="#e" transform="matrix(1,0,0,1,2265,2925.0000000000014) translate(52.91693181818183 83.5732323232323)"/><path d="M2508 2981.5h-40.95v-3H2508zm69.88 0h-21.83v-3h21.83z" fill="#5e5e5e"/><path d="M2467.1 2981.5h-1.95l.8-3h1.14z" fill="#5e5e5e"/><path d="M2593.65 2980l-14.27 4.64v-9.28z" fill="#fff"/><path d="M2598.5 2980l-20.62 6.7v-13.4zm-17.62 2.57l7.9-2.57-7.9-2.57z" fill="#5e5e5e"/><use xlink:href="#f" transform="matrix(1,0,0,1,2508.001587522692,2969.2424242424254) translate(0 17.22222222222222)"/><path d="M2453 3200h221c3.3 0 6-2.7 6-6v-141.94" stroke="#5e5e5e" stroke-width="3" fill="none"/><path d="M2453.04 3201.5h-1.63l.1-1.48-.05-1.52h1.6z" fill="#5e5e5e"/><path d="M2680 3036.3l4.64 14.26h-9.28z" stroke="#5e5e5e" stroke-width="3" fill="#fff"/><path d="M2789.03 2981.82H2763v-3h26.03zm68.85 0h-6.9v-3h6.9z" fill="#5e5e5e"/><path d="M2763.04 2981.82h-1.54v-3h1.54z" fill="#5e5e5e"/><path d="M2873.65 2980.32l-14.27 4.63v-9.27z" fill="#fff"/><path d="M2878.5 2980.32l-20.62 6.7v-13.4zm-17.62 2.57l7.9-2.58-7.9-2.57z" fill="#5e5e5e"/><use xlink:href="#g" transform="matrix(1,0,0,1,2789.027777777778,2969.560318993187) translate(0 17.22222222222222)"/><path d="M2880 2926c0-3.3 2.7-6 6-6h148c3.3 0 6 2.7 6 6v108c0 3.3-2.7 6-6 6h-148c-3.3 0-6-2.7-6-6z" stroke="#5e5e5e" stroke-width="3" fill="#fff"/><use xlink:href="#h" transform="matrix(1,0,0,1,2892,2932.0000000000014) translate(4.74400252525254 57.9861111111111)"/><path d="M2318.4 2786c0-3.3 2.7-6 6-6h1028c3.3 0 6 2.7 6 6v47.55c0 3.3-2.7 6-6 6h-1028c-3.3 0-6-2.7-6-6z" stroke="#000" stroke-opacity="0" stroke-width="3" fill="#fff" fill-opacity="0"/><use xlink:href="#i" transform="matrix(1,0,0,1,2323.3999999999996,2785) translate(326.6098484848485 51.66666666666667)"/><use xlink:href="#j" transform="matrix(1,0,0,1,2323.3999999999996,2785) translate(541.6098484848485 51.66666666666667)"/><use xlink:href="#k" transform="matrix(1,0,0,1,2323.3999999999996,2785) translate(515 116.21212121212122)"/><path d="M2960 3043v154.8" stroke="#5e5e5e" stroke-width="3" fill="none"/><path d="M2961.5 3043.04h-3v-1.54h3z" fill="#5e5e5e"/><path d="M2960 3213.57l-4.64-14.27h9.28zM2880 3225.92c0-3.3 2.7-6 6-6h508c3.3 0 6 2.7 6 6v49.93c0 3.3-2.7 6-6 6h-508c-3.3 0-6-2.7-6-6z" stroke="#5e5e5e" stroke-width="3" fill="#fff"/><use xlink:href="#l" transform="matrix(1,0,0,1,2892,3231.9217967072263) translate(26.14236111111117 27.9861111111111)"/><use xlink:href="#m" transform="matrix(1,0,0,1,2892,3231.9217967072263) translate(132.79324494949498 27.9861111111111)"/><use xlink:href="#n" transform="matrix(1,0,0,1,2892,3231.9217967072263) translate(192.04829545454547 27.9861111111111)"/><use xlink:href="#o" transform="matrix(1,0,0,1,2892,3231.9217967072263) translate(262.17771464646466 27.9861111111111)"/><use xlink:href="#p" transform="matrix(1,0,0,1,2892,3231.9217967072263) translate(361.11395202020196 27.9861111111111)"/><path d="M3180 2927.45h214c3.3 0 6 2.7 6 6v108c0 3.32-2.7 6-6 6h-208c-3.3 0-6-2.68-6-6zm22 0v120m-22-98h220" stroke="#5e5e5e" stroke-width="3" fill="#fff"/><use xlink:href="#q" transform="matrix(1,0,0,1,3207,2954.4537819136203) translate(38.60227272727275 36.2361111111111)"/><use xlink:href="#r" transform="matrix(1,0,0,1,3207,2954.4537819136203) translate(19.028409090909108 71.1982323232323)"/><path d="M3290 3216.92v-147.35" stroke="#5e5e5e" stroke-width="3" fill="none"/><path d="M3291.5 3218.42h-3v-1.54h3z" fill="#5e5e5e"/><path d="M3290 3053.8l4.64 14.27h-9.28z" stroke="#5e5e5e" stroke-width="3" fill="#fff"/><path d="M2371.46 3243.04l-.03 1.3.04 2.63.15 2.5.24 2.36.32 2.26.4 2.16.48 2.08.55 2 .63 1.94.7 1.88.75 1.82.83 1.78.9 1.73.97 1.7 1.05 1.65 1.12 1.63 1.2 1.6 1.3 1.6 1.4 1.56 1.5 1.55 1.63 1.52 1.74 1.52 1.9 1.5 2.03 1.5 2.2 1.47 2.4 1.48 2.6 1.44 2.85 1.43 1.94.87v3.3l-3.23-1.46-2.96-1.48-2.72-1.5-2.5-1.54-2.3-1.55-2.15-1.57-1.98-1.6-1.85-1.6-1.7-1.6-1.6-1.65-1.48-1.65-1.38-1.7-1.3-1.7-1.2-1.73-1.1-1.77-1.03-1.8-.96-1.85-.87-1.9-.8-1.93-.74-2-.66-2.05-.6-2.12-.5-2.2-.42-2.3-.34-2.4-.25-2.48-.16-2.6-.04-2.76.03-1.37zm498.96-185.64l-3.9 5.06-21.6 25.86-22.2 24.47-22.77 23.05-23.2 21.6-23.54 20.15-23.68 18.62-23.7 17.08-23.54 15.5-23.15 13.9-22.6 12.3-21.8 10.7-20.88 9.2-19.77 7.74-18.53 6.37-13.13 3.92h-11.52l6.63-1.68 17.1-5.1 18.42-6.32 19.64-7.7 20.75-9.13 21.7-10.68 22.5-12.24 23.04-13.83 23.4-15.43 23.6-17 23.6-18.54 23.44-20.06 23.12-21.52 22.67-22.97 22.14-24.38 21.5-25.77 3.87-5z" fill="#5e5e5e"/><path d="M2371.46 3243.08l-3-.08.04-1.5h3z" fill="#5e5e5e"/><path d="M2873.8 3058.13l-7.32-5.67 12.4-8.45z" fill="#fff"/><path d="M2874.53 3060.58l-10.6-8.2 17.9-12.2zm-5.5-8.04l4.07 3.14 2.8-7.83z" fill="#5e5e5e"/><g><use xlink:href="#s" transform="matrix(1,0,0,1,2405.2206574383654,3292.9165943028684) translate(0 17.22222222222222)"/><use xlink:href="#t" transform="matrix(1,0,0,1,2405.2206574383654,3292.9165943028684) translate(104.04040404040404 17.22222222222222)"/></g><defs><path fill="#333" d="M248 0v-2048h692c480 0 696 266 696 628 0 272-122 485-383 574L1716 0h-288L996-801c-165 2-334 0-500 1V0H248zm248-1024h440c328 0 456-150 456-396s-128-408-460-408H496v804" id="u"/><path fill="#333" d="M860 32c-444 0-716-316-716-788s276-800 692-800c320 0 660 196 660 768v100H381c11 329 202 508 479 508 185 0 324-80 384-240l228 64c-72 232-300 388-612 388zM381-892h875c0-260-164-452-420-452-270 0-439 213-455 452" id="v"/><path fill="#333" d="M1304-1192l-212 60c-41-106-126-220-332-220-188 0-328 96-328 228 0 118 82 179 264 224l228 56c274 67 408 202 408 416 0 265-243 460-600 460-314 0-529-139-584-400l224-56c42 165 163 248 356 248 220 0 360-108 360-240 0-106-73-180-228-216l-256-60c-282-66-408-208-408-420 0-260 240-444 564-444 304 0 470 146 544 364" id="w"/><path fill="#333" d="M668 36c-292 0-524-172-524-472 0-352 311-415 596-452 284-38 396-22 396-148 0-197-107-312-324-312-225 0-348 120-400 232l-224-80c120-280 384-360 616-360 196 0 568 56 568 544V0h-236v-208h-12C1076-108 936 36 668 36zm36-212c280 0 432-188 432-380v-216c-40 48-308 76-408 88-184 24-348 80-348 260 0 164 136 248 324 248" id="x"/><path fill="#333" d="M216 0v-1536h228v232h16c56-152 216-256 400-256 35 0 97 2 124 4v240c-16-4-81-16-144-16-224 0-388 152-388 360V0H216" id="y"/><path fill="#333" d="M840 32c-432 0-696-332-696-792 0-468 276-796 692-796 324 0 568 192 608 480h-236c-36-140-160-268-368-268-276 0-460 228-460 576 0 356 180 588 460 588 184 0 324-100 368-268h236c-40 272-264 480-604 480" id="z"/><path fill="#333" d="M452-924V0H216v-2048h236v752h20c72-159 210-260 452-260 314 0 524 185 524 580V0h-236v-960c0-244-134-384-356-384-233 0-404 152-404 420" id="A"/><g id="a"><use transform="matrix(0.01025883838383838,0,0,0.01025883838383838,0,0)" xlink:href="#u"/><use transform="matrix(0.01025883838383838,0,0,0.01025883838383838,18.465909090909086,0)" xlink:href="#v"/><use transform="matrix(0.01025883838383838,0,0,0.01025883838383838,35.29040404040403,0)" xlink:href="#w"/><use transform="matrix(0.01025883838383838,0,0,0.01025883838383838,50.391414141414124,0)" xlink:href="#v"/><use transform="matrix(0.01025883838383838,0,0,0.01025883838383838,67.21590909090907,0)" xlink:href="#x"/><use transform="matrix(0.01025883838383838,0,0,0.01025883838383838,83.50694444444441,0)" xlink:href="#y"/><use transform="matrix(0.01025883838383838,0,0,0.01025883838383838,94.25820707070704,0)" xlink:href="#z"/><use transform="matrix(0.01025883838383838,0,0,0.01025883838383838,110.38510101010097,0)" xlink:href="#A"/><use transform="matrix(0.01025883838383838,0,0,0.01025883838383838,127.45580808080805,0)" xlink:href="#v"/><use transform="matrix(0.01025883838383838,0,0,0.01025883838383838,144.280303030303,0)" xlink:href="#y"/></g><path fill="#333" d="M1985-1331h-438c-33-225-204-362-441-362-317 0-525 243-525 669 0 438 211 669 522 669 231 0 403-126 444-345l438 2c-47 377-364 726-889 726-548 0-954-384-954-1052 0-670 413-1052 954-1052 474 0 832 272 889 745" id="B"/><path fill="#333" d="M170 0v-1536h413v268h16c74-233 253-330 503-275v378c-40-13-121-23-180-23-188 0-326 130-326 319V0H170" id="C"/><path fill="#333" d="M870 30c-473 0-762-304-762-791 0-474 293-795 745-795 406 0 722 258 722 780v117c-348 1-699-1-1046 1 0 229 135 370 348 370 142 0 252-61 295-178l394 26c-60 285-316 470-696 470zM529-923h645c-1-183-129-315-314-315-189 0-322 140-331 315" id="D"/><path fill="#333" d="M608 29C315 29 98-125 98-429c0-343 273-445 577-473 270-28 372-36 372-144 0-126-83-199-228-199-153 0-244 75-273 177l-394-32c59-280 301-456 669-456 342 0 652 154 652 520V0h-404v-213h-12C982-70 835 29 608 29zm122-294c187 0 320-123 320-284v-163c-51 34-203 56-296 69-150 21-249 80-249 200 0 117 94 178 225 178" id="E"/><path fill="#333" d="M987-1536v320H698v744c0 118 59 150 144 150 40 0 85-10 106-14l67 317C972-5 894 17 784 21 475 34 270-115 272-416v-800H62v-320h210v-368h426v368h289" id="F"/><g id="b"><use transform="matrix(0.006313131313131313,0,0,0.006313131313131313,0,0)" xlink:href="#B"/><use transform="matrix(0.006313131313131313,0,0,0.006313131313131313,13.371212121212121,0)" xlink:href="#C"/><use transform="matrix(0.006313131313131313,0,0,0.006313131313131313,20.637626262626263,0)" xlink:href="#D"/><use transform="matrix(0.006313131313131313,0,0,0.006313131313131313,31.262626262626263,0)" xlink:href="#E"/><use transform="matrix(0.006313131313131313,0,0,0.006313131313131313,41.57828282828283,0)" xlink:href="#F"/><use transform="matrix(0.006313131313131313,0,0,0.006313131313131313,48.484848484848484,0)" xlink:href="#D"/></g><path fill="#333" d="M332 0H72l752-2048h256L1832 0h-260l-206-580H538zm284-800h672l-328-924h-16" id="G"/><path fill="#333" d="M884-1536v200H556v896c3 250 148 245 308 220L912-8C642 78 320-42 320-376v-960H88v-200h232v-368h236v368h328" id="H"/><path fill="#333" d="M216 0v-1536h236V0H216zm120-1792c-92 0-168-72-168-160s76-160 168-160 168 72 168 160-76 160-168 160" id="I"/><path fill="#333" d="M452-2048V0H216v-2048h236" id="J"/><g id="c"><use transform="matrix(0.01025883838383838,0,0,0.01025883838383838,0,0)" xlink:href="#G"/><use transform="matrix(0.01025883838383838,0,0,0.01025883838383838,19.532828282828277,0)" xlink:href="#y"/><use transform="matrix(0.01025883838383838,0,0,0.01025883838383838,30.2840909090909,0)" xlink:href="#H"/><use transform="matrix(0.01025883838383838,0,0,0.01025883838383838,40.7891414141414,0)" xlink:href="#I"/><use transform="matrix(0.01025883838383838,0,0,0.01025883838383838,47.64204545454544,0)" xlink:href="#z"/><use transform="matrix(0.01025883838383838,0,0,0.01025883838383838,63.76893939393938,0)" xlink:href="#J"/><use transform="matrix(0.01025883838383838,0,0,0.01025883838383838,70.62184343434342,0)" xlink:href="#v"/></g><g id="d"><use transform="matrix(0.01025883838383838,0,0,0.01025883838383838,0,0)" xlink:href="#u"/><use transform="matrix(0.01025883838383838,0,0,0.01025883838383838,18.465909090909086,0)" xlink:href="#v"/><use transform="matrix(0.01025883838383838,0,0,0.01025883838383838,35.29040404040403,0)" xlink:href="#w"/><use transform="matrix(0.01025883838383838,0,0,0.01025883838383838,50.391414141414124,0)" xlink:href="#v"/><use transform="matrix(0.01025883838383838,0,0,0.01025883838383838,67.21590909090907,0)" xlink:href="#x"/><use transform="matrix(0.01025883838383838,0,0,0.01025883838383838,83.50694444444441,0)" xlink:href="#y"/><use transform="matrix(0.01025883838383838,0,0,0.01025883838383838,94.25820707070704,0)" xlink:href="#z"/><use transform="matrix(0.01025883838383838,0,0,0.01025883838383838,110.38510101010097,0)" xlink:href="#A"/></g><path fill="#333" d="M1976-1024c0 648-380 1052-904 1052S168-376 168-1024s380-1052 904-1052 904 404 904 1052zm-240 0c0-532-292-820-664-820s-664 288-664 820 292 820 664 820 664-288 664-820" id="K"/><path fill="#333" d="M1184-628v-908h236V0h-236v-260h-16C1096-104 944 20 712 20c-288 0-496-188-496-580v-976h236v960c0 224 140 368 336 368 176 0 396-132 396-420" id="L"/><path fill="#333" d="M216 576v-2112h228v244h28c52-80 144-264 444-264 388 0 656 308 656 792 0 488-268 796-652 796-296 0-396-184-448-268h-20v812H216zM448-768c0 348 156 588 440 588 296 0 448-260 448-588 0-324-148-576-448-576-288 0-440 232-440 576" id="M"/><g id="e"><use transform="matrix(0.01025883838383838,0,0,0.01025883838383838,0,0)" xlink:href="#K"/><use transform="matrix(0.01025883838383838,0,0,0.01025883838383838,21.994949494949488,0)" xlink:href="#L"/><use transform="matrix(0.01025883838383838,0,0,0.01025883838383838,38.77840909090908,0)" xlink:href="#H"/><use transform="matrix(0.01025883838383838,0,0,0.01025883838383838,49.28345959595958,0)" xlink:href="#M"/><use transform="matrix(0.01025883838383838,0,0,0.01025883838383838,66.88762626262624,0)" xlink:href="#L"/><use transform="matrix(0.01025883838383838,0,0,0.01025883838383838,83.67108585858583,0)" xlink:href="#H"/></g><path fill="#333" d="M639 0L53-2048h473L865-625h17l374-1423h405l373 1426h18l339-1426h473L2278 0h-422l-390-1339h-16L1061 0H639" id="N"/><path fill="#333" d="M170 0v-1536h426V0H170zm214-1734c-126 0-230-97-230-216 0-118 104-215 230-215 127 0 231 97 231 215 0 119-104 216-231 216" id="O"/><g id="f"><use transform="matrix(0.006313131313131313,0,0,0.006313131313131313,0,0)" xlink:href="#N"/><use transform="matrix(0.006313131313131313,0,0,0.006313131313131313,18.41540404040404,0)" xlink:href="#C"/><use transform="matrix(0.006313131313131313,0,0,0.006313131313131313,25.681818181818183,0)" xlink:href="#O"/><use transform="matrix(0.006313131313131313,0,0,0.006313131313131313,30.517676767676768,0)" xlink:href="#F"/><use transform="matrix(0.006313131313131313,0,0,0.006313131313131313,37.42424242424242,0)" xlink:href="#D"/></g><path fill="#333" d="M1289-1459c-16-161-143-255-350-255-212 0-329 97-329 229 0 207 307 251 508 298 355 83 613 261 614 602-1 375-295 614-795 614-497 0-814-229-825-672h419c14 205 176 309 401 309 220 0 362-102 363-252-1-138-125-202-348-256l-223-56c-346-83-559-256-558-558-2-372 327-620 776-620 456 0 756 252 762 617h-415" id="P"/><path fill="#333" d="M1155-654v-882h426V0h-409v-279h-16C1087-99 921 20 690 20c-309 0-519-219-520-578v-978h426v902c1 181 105 294 266 294 153 0 294-108 293-314" id="Q"/><path fill="#333" d="M178 0v-2048h426v770h13c57-125 180-278 437-278 337 0 622 262 622 790 0 514-273 791-623 791-248 0-377-143-436-271h-19V0H178zm417-768c0 274 118 454 323 454 209 0 323-186 323-454 0-266-112-449-323-449-207 0-323 175-323 449" id="R"/><path fill="#333" d="M170 0v-1536h406v271h18c64-181 221-291 428-291 211 0 368 113 417 291h16c63-176 238-291 463-291 286 0 484 190 484 523V0h-425v-949c0-171-102-256-238-256-155 0-246 108-246 267V0h-413v-958c0-151-94-247-234-247-142 0-250 113-250 283V0H170" id="S"/><g id="g"><use transform="matrix(0.006313131313131313,0,0,0.006313131313131313,0,0)" xlink:href="#P"/><use transform="matrix(0.006313131313131313,0,0,0.006313131313131313,11.641414141414142,0)" xlink:href="#Q"/><use transform="matrix(0.006313131313131313,0,0,0.006313131313131313,22.695707070707073,0)" xlink:href="#R"/><use transform="matrix(0.006313131313131313,0,0,0.006313131313131313,33.98989898989899,0)" xlink:href="#S"/><use transform="matrix(0.006313131313131313,0,0,0.006313131313131313,50.2020202020202,0)" xlink:href="#O"/><use transform="matrix(0.006313131313131313,0,0,0.006313131313131313,55.03787878787879,0)" xlink:href="#F"/></g><path fill="#333" d="M248 0v-2048h692c481 0 696 286 696 648s-215 652-692 652H496V0H248zm248-968h440c329 0 456-186 456-432s-127-428-460-428H496v860" id="T"/><path fill="#333" d="M248 0v-2048h236v756h20c52-80 144-264 444-264 388 0 656 308 656 792 0 488-268 796-652 796-296 0-396-184-448-268h-28V0H248zm232-768c0 348 156 588 440 588 296 0 448-260 448-588 0-324-148-576-448-576-288 0-440 232-440 576" id="U"/><g id="h"><use transform="matrix(0.01025883838383838,0,0,0.01025883838383838,0,0)" xlink:href="#T"/><use transform="matrix(0.01025883838383838,0,0,0.01025883838383838,18.342803030303024,0)" xlink:href="#L"/><use transform="matrix(0.01025883838383838,0,0,0.01025883838383838,35.126262626262616,0)" xlink:href="#U"/><use transform="matrix(0.01025883838383838,0,0,0.01025883838383838,53.0587121212121,0)" xlink:href="#J"/><use transform="matrix(0.01025883838383838,0,0,0.01025883838383838,59.911616161616145,0)" xlink:href="#I"/><use transform="matrix(0.01025883838383838,0,0,0.01025883838383838,66.76452020202018,0)" xlink:href="#w"/><use transform="matrix(0.01025883838383838,0,0,0.01025883838383838,81.86553030303028,0)" xlink:href="#A"/><use transform="matrix(0.01025883838383838,0,0,0.01025883838383838,98.93623737373736,0)" xlink:href="#v"/><use transform="matrix(0.01025883838383838,0,0,0.01025883838383838,115.7607323232323,0)" xlink:href="#y"/></g><path fill="#333" d="M596-888V0H170v-1536h406v271h18c69-179 234-291 462-291 320 0 530 220 530 578V0h-426v-902c1-188-102-300-273-300-172 0-290 116-291 314" id="V"/><g id="i"><use transform="matrix(0.01893939393939394,0,0,0.01893939393939394,0,0)" xlink:href="#B"/><use transform="matrix(0.01893939393939394,0,0,0.01893939393939394,40.11363636363637,0)" xlink:href="#Q"/><use transform="matrix(0.01893939393939394,0,0,0.01893939393939394,73.27651515151516,0)" xlink:href="#C"/><use transform="matrix(0.01893939393939394,0,0,0.01893939393939394,95.07575757575758,0)" xlink:href="#C"/><use transform="matrix(0.01893939393939394,0,0,0.01893939393939394,116.875,0)" xlink:href="#D"/><use transform="matrix(0.01893939393939394,0,0,0.01893939393939394,148.75,0)" xlink:href="#V"/><use transform="matrix(0.01893939393939394,0,0,0.01893939393939394,181.91287878787878,0)" xlink:href="#F"/></g><path fill="#333" d="M178-2048h534l564 1376h24l564-1376h534V0h-420v-1333h-17L1431-10h-286L615-1338h-17V0H178v-2048" id="W"/><path fill="#333" d="M864 30c-466 0-756-319-756-792 0-476 290-794 756-794s756 318 756 794c0 473-290 792-756 792zm2-330c211 0 321-197 321-465s-110-466-321-466c-215 0-325 198-325 466s110 465 325 465" id="X"/><path fill="#333" d="M736 25c-350 0-623-277-623-791 0-528 285-790 622-790 257 0 380 153 437 278h13v-770h425V0h-420v-246h-18C1113-118 984 25 736 25zm135-339c205 0 323-180 323-454s-116-449-323-449c-211 0-323 183-323 449 0 268 114 454 323 454" id="Y"/><path fill="#333" d="M596-2048V0H170v-2048h426" id="Z"/><g id="j"><use transform="matrix(0.01893939393939394,0,0,0.01893939393939394,0,0)" xlink:href="#W"/><use transform="matrix(0.01893939393939394,0,0,0.01893939393939394,48.78787878787879,0)" xlink:href="#X"/><use transform="matrix(0.01893939393939394,0,0,0.01893939393939394,81.51515151515152,0)" xlink:href="#Y"/><use transform="matrix(0.01893939393939394,0,0,0.01893939393939394,115.39772727272728,0)" xlink:href="#D"/><use transform="matrix(0.01893939393939394,0,0,0.01893939393939394,147.27272727272728,0)" xlink:href="#Z"/></g><path fill="#333" d="M1472-1536L904 0H664L96-1536h256L776-312h16l424-1224h256" id="aa"/><path fill="#333" d="M564 0L96-1536h248L676-360h16l328-1176h252l324 1172h16l332-1172h248L1724 0h-232l-336-1180h-24L796 0H564" id="ab"/><g id="l"><use transform="matrix(0.01025883838383838,0,0,0.01025883838383838,0,0)" xlink:href="#u"/><use transform="matrix(0.01025883838383838,0,0,0.01025883838383838,18.465909090909086,0)" xlink:href="#v"/><use transform="matrix(0.01025883838383838,0,0,0.01025883838383838,35.29040404040403,0)" xlink:href="#aa"/><use transform="matrix(0.01025883838383838,0,0,0.01025883838383838,51.37626262626261,0)" xlink:href="#I"/><use transform="matrix(0.01025883838383838,0,0,0.01025883838383838,58.229166666666636,0)" xlink:href="#v"/><use transform="matrix(0.01025883838383838,0,0,0.01025883838383838,75.05366161616159,0)" xlink:href="#ab"/></g><path fill="#333" d="M452-924V0H216v-1536h228v240h20c72-156 216-260 448-260 311 0 520 188 520 580V0h-236v-960c0-241-133-384-352-384-226 0-392 152-392 420" id="ac"/><path fill="#333" d="M796 32c-384 0-652-308-652-796 0-484 268-792 656-792 300 0 392 184 444 264h20v-756h236V0h-228v-236h-28c-52 84-152 268-448 268zm32-212c284 0 440-240 440-588 0-344-152-576-440-576-300 0-448 252-448 576 0 328 152 588 448 588" id="ad"/><g id="m"><use transform="matrix(0.01025883838383838,0,0,0.01025883838383838,0,0)" xlink:href="#x"/><use transform="matrix(0.01025883838383838,0,0,0.01025883838383838,16.29103535353535,0)" xlink:href="#ac"/><use transform="matrix(0.01025883838383838,0,0,0.01025883838383838,33.197601010100996,0)" xlink:href="#ad"/></g><g id="n"><use transform="matrix(0.01025883838383838,0,0,0.01025883838383838,0,0)" xlink:href="#M"/><use transform="matrix(0.01025883838383838,0,0,0.01025883838383838,17.60416666666666,0)" xlink:href="#v"/><use transform="matrix(0.01025883838383838,0,0,0.01025883838383838,34.428661616161605,0)" xlink:href="#v"/><use transform="matrix(0.01025883838383838,0,0,0.01025883838383838,51.253156565656546,0)" xlink:href="#y"/></g><g id="o"><use transform="matrix(0.01025883838383838,0,0,0.01025883838383838,0,0)" xlink:href="#y"/><use transform="matrix(0.01025883838383838,0,0,0.01025883838383838,10.751262626262623,0)" xlink:href="#v"/><use transform="matrix(0.01025883838383838,0,0,0.01025883838383838,27.575757575757567,0)" xlink:href="#aa"/><use transform="matrix(0.01025883838383838,0,0,0.01025883838383838,43.661616161616145,0)" xlink:href="#I"/><use transform="matrix(0.01025883838383838,0,0,0.01025883838383838,50.51452020202019,0)" xlink:href="#v"/><use transform="matrix(0.01025883838383838,0,0,0.01025883838383838,67.33901515151514,0)" xlink:href="#ab"/></g><path fill="#333" d="M840 32c-416 0-696-316-696-792 0-480 280-796 696-796s696 316 696 796c0 476-280 792-696 792zm0-212c316 0 460-272 460-580s-144-584-460-584-460 276-460 584 144 580 460 580" id="ae"/><g id="p"><use transform="matrix(0.01025883838383838,0,0,0.01025883838383838,0,0)" xlink:href="#M"/><use transform="matrix(0.01025883838383838,0,0,0.01025883838383838,17.60416666666666,0)" xlink:href="#y"/><use transform="matrix(0.01025883838383838,0,0,0.01025883838383838,28.355429292929283,0)" xlink:href="#ae"/><use transform="matrix(0.01025883838383838,0,0,0.01025883838383838,45.590277777777764,0)" xlink:href="#z"/><use transform="matrix(0.01025883838383838,0,0,0.01025883838383838,61.717171717171695,0)" xlink:href="#v"/><use transform="matrix(0.01025883838383838,0,0,0.01025883838383838,78.54166666666664,0)" xlink:href="#w"/><use transform="matrix(0.01025883838383838,0,0,0.01025883838383838,93.64267676767673,0)" xlink:href="#w"/></g><path fill="#333" d="M1032-2048h248v1464c0 393-228 612-584 612-336 0-580-193-580-508h244c0 174 141 288 336 288 214 0 336-137 336-392v-1464" id="af"/><path fill="#333" d="M940-2144L280 308H64l660-2452h216" id="ag"/><g id="q"><use transform="matrix(0.01025883838383838,0,0,0.01025883838383838,0,0)" xlink:href="#af"/><use transform="matrix(0.01025883838383838,0,0,0.01025883838383838,15.675505050505045,0)" xlink:href="#ae"/><use transform="matrix(0.01025883838383838,0,0,0.01025883838383838,32.91035353535352,0)" xlink:href="#L"/><use transform="matrix(0.01025883838383838,0,0,0.01025883838383838,49.693813131313114,0)" xlink:href="#y"/><use transform="matrix(0.01025883838383838,0,0,0.01025883838383838,60.44507575757574,0)" xlink:href="#ac"/><use transform="matrix(0.01025883838383838,0,0,0.01025883838383838,77.35164141414138,0)" xlink:href="#x"/><use transform="matrix(0.01025883838383838,0,0,0.01025883838383838,93.64267676767673,0)" xlink:href="#J"/><use transform="matrix(0.01025883838383838,0,0,0.01025883838383838,100.49558080808077,0)" xlink:href="#ag"/></g><g id="r"><use transform="matrix(0.01025883838383838,0,0,0.01025883838383838,0,0)" xlink:href="#M"/><use transform="matrix(0.01025883838383838,0,0,0.01025883838383838,17.60416666666666,0)" xlink:href="#L"/><use transform="matrix(0.01025883838383838,0,0,0.01025883838383838,34.387626262626256,0)" xlink:href="#U"/><use transform="matrix(0.01025883838383838,0,0,0.01025883838383838,52.320075757575744,0)" xlink:href="#J"/><use transform="matrix(0.01025883838383838,0,0,0.01025883838383838,59.17297979797978,0)" xlink:href="#I"/><use transform="matrix(0.01025883838383838,0,0,0.01025883838383838,66.02588383838382,0)" xlink:href="#z"/><use transform="matrix(0.01025883838383838,0,0,0.01025883838383838,82.15277777777776,0)" xlink:href="#x"/><use transform="matrix(0.01025883838383838,0,0,0.01025883838383838,98.44381313131309,0)" xlink:href="#H"/><use transform="matrix(0.01025883838383838,0,0,0.01025883838383838,108.94886363636363,0)" xlink:href="#I"/><use transform="matrix(0.01025883838383838,0,0,0.01025883838383838,115.80176767676765,0)" xlink:href="#ae"/><use transform="matrix(0.01025883838383838,0,0,0.01025883838383838,133.03661616161614,0)" xlink:href="#ac"/></g><path fill="#333" d="M178 0v-2048h808c465 0 734 262 734 669 0 280-129 483-362 583L1793 0h-478L927-726H611V0H178zm433-1074h294c248 0 369-102 369-305 0-204-121-315-371-315H611v620" id="ah"/><path fill="#333" d="M1448-1098l-390 24c-21-99-109-180-257-180-132 0-236 60-235 152-1 74 52 123 195 154l278 56c298 61 443 194 444 416-1 303-286 506-684 506-407 0-657-181-697-475l419-22c26 125 127 190 279 190 149 0 248-65 250-156-2-77-63-126-197-153l-266-53c-300-60-445-209-444-439-1-296 258-478 651-478 388 0 616 175 654 458" id="ai"/><path fill="#333" d="M864 30c-473 0-756-325-756-792 0-471 288-794 754-794 401 0 670 233 688 588h-402c-23-153-123-256-279-256-198 0-328 166-328 456 0 294 129 461 328 461 146 0 254-92 279-256h402c-20 353-277 593-686 593" id="aj"/><path fill="#333" d="M596-888V0H170v-2048h414v783h18c70-181 226-291 459-291 320 0 532 218 531 578V0h-426v-902c1-189-101-300-274-300-174 0-295 116-296 314" id="ak"/><g id="s"><use transform="matrix(0.006313131313131313,0,0,0.006313131313131313,0,0)" xlink:href="#ah"/><use transform="matrix(0.006313131313131313,0,0,0.006313131313131313,11.666666666666666,0)" xlink:href="#D"/><use transform="matrix(0.006313131313131313,0,0,0.006313131313131313,22.291666666666664,0)" xlink:href="#ai"/><use transform="matrix(0.006313131313131313,0,0,0.006313131313131313,32.2790404040404,0)" xlink:href="#D"/><use transform="matrix(0.006313131313131313,0,0,0.006313131313131313,42.9040404040404,0)" xlink:href="#E"/><use transform="matrix(0.006313131313131313,0,0,0.006313131313131313,53.21969696969697,0)" xlink:href="#C"/><use transform="matrix(0.006313131313131313,0,0,0.006313131313131313,60.48611111111111,0)" xlink:href="#aj"/><use transform="matrix(0.006313131313131313,0,0,0.006313131313131313,70.9280303030303,0)" xlink:href="#ak"/><use transform="matrix(0.006313131313131313,0,0,0.006313131313131313,82.02651515151514,0)" xlink:href="#D"/><use transform="matrix(0.006313131313131313,0,0,0.006313131313131313,92.65151515151514,0)" xlink:href="#C"/></g><path fill="#333" d="M170 576v-2112h420v258h19c57-125 180-278 437-278 337 0 622 262 622 790 0 514-273 791-623 791-248 0-377-143-436-271h-13v822H170zM587-768c0 274 118 454 323 454 209 0 323-186 323-454 0-266-112-449-323-449-207 0-323 175-323 449" id="al"/><path fill="#333" d="M433 576c-108 0-207-18-268-44l96-318c150 46 257 39 313-105l25-65L48-1536h448L814-408h16l321-1128h451L1005 166c-87 248-255 410-572 410" id="am"/><g id="t"><use transform="matrix(0.006313131313131313,0,0,0.006313131313131313,0,0)" xlink:href="#al"/><use transform="matrix(0.006313131313131313,0,0,0.006313131313131313,11.243686868686869,0)" xlink:href="#E"/><use transform="matrix(0.006313131313131313,0,0,0.006313131313131313,21.559343434343432,0)" xlink:href="#am"/><use transform="matrix(0.006313131313131313,0,0,0.006313131313131313,31.976010101010093,0)" xlink:href="#ai"/></g></defs></g></svg>