<svg xmlns="http://www.w3.org/2000/svg" xmlns:xlink="http://www.w3.org/1999/xlink" xmlns:lucid="lucid" width="1144" height="1061"><g transform="translate(-2353 -3484)" lucid:page-tab-id="0_0"><path d="M0 1259.2h3676.8v7619.2H0z" fill="#fff"/><path d="M3123.95 4233.3h-38.68v-3h38.68zm254.56-186.64l2.73 2.72.97 3.6v173.03l-.97 3.62-2.72 2.72-3.6.97h-26.74v-3h26.34l2.45-.65 1.6-1.6.65-2.44v-172.2l-.66-2.46-1.6-1.6-2.44-.65h-32.3v-3h32.7z" fill="#5e5e5e"/><path d="M3342.24 4048.7h-1.63l.1-1.5-.05-1.5h1.6z" fill="#5e5e5e"/><path d="M3083.77 4236.45l-14.26-4.64 14.27-4.62z" fill="#fff"/><path d="M3085.27 4238.5l-20.62-6.7 20.62-6.7zm-10.9-6.7l7.9 2.58v-5.14zM3123.95 4233.3h-38.68v-3h38.68zm254.56-292.53l2.73 2.7.97 3.62V4226l-.97 3.62-2.72 2.72-3.6.97h-26.74v-3h26.34l2.45-.65 1.6-1.6.65-2.44v-278.1l-.66-2.46-1.6-1.6-2.44-.65h-32.3v-3h32.7z" fill="#5e5e5e"/><path d="M3342.24 3942.8h-1.63l.1-1.5-.05-1.5h1.6z" fill="#5e5e5e"/><path d="M3083.77 4236.45l-14.26-4.64 14.27-4.62z" fill="#fff"/><path d="M3085.27 4238.5l-20.62-6.7 20.62-6.7zm-10.9-6.7l7.9 2.58v-5.14zM3123.95 4233.3h-38.68v-3h38.68zm254.56-400.53l2.73 2.72.97 3.6V4226l-.97 3.62-2.72 2.72-3.6.97h-26.74v-3h26.34l2.45-.65 1.6-1.6.65-2.44v-386.1l-.66-2.45-1.6-1.6-2.44-.65h-32.3v-3h32.7z" fill="#5e5e5e"/><path d="M3342.24 3834.8h-1.63l.1-1.48-.05-1.52h1.6z" fill="#5e5e5e"/><path d="M3083.77 4236.45l-14.26-4.64 14.27-4.62z" fill="#fff"/><path d="M3085.27 4238.5l-20.62-6.7 20.62-6.7zm-10.9-6.7l7.9 2.58v-5.14z" fill="#5e5e5e"/><use xlink:href="#a" transform="matrix(1,0,0,1,3123.946916489177,4221.053447864471) translate(0 17.22222222222222)"/><use xlink:href="#b" transform="matrix(1,0,0,1,3123.946916489177,4221.053447864471) translate(47.12121212121212 17.22222222222222)"/><use xlink:href="#c" transform="matrix(1,0,0,1,3123.946916489177,4221.053447864471) translate(110.12626262626263 17.22222222222222)"/><use xlink:href="#d" transform="matrix(1,0,0,1,3123.946916489177,4221.053447864471) translate(163.73106060606062 17.22222222222222)"/><use xlink:href="#e" transform="matrix(1,0,0,1,3123.946916489177,4221.053447864471) translate(185.66919191919195 17.22222222222222)"/><path d="M2654.68 4435.84H2583v-3h71.68zm228.18-175.3H2748.7l-2.46.65-1.6 1.58-.65 2.45v158.36h-3v-158.77l.97-3.6 2.7-2.73 3.62-.97h134.56z" fill="#5e5e5e"/><path d="M2583.04 4435.84h-1.63l.1-1.48-.05-1.52h1.6z" fill="#5e5e5e"/><path d="M2898.63 4259.03l-14.27 4.63v-9.27z" fill="#fff"/><path d="M2903.48 4259.03l-20.62 6.7v-13.4zm-17.62 2.57l7.9-2.57-7.9-2.57z" fill="#5e5e5e"/><use xlink:href="#f" transform="matrix(1,0,0,1,2654.683406834294,4423.586049985772) translate(0 17.22222222222222)"/><use xlink:href="#g" transform="matrix(1,0,0,1,2654.683406834294,4423.586049985772) translate(53.69318181818182 17.22222222222222)"/><path d="M2340 3423c0-3.3 2.7-6 6-6h1028c3.3 0 6 2.7 6 6v47.56c0 3.3-2.7 6-6 6H2346c-3.3 0-6-2.7-6-6z" stroke="#000" stroke-opacity="0" stroke-width="3" fill="#fff" fill-opacity="0"/><use xlink:href="#h" transform="matrix(1,0,0,1,2345,3422.0109043187754) translate(343.1155303030303 51.66666666666667)"/><use xlink:href="#i" transform="matrix(1,0,0,1,2345,3422.0109043187754) translate(525.1041666666667 51.66666666666667)"/><use xlink:href="#j" transform="matrix(1,0,0,1,2345,3422.0109043187754) translate(515 116.21212121212122)"/><path d="M2548 4394.34c17.67 0 32 17.9 32 40s-14.33 40-32 40h-96c-17.67 0-32-17.9-32-40s14.33-40 32-40z" stroke="#5e5e5e" stroke-width="3" fill="#fff"/><use xlink:href="#k" transform="matrix(1,0,0,1,2425,4399.343625743348) translate(-2.515782828282809 45.505050505050505)"/><path d="M2415.12 4183.72c.85-3.2 4.23-5.8 7.55-5.8H2604c3.3 0 5.3 2.6 4.45 5.8l-23.57 88.4c-.85 3.2-4.23 5.8-7.55 5.8H2396c-3.3 0-5.3-2.6-4.45-5.8z" stroke="#5e5e5e" stroke-width="3" fill="#fff"/><use xlink:href="#l" transform="matrix(1,0,0,1,2395,4182.9266477526635) translate(45.27709595959598 39.2361111111111)"/><use xlink:href="#m" transform="matrix(1,0,0,1,2395,4182.9266477526635) translate(52.91693181818183 74.1982323232323)"/><path d="M2501.5 4391.34h-3v-38.07h3zm0-59.6h-3v-31.7h3z" fill="#5e5e5e"/><path d="M2501.5 4392.84h-3v-1.53h3z" fill="#5e5e5e"/><path d="M2504.64 4298.55h-9.28l4.64-14.27z" fill="#fff"/><path d="M2506.7 4300.05h-13.4l6.7-20.62zm-9.27-3h5.14l-2.57-7.92z" fill="#5e5e5e"/><use xlink:href="#n" transform="matrix(1,0,0,1,2470.445075757576,4331.754891204238) translate(0 17.22222222222222)"/><path d="M3047.15 4171.8c8.84 0 16 26.87 16 60 0 33.15-7.16 60-16 60h-128c-8.84 0-16-26.85-16-60 0-33.13 7.16-60 16-60z" stroke="#5e5e5e" stroke-width="3" fill="#fff"/><path d="M3047.15 4291.8c-8.84 0-16-26.85-16-60 0-33.13 7.16-60 16-60" stroke="#5e5e5e" stroke-width="3" fill="none"/><use xlink:href="#o" transform="matrix(1,0,0,1,2908.1511608079186,4176.811023622047) translate(28.326073232323246 65.7986111111111)"/><path d="M2669.67 4208.1h-64.26v-3h64.27zm212.97 0h-94.07v-3h94.07z" fill="#5e5e5e"/><path d="M2605.45 4208.1h-1.94l.8-3h1.15z" fill="#5e5e5e"/><path d="M2898.4 4206.6l-14.26 4.63v-9.27z" fill="#fff"/><path d="M2903.26 4206.6l-20.62 6.7v-13.4zm-17.62 2.56l7.92-2.57-7.92-2.58z" fill="#5e5e5e"/><use xlink:href="#p" transform="matrix(1,0,0,1,2669.6724356281175,4195.834749150595) translate(0 17.22222222222222)"/><path d="M3082.35 4482.34c0 6.63-44.4 12-99.2 12-54.8 0-99.2-5.37-99.2-12v-96c0-6.62 44.4-12 99.2-12 54.8 0 99.2 5.38 99.2 12z" stroke="#5e5e5e" stroke-width="3" fill="#fff"/><path d="M3082.35 4386.34c0 6.63-44.4 12-99.2 12-54.8 0-99.2-5.37-99.2-12" stroke="#5e5e5e" stroke-width="3" fill="none"/><use xlink:href="#q" transform="matrix(1,0,0,1,2888.9511608079188,4403.343625743348) translate(20.513257575757606 52.1736111111111)"/><path d="M2984.65 4352.22h-3v-17.2h3zm0-38.7h-3v-18.7h3z" fill="#5e5e5e"/><path d="M2984.65 4294.85h-3v-1.54h3z" fill="#5e5e5e"/><path d="M2983.15 4368l-4.63-14.28h9.27z" fill="#fff"/><path d="M2983.15 4372.84l-6.7-20.62h13.4zm-2.57-17.62l2.57 7.92 2.57-7.92z" fill="#5e5e5e"/><use xlink:href="#r" transform="matrix(1,0,0,1,2934.04131232307,4313.514332683201) translate(0 17.22222222222222)"/><path d="M2654.68 4435.84h-52.56v-3h52.56zm207.15 0h-58.33v-3h58.33z" fill="#5e5e5e"/><path d="M2600.62 4438.98l-14.26-4.64 14.26-4.63z" fill="#fff"/><path d="M2602.12 4441.04l-20.62-6.7 20.62-6.7zm-10.9-6.7l7.9 2.57v-5.13z" fill="#5e5e5e"/><path d="M2877.6 4434.34l-14.27 4.64v-9.27z" fill="#fff"/><path d="M2882.45 4434.34l-20.62 6.7v-13.4zm-17.62 2.57l7.9-2.56-7.9-2.57z" fill="#5e5e5e"/><path d="M2405.18 4032.7c.86-3.2 4.23-5.8 7.55-5.8H2604c3.3 0 5.3 2.6 4.45 5.8l-13.63 51.13c-.86 3.2-4.23 5.8-7.55 5.8H2396c-3.3 0-5.3-2.6-4.45-5.8z" stroke="#5e5e5e" stroke-width="3" fill="#fff"/><use xlink:href="#s" transform="matrix(1,0,0,1,2395,4031.8938046982494) translate(61.28183080808081 37.9236111111111)"/><path d="M2498.3 4174.93h-3v-21.85h3zm3.2-43.36h-3v-19.83h3z" fill="#5e5e5e"/><path d="M2498.3 4176.43h-3v-1.54h3z" fill="#5e5e5e"/><path d="M2504.64 4110.24h-9.28l4.64-14.26z" fill="#fff"/><path d="M2506.7 4111.74h-13.4l6.7-20.62zm-9.27-3h5.14l-2.57-7.9z" fill="#5e5e5e"/><use xlink:href="#t" transform="matrix(1,0,0,1,2472.7623566363927,4131.5690973886185) translate(0 17.22222222222222)"/><path d="M2954.4 4057.74l2.7 2.7 1 3.62v85.63h-3v-85.24l-.68-2.45-1.58-1.58-2.45-.66h-137.85v-3h138.24zm-349.7 2.02v-3h88.95v3z" fill="#5e5e5e"/><path d="M2604.73 4059.76h-1.94l.8-3h1.13z" fill="#5e5e5e"/><path d="M2956.6 4165.46l-4.65-14.27h9.27z" fill="#fff"/><path d="M2956.6 4170.3l-6.7-20.6h13.4zm-2.58-17.6l2.57 7.9 2.56-7.9z" fill="#5e5e5e"/><use xlink:href="#p" transform="matrix(1,0,0,1,2693.652145115432,4047.5017683033448) translate(0 17.22222222222222)"/><path d="M2749.77 3799.1c.85-3.2 4.23-5.8 7.54-5.8H2964c3.3 0 5.3 2.6 4.45 5.8l-18.22 68.32c-.85 3.2-4.23 5.8-7.54 5.8H2736c-3.3 0-5.3-2.6-4.45-5.8z" stroke="#5e5e5e" stroke-width="3" fill="#fff"/><use xlink:href="#u" transform="matrix(1,0,0,1,2735,3798.2970855381423) translate(17.429558080808114 27.9861111111111)"/><use xlink:href="#v" transform="matrix(1,0,0,1,2735,3798.2970855381423) translate(88.29761363636365 27.9861111111111)"/><use xlink:href="#w" transform="matrix(1,0,0,1,2735,3798.2970855381423) translate(66.78183080808081 62.9482323232323)"/><path d="M3382.2 4428.54l-.97 3.6-2.72 2.73-3.6.97h-289.55v-3h289.15l2.45-.66 1.6-1.6.65-2.44v-89.9h3zm-3.7-487.77l2.73 2.7.97 3.62v369.62h-3V3947.5l-.66-2.46-1.6-1.6-2.44-.65h-13.18v-3h13.58z" fill="#5e5e5e"/><path d="M3085.4 4435.84h-1.55v-3h1.54z" fill="#5e5e5e"/><path d="M3359.82 3945.93l-14.26-4.64 14.26-4.64z" fill="#fff"/><path d="M3361.32 3948l-20.62-6.7 20.62-6.7zm-10.9-6.7l7.9 2.56v-5.14z" fill="#5e5e5e"/><path d="M3307.2 3793.3c17.67 0 32 17.9 32 40s-14.33 40-32 40h-96c-17.67 0-32-17.9-32-40s14.33-40 32-40z" stroke="#5e5e5e" stroke-width="3" fill="#fff"/><use xlink:href="#x" transform="matrix(1,0,0,1,3184.2,3798.2970855381423) translate(1.177398989899018 45.4861111111111)"/><use xlink:href="#y" transform="matrix(1,0,0,1,3184.2,3798.2970855381423) translate(135.4040404040404 45.4861111111111)"/><path d="M3307.2 3901.3c17.67 0 32 17.9 32 40 0 22.08-14.33 40-32 40h-96c-17.67 0-32-17.92-32-40 0-22.1 14.33-40 32-40z" stroke="#5e5e5e" stroke-width="3" fill="#fff"/><use xlink:href="#z" transform="matrix(1,0,0,1,3184.2,3906.29045227639) translate(11.95417929292932 27.9861111111111)"/><use xlink:href="#A" transform="matrix(1,0,0,1,3184.2,3906.29045227639) translate(66.2644696969697 62.9482323232323)"/><path d="M3307.2 4007.2c17.67 0 32 17.9 32 40 0 22.08-14.33 40-32 40h-96c-17.67 0-32-17.92-32-40 0-22.1 14.33-40 32-40z" stroke="#5e5e5e" stroke-width="3" fill="#fff"/><use xlink:href="#z" transform="matrix(1,0,0,1,3184.2,4012.1877381270197) translate(11.95417929292932 27.9861111111111)"/><use xlink:href="#B" transform="matrix(1,0,0,1,3184.2,4012.1877381270197) translate(65.81308080808081 62.9482323232323)"/><path d="M3382.2 4428.54l-.97 3.6-2.72 2.73-3.6.97h-289.55v-3h289.15l2.45-.66 1.6-1.6.65-2.44v-89.9h3zm-3.7-381.88l2.73 2.72.97 3.6v263.74h-3V4053.4l-.66-2.46-1.6-1.6-2.44-.65h-13.18v-3h13.58z" fill="#5e5e5e"/><path d="M3085.4 4435.84h-1.55v-3h1.54z" fill="#5e5e5e"/><path d="M3359.82 4051.82l-14.26-4.63 14.26-4.65z" fill="#fff"/><path d="M3361.32 4053.9l-20.62-6.7 20.62-6.7zm-10.9-6.7l7.9 2.56v-5.14zM3382.2 4428.54l-.97 3.6-2.72 2.73-3.6.97h-270.43v-3h270.03l2.45-.66 1.6-1.6.65-2.44v-89.9h3zm-3.7-595.77l2.73 2.72.97 3.6v477.62h-3V3839.5l-.66-2.45-1.6-1.6-2.44-.65h-13.18v-3h13.58z" fill="#5e5e5e"/><path d="M3102.97 4438.98l-14.27-4.64 14.27-4.63z" fill="#fff"/><path d="M3104.47 4441.04l-20.62-6.7 20.62-6.7zm-10.9-6.7l7.9 2.57v-5.13z" fill="#5e5e5e"/><path d="M3359.82 3837.93l-14.26-4.63 14.26-4.64z" fill="#fff"/><path d="M3361.32 3840l-20.62-6.7 20.62-6.7zm-10.9-6.7l7.9 2.57v-5.14z" fill="#5e5e5e"/><use xlink:href="#C" transform="matrix(1,0,0,1,3310.5462616106192,4316.718528882024) translate(0 17.22222222222222)"/><use xlink:href="#D" transform="matrix(1,0,0,1,3310.5462616106192,4316.718528882024) translate(66.32575757575756 17.22222222222222)"/><path d="M2851.5 4016.32l.66 2.45 1.6 1.58 2.44.67h156.3l3.6.97 2.7 2.7 1 3.62v140.5h-3v-140.1l-.67-2.45-1.6-1.6-2.44-.65h-156.3l-3.6-.98-2.72-2.72-.98-3.6v-33.43h3zm0-54.54h-3v-.43h3zm0-42.43h-3v-24h3z" fill="#5e5e5e"/><path d="M3019.8 4170.3h-3v-1.53h3z" fill="#5e5e5e"/><path d="M2854.64 3893.84h-9.28l4.64-14.26z" fill="#fff"/><path d="M2856.7 3895.34h-13.4l6.7-20.62zm-9.27-3h5.14l-2.57-7.9z" fill="#5e5e5e"/><use xlink:href="#E" transform="matrix(1,0,0,1,2698.4375,3919.348728402604) translate(0 17.22222222222222)"/><use xlink:href="#F" transform="matrix(1,0,0,1,2698.4375,3919.348728402604) translate(93.71843434343435 17.22222222222222)"/><use xlink:href="#G" transform="matrix(1,0,0,1,2698.4375,3919.348728402604) translate(172.38005050505052 17.22222222222222)"/><use xlink:href="#H" transform="matrix(1,0,0,1,2698.4375,3919.348728402604) translate(194.2676767676768 17.22222222222222)"/><use xlink:href="#I" transform="matrix(1,0,0,1,2698.4375,3919.348728402604) translate(255.94065656565658 17.22222222222222)"/><use xlink:href="#J" transform="matrix(1,0,0,1,2769.0782828282827,3939.8322014664695) translate(0 17.22222222222222)"/><use xlink:href="#K" transform="matrix(1,0,0,1,2769.0782828282827,3939.8322014664695) translate(85.29671717171718 17.22222222222222)"/><path d="M2579.08 3834.76h-72.88l-2.45.66-1.6 1.6-.65 2.44v184.43h-3v-184.84l.98-3.6 2.7-2.73 3.62-.97h73.28zm139.4 0h-58.85v-3h58.85z" fill="#5e5e5e"/><path d="M2501.5 4025.4h-3v-1.54h3z" fill="#5e5e5e"/><path d="M2734.25 3833.26l-14.27 4.63v-9.28z" fill="#fff"/><path d="M2739.1 3833.26l-20.62 6.7v-13.4zm-17.62 2.57l7.92-2.57-7.92-2.57z" fill="#5e5e5e"/><use xlink:href="#L" transform="matrix(1,0,0,1,2579.0796269562497,3822.5016309926873) translate(0 17.22222222222222)"/><path d="M3176.2 3831.8v3h-101.13v-3zm-176.13-.03v3h-18.55v-3z" fill="#5e5e5e"/><path d="M3177.7 3833.28l.05 1.52h-1.6v-3h1.64z" fill="#5e5e5e"/><path d="M2980.02 3837.9l-14.27-4.64 14.27-4.64z" fill="#fff"/><path d="M2981.52 3839.96l-20.62-6.7 20.62-6.7zm-10.92-6.7l7.92 2.57v-5.14z" fill="#5e5e5e"/><use xlink:href="#M" transform="matrix(1,0,0,1,3000.0720780790693,3822.5016309926873) translate(0 17.22222222222222)"/><path d="M3117.8 3832.73l2.72 2.72.98 3.6v96.04l.66 2.44 1.6 1.6 2.44.65h50v3h-50.4l-3.6-1-2.72-2.7-.98-3.6v-96.04l-.66-2.45-1.6-1.58-2.44-.66h-38.73v-3h39.13zm-136.28 2.03v-3h18.55v3z" fill="#5e5e5e"/><path d="M3177.7 3941.27l.05 1.52h-1.6v-3h1.64z" fill="#5e5e5e"/><path d="M2980.02 3837.9l-14.27-4.64 14.27-4.64z" fill="#fff"/><path d="M2981.52 3839.96l-20.62-6.7 20.62-6.7zm-10.92-6.7l7.92 2.57v-5.14zM3117.8 3832.73l2.72 2.72.98 3.6V4041l.66 2.44 1.6 1.6 2.44.65h50v3h-50.4l-3.6-1-2.72-2.7-.98-3.6v-201.94l-.66-2.45-1.6-1.58-2.44-.66h-38.73v-3h39.13zm-136.28 2.03v-3h18.55v3z" fill="#5e5e5e"/><path d="M3177.7 4047.17l.05 1.52h-1.6v-3h1.64z" fill="#5e5e5e"/><path d="M2980.02 3837.9l-14.27-4.64 14.27-4.64z" fill="#fff"/><path d="M2981.52 3839.96l-20.62-6.7 20.62-6.7zm-10.92-6.7l7.92 2.57v-5.14zM2851.5 4016.32l.66 2.45 1.6 1.58 2.44.67h156.3l3.6.97 2.7 2.7 1 3.62v140.5h-3v-140.1l-.67-2.45-1.6-1.6-2.44-.65h-156.3l-3.6-.98-2.72-2.72-.98-3.6v-33.43h3zm0-54.54h-3v-.43h3zm0-42.43h-3v-24h3z" fill="#5e5e5e"/><path d="M3019.8 4170.3h-3v-1.53h3z" fill="#5e5e5e"/><path d="M2854.64 3893.84h-9.28l4.64-14.26z" fill="#fff"/><path d="M2856.7 3895.34h-13.4l6.7-20.62zm-9.27-3h5.14l-2.57-7.9z" fill="#5e5e5e"/><use xlink:href="#E" transform="matrix(1,0,0,1,2698.4375,3919.348728402604) translate(0 17.22222222222222)"/><use xlink:href="#F" transform="matrix(1,0,0,1,2698.4375,3919.348728402604) translate(93.71843434343435 17.22222222222222)"/><use xlink:href="#G" transform="matrix(1,0,0,1,2698.4375,3919.348728402604) translate(172.38005050505052 17.22222222222222)"/><use xlink:href="#H" transform="matrix(1,0,0,1,2698.4375,3919.348728402604) translate(194.2676767676768 17.22222222222222)"/><use xlink:href="#I" transform="matrix(1,0,0,1,2698.4375,3919.348728402604) translate(255.94065656565658 17.22222222222222)"/><use xlink:href="#J" transform="matrix(1,0,0,1,2769.0782828282827,3939.8322014664695) translate(0 17.22222222222222)"/><use xlink:href="#K" transform="matrix(1,0,0,1,2769.0782828282827,3939.8322014664695) translate(85.29671717171718 17.22222222222222)"/><use xlink:href="#N" transform="matrix(1,0,0,1,2712.761994949495,3961.778779749183) translate(0 17.22222222222222)"/><use xlink:href="#O" transform="matrix(1,0,0,1,2712.761994949495,3961.778779749183) translate(36.78661616161616 17.22222222222222)"/><use xlink:href="#P" transform="matrix(1,0,0,1,2712.761994949495,3961.778779749183) translate(99.1161616161616 17.22222222222222)"/><use xlink:href="#Q" transform="matrix(1,0,0,1,2712.761994949495,3961.778779749183) translate(135.90277777777777 17.22222222222222)"/><use xlink:href="#R" transform="matrix(1,0,0,1,2712.761994949495,3961.778779749183) translate(235.64393939393938 17.22222222222222)"/><path d="M2851.5 3790.3h-3v-36.45h3zm166.38-108.8H2856.2l-2.45.66-1.6 1.6-.65 2.44v25.32h-3v-25.72l.98-3.6 2.7-2.72 3.62-.98h162.08z" fill="#5e5e5e"/><path d="M2851.5 3791.8h-3v-1.54h3z" fill="#5e5e5e"/><path d="M3033.65 3680l-14.27 4.64v-9.28z" fill="#fff"/><path d="M3038.5 3680l-20.62 6.7v-13.4zm-17.62 2.57l7.9-2.57-7.9-2.57z" fill="#5e5e5e"/><path d="M3040 3626c0-3.3 2.7-6 6-6h132c3.3 0 6 2.7 6 6v96c-24.05-17.03-39.02-17.03-48.1-17.03-14.4 0-33.55 17.03-47.95 17.03-8.93 0-24.05 0-47.95-17.03z" stroke="#5e5e5e" stroke-width="3" fill="#fff"/><path d="M3048 3635c0-3.3 2.7-6 6-6h132c3.3 0 6 2.7 6 6v96c-24.05-17.03-39.02-17.03-48.1-17.03-14.4 0-33.55 17.03-47.95 17.03-8.93 0-24.05 0-47.95-17.03z" stroke="#5e5e5e" stroke-width="3" fill="#fff"/><path d="M3056 3644c0-3.3 2.7-6 6-6h132c3.3 0 6 2.7 6 6v96c-24.05-17.03-39.02-17.03-48.1-17.03-14.4 0-33.55 17.03-47.95 17.03-8.93 0-24.05 0-47.95-17.03z" stroke="#5e5e5e" stroke-width="3" fill="#fff"/><g><use xlink:href="#S" transform="matrix(1,0,0,1,3061,3643) translate(0.48042929292931547 46.7361111111111)"/><use xlink:href="#y" transform="matrix(1,0,0,1,3061,3643) translate(109.10101010101009 46.7361111111111)"/></g><path d="M2851.5 3790.3h-3v-36.45h3zm0-78.78h-3v-62.3h3z" fill="#5e5e5e"/><path d="M2851.5 3791.8h-3v-1.54h3z" fill="#5e5e5e"/><path d="M2854.64 3647.72h-9.28l4.64-14.27z" fill="#fff"/><path d="M2856.7 3649.22h-13.4l6.7-20.62zm-9.27-3h5.14l-2.57-7.9z" fill="#5e5e5e"/><path d="M2770 3518.02c0-3.32 2.7-6 6-6h132c3.3 0 6 2.68 6 6v96c-24.05-17.04-39.02-17.04-48.1-17.04-14.4 0-33.55 17.04-47.95 17.04-8.93 0-24.05 0-47.95-17.04z" stroke="#5e5e5e" stroke-width="3" fill="#fff"/><path d="M2778 3527.02c0-3.32 2.7-6 6-6h132c3.3 0 6 2.68 6 6v96c-24.05-17.04-39.02-17.04-48.1-17.04-14.4 0-33.55 17.04-47.95 17.04-8.93 0-24.05 0-47.95-17.04z" stroke="#5e5e5e" stroke-width="3" fill="#fff"/><path d="M2786 3536.02c0-3.32 2.7-6 6-6h132c3.3 0 6 2.68 6 6v96c-24.05-17.04-39.02-17.04-48.1-17.04-14.4 0-33.55 17.04-47.95 17.04-8.93 0-24.05 0-47.95-17.04z" stroke="#5e5e5e" stroke-width="3" fill="#fff"/><g><use xlink:href="#T" transform="matrix(1,0,0,1,2790.999999999619,3535.0153166701043) translate(11.252209595959613 27.9861111111111)"/><use xlink:href="#A" transform="matrix(1,0,0,1,2790.999999999619,3535.0153166701043) translate(18.2594696969697 62.9482323232323)"/></g><path d="M2500 3626c0-3.3 2.7-6 6-6h132c3.3 0 6 2.7 6 6v96c-24.05-17.03-39.02-17.03-48.1-17.03-14.4 0-33.55 17.03-47.95 17.03-8.93 0-24.05 0-47.95-17.03z" stroke="#5e5e5e" stroke-width="3" fill="#fff"/><path d="M2508 3635c0-3.3 2.7-6 6-6h132c3.3 0 6 2.7 6 6v96c-24.05-17.03-39.02-17.03-48.1-17.03-14.4 0-33.55 17.03-47.95 17.03-8.93 0-24.05 0-47.95-17.03z" stroke="#5e5e5e" stroke-width="3" fill="#fff"/><path d="M2516 3644c0-3.3 2.7-6 6-6h132c3.3 0 6 2.7 6 6v96c-24.05-17.03-39.02-17.03-48.1-17.03-14.4 0-33.55 17.03-47.95 17.03-8.93 0-24.05 0-47.95-17.03z" stroke="#5e5e5e" stroke-width="3" fill="#fff"/><g><use xlink:href="#U" transform="matrix(1,0,0,1,2520.999999999238,3643) translate(31.256944444444457 49.0798611111111)"/></g><path d="M2851.5 3790.3h-3v-36.45h3zm-3.7-110.82l2.72 2.7.98 3.62v25.72h-3v-25.32l-.66-2.45-1.6-1.6-2.44-.65h-161.68v-3h162.08z" fill="#5e5e5e"/><path d="M2851.5 3791.8h-3v-1.54h3z" fill="#5e5e5e"/><path d="M2680.62 3684.64l-14.27-4.64 14.27-4.64z" fill="#fff"/><path d="M2682.12 3686.7l-20.62-6.7 20.62-6.7zm-10.9-6.7l7.9 2.57v-5.14z" fill="#5e5e5e"/><g><use xlink:href="#V" transform="matrix(1,0,0,1,2752.7777777773968,3711.5247689086805) translate(0 17.22222222222222)"/><use xlink:href="#W" transform="matrix(1,0,0,1,2752.7777777773968,3711.5247689086805) translate(52.916666666666664 17.22222222222222)"/><use xlink:href="#X" transform="matrix(1,0,0,1,2752.7777777773968,3711.5247689086805) translate(179.62121212121212 17.22222222222222)"/></g><g><use xlink:href="#Y" transform="matrix(1,0,0,1,2711.7739898986088,3732.335040018296) translate(0 17.22222222222222)"/><use xlink:href="#Z" transform="matrix(1,0,0,1,2711.7739898986088,3732.335040018296) translate(74.05303030303031 17.22222222222222)"/><use xlink:href="#aa" transform="matrix(1,0,0,1,2711.7739898986088,3732.335040018296) translate(94.06565656565658 17.22222222222222)"/><use xlink:href="#ab" transform="matrix(1,0,0,1,2711.7739898986088,3732.335040018296) translate(168.73737373737376 17.22222222222222)"/></g><defs><path fill="#333" d="M1289-1459c-16-161-143-255-350-255-212 0-329 97-329 229 0 207 307 251 508 298 355 83 613 261 614 602-1 375-295 614-795 614-497 0-814-229-825-672h419c14 205 176 309 401 309 220 0 362-102 363-252-1-138-125-202-348-256l-223-56c-346-83-559-256-558-558-2-372 327-620 776-620 456 0 756 252 762 617h-415" id="ac"/><path fill="#333" d="M608 29C315 29 98-125 98-429c0-343 273-445 577-473 270-28 372-36 372-144 0-126-83-199-228-199-153 0-244 75-273 177l-394-32c59-280 301-456 669-456 342 0 652 154 652 520V0h-404v-213h-12C982-70 835 29 608 29zm122-294c187 0 320-123 320-284v-163c-51 34-203 56-296 69-150 21-249 80-249 200 0 117 94 178 225 178" id="ad"/><path fill="#333" d="M1602-1536L1065 0H585L48-1536h450L817-437h16l318-1099h451" id="ae"/><path fill="#333" d="M870 30c-473 0-762-304-762-791 0-474 293-795 745-795 406 0 722 258 722 780v117c-348 1-699-1-1046 1 0 229 135 370 348 370 142 0 252-61 295-178l394 26c-60 285-316 470-696 470zM529-923h645c-1-183-129-315-314-315-189 0-322 140-331 315" id="af"/><g id="a"><use transform="matrix(0.006313131313131313,0,0,0.006313131313131313,0,0)" xlink:href="#ac"/><use transform="matrix(0.006313131313131313,0,0,0.006313131313131313,11.641414141414142,0)" xlink:href="#ad"/><use transform="matrix(0.006313131313131313,0,0,0.006313131313131313,21.957070707070706,0)" xlink:href="#ae"/><use transform="matrix(0.006313131313131313,0,0,0.006313131313131313,32.37373737373737,0)" xlink:href="#af"/></g><path fill="#333" d="M170 0v-1536h413v268h16c74-233 253-330 503-275v378c-40-13-121-23-180-23-188 0-326 130-326 319V0H170" id="ag"/><path fill="#333" d="M170 0v-1536h426V0H170zm214-1734c-126 0-230-97-230-216 0-118 104-215 230-215 127 0 231 97 231 215 0 119-104 216-231 216" id="ah"/><path fill="#333" d="M473 0L55-1536h431L724-504h14l248-1032h423l252 1026h13l234-1026h430L1921 0h-451l-264-966h-19L923 0H473" id="ai"/><g id="b"><use transform="matrix(0.006313131313131313,0,0,0.006313131313131313,0,0)" xlink:href="#ag"/><use transform="matrix(0.006313131313131313,0,0,0.006313131313131313,7.266414141414141,0)" xlink:href="#af"/><use transform="matrix(0.006313131313131313,0,0,0.006313131313131313,17.891414141414142,0)" xlink:href="#ae"/><use transform="matrix(0.006313131313131313,0,0,0.006313131313131313,28.308080808080806,0)" xlink:href="#ah"/><use transform="matrix(0.006313131313131313,0,0,0.006313131313131313,33.1439393939394,0)" xlink:href="#af"/><use transform="matrix(0.006313131313131313,0,0,0.006313131313131313,43.7689393939394,0)" xlink:href="#ai"/></g><path fill="#333" d="M596-888V0H170v-1536h406v271h18c69-179 234-291 462-291 320 0 530 220 530 578V0h-426v-902c1-188-102-300-273-300-172 0-290 116-291 314" id="aj"/><path fill="#333" d="M864 30c-466 0-756-319-756-792 0-476 290-794 756-794s756 318 756 794c0 473-290 792-756 792zm2-330c211 0 321-197 321-465s-110-466-321-466c-215 0-325 198-325 466s110 465 325 465" id="ak"/><path fill="#333" d="M987-1536v320H698v744c0 118 59 150 144 150 40 0 85-10 106-14l67 317C972-5 894 17 784 21 475 34 270-115 272-416v-800H62v-320h210v-368h426v368h289" id="al"/><path fill="#333" d="M1448-1098l-390 24c-21-99-109-180-257-180-132 0-236 60-235 152-1 74 52 123 195 154l278 56c298 61 443 194 444 416-1 303-286 506-684 506-407 0-657-181-697-475l419-22c26 125 127 190 279 190 149 0 248-65 250-156-2-77-63-126-197-153l-266-53c-300-60-445-209-444-439-1-296 258-478 651-478 388 0 616 175 654 458" id="am"/><g id="c"><use transform="matrix(0.006313131313131313,0,0,0.006313131313131313,0,0)" xlink:href="#aj"/><use transform="matrix(0.006313131313131313,0,0,0.006313131313131313,11.054292929292929,0)" xlink:href="#ak"/><use transform="matrix(0.006313131313131313,0,0,0.006313131313131313,21.963383838383837,0)" xlink:href="#al"/><use transform="matrix(0.006313131313131313,0,0,0.006313131313131313,28.869949494949495,0)" xlink:href="#af"/><use transform="matrix(0.006313131313131313,0,0,0.006313131313131313,39.494949494949495,0)" xlink:href="#am"/></g><g id="d"><use transform="matrix(0.006313131313131313,0,0,0.006313131313131313,0,0)" xlink:href="#al"/><use transform="matrix(0.006313131313131313,0,0,0.006313131313131313,6.906565656565657,0)" xlink:href="#ak"/></g><path fill="#333" d="M611-2048V0H178v-2048h433" id="an"/><path fill="#333" d="M178 0v-2048h808c465 0 734 287 734 694 0 409-274 690-745 690H611V0H178zm433-1011h294c248 0 369-140 369-343 0-204-121-340-371-340H611v683" id="ao"/><path fill="#333" d="M178 0v-2048h1356v357H611v488h833v357H611V0H178" id="ap"/><g id="e"><use transform="matrix(0.006313131313131313,0,0,0.006313131313131313,0,0)" xlink:href="#an"/><use transform="matrix(0.006313131313131313,0,0,0.006313131313131313,4.987373737373737,0)" xlink:href="#ao"/><use transform="matrix(0.006313131313131313,0,0,0.006313131313131313,16.502525252525253,0)" xlink:href="#ap"/><use transform="matrix(0.006313131313131313,0,0,0.006313131313131313,26.900252525252526,0)" xlink:href="#ac"/></g><path fill="#333" d="M1985-1331h-438c-33-225-204-362-441-362-317 0-525 243-525 669 0 438 211 669 522 669 231 0 403-126 444-345l438 2c-47 377-364 726-889 726-548 0-954-384-954-1052 0-670 413-1052 954-1052 474 0 832 272 889 745" id="aq"/><path fill="#333" d="M596-2048V0H170v-2048h426" id="ar"/><path fill="#333" d="M170 0v-1536h406v271h18c64-181 221-291 428-291 211 0 368 113 417 291h16c63-176 238-291 463-291 286 0 484 190 484 523V0h-425v-949c0-171-102-256-238-256-155 0-246 108-246 267V0h-413v-958c0-151-94-247-234-247-142 0-250 113-250 283V0H170" id="as"/><g id="f"><use transform="matrix(0.006313131313131313,0,0,0.006313131313131313,0,0)" xlink:href="#aq"/><use transform="matrix(0.006313131313131313,0,0,0.006313131313131313,13.371212121212121,0)" xlink:href="#ar"/><use transform="matrix(0.006313131313131313,0,0,0.006313131313131313,18.207070707070706,0)" xlink:href="#ad"/><use transform="matrix(0.006313131313131313,0,0,0.006313131313131313,28.522727272727273,0)" xlink:href="#ah"/><use transform="matrix(0.006313131313131313,0,0,0.006313131313131313,33.35858585858586,0)" xlink:href="#as"/></g><path fill="#333" d="M2060-1024c0 670-416 1052-959 1052-546 0-959-385-959-1052 0-670 413-1052 959-1052 543 0 959 382 959 1052zm-439 0c0-434-206-669-520-669-315 0-520 235-520 669s205 669 520 669c314 0 520-235 520-669" id="at"/><path fill="#333" d="M596-888V0H170v-2048h414v783h18c70-181 226-291 459-291 320 0 532 218 531 578V0h-426v-902c1-189-101-300-274-300-174 0-295 116-296 314" id="au"/><path fill="#333" d="M170 576v-2112h420v258h19c57-125 180-278 437-278 337 0 622 262 622 790 0 514-273 791-623 791-248 0-377-143-436-271h-13v822H170zM587-768c0 274 118 454 323 454 209 0 323-186 323-454 0-266-112-449-323-449-207 0-323 175-323 449" id="av"/><g id="g"><use transform="matrix(0.006313131313131313,0,0,0.006313131313131313,0,0)" xlink:href="#at"/><use transform="matrix(0.006313131313131313,0,0,0.006313131313131313,13.90151515151515,0)" xlink:href="#ai"/><use transform="matrix(0.006313131313131313,0,0,0.006313131313131313,29.015151515151516,0)" xlink:href="#aj"/><use transform="matrix(0.006313131313131313,0,0,0.006313131313131313,40.06944444444444,0)" xlink:href="#af"/><use transform="matrix(0.006313131313131313,0,0,0.006313131313131313,50.69444444444444,0)" xlink:href="#ag"/><use transform="matrix(0.006313131313131313,0,0,0.006313131313131313,57.96085858585859,0)" xlink:href="#am"/><use transform="matrix(0.006313131313131313,0,0,0.006313131313131313,67.94823232323232,0)" xlink:href="#au"/><use transform="matrix(0.006313131313131313,0,0,0.006313131313131313,79.04671717171716,0)" xlink:href="#ah"/><use transform="matrix(0.006313131313131313,0,0,0.006313131313131313,83.88257575757575,0)" xlink:href="#av"/></g><path fill="#333" d="M1155-654v-882h426V0h-409v-279h-16C1087-99 921 20 690 20c-309 0-519-219-520-578v-978h426v902c1 181 105 294 266 294 153 0 294-108 293-314" id="aw"/><path fill="#333" d="M178 0v-2048h426v770h13c57-125 180-278 437-278 337 0 622 262 622 790 0 514-273 791-623 791-248 0-377-143-436-271h-19V0H178zm417-768c0 274 118 454 323 454 209 0 323-186 323-454 0-266-112-449-323-449-207 0-323 175-323 449" id="ax"/><g id="h"><use transform="matrix(0.01893939393939394,0,0,0.01893939393939394,0,0)" xlink:href="#an"/><use transform="matrix(0.01893939393939394,0,0,0.01893939393939394,14.962121212121213,0)" xlink:href="#aj"/><use transform="matrix(0.01893939393939394,0,0,0.01893939393939394,48.125,0)" xlink:href="#al"/><use transform="matrix(0.01893939393939394,0,0,0.01893939393939394,68.84469696969697,0)" xlink:href="#av"/><use transform="matrix(0.01893939393939394,0,0,0.01893939393939394,102.57575757575758,0)" xlink:href="#aw"/><use transform="matrix(0.01893939393939394,0,0,0.01893939393939394,135.73863636363637,0)" xlink:href="#ax"/></g><path fill="#333" d="M178-2048h534l564 1376h24l564-1376h534V0h-420v-1333h-17L1431-10h-286L615-1338h-17V0H178v-2048" id="ay"/><path fill="#333" d="M736 25c-350 0-623-277-623-791 0-528 285-790 622-790 257 0 380 153 437 278h13v-770h425V0h-420v-246h-18C1113-118 984 25 736 25zm135-339c205 0 323-180 323-454s-116-449-323-449c-211 0-323 183-323 449 0 268 114 454 323 454" id="az"/><g id="i"><use transform="matrix(0.01893939393939394,0,0,0.01893939393939394,0,0)" xlink:href="#ay"/><use transform="matrix(0.01893939393939394,0,0,0.01893939393939394,48.78787878787879,0)" xlink:href="#ak"/><use transform="matrix(0.01893939393939394,0,0,0.01893939393939394,81.51515151515152,0)" xlink:href="#az"/><use transform="matrix(0.01893939393939394,0,0,0.01893939393939394,115.39772727272728,0)" xlink:href="#af"/><use transform="matrix(0.01893939393939394,0,0,0.01893939393939394,147.27272727272728,0)" xlink:href="#ar"/></g><path fill="#333" d="M248 0v-2048h692c480 0 696 266 696 628 0 272-122 485-383 574L1716 0h-288L996-801c-165 2-334 0-500 1V0H248zm248-1024h440c328 0 456-150 456-396s-128-408-460-408H496v804" id="aA"/><path fill="#333" d="M860 32c-444 0-716-316-716-788s276-800 692-800c320 0 660 196 660 768v100H381c11 329 202 508 479 508 185 0 324-80 384-240l228 64c-72 232-300 388-612 388zM381-892h875c0-260-164-452-420-452-270 0-439 213-455 452" id="aB"/><path fill="#333" d="M1304-1192l-212 60c-41-106-126-220-332-220-188 0-328 96-328 228 0 118 82 179 264 224l228 56c274 67 408 202 408 416 0 265-243 460-600 460-314 0-529-139-584-400l224-56c42 165 163 248 356 248 220 0 360-108 360-240 0-106-73-180-228-216l-256-60c-282-66-408-208-408-420 0-260 240-444 564-444 304 0 470 146 544 364" id="aC"/><path fill="#333" d="M668 36c-292 0-524-172-524-472 0-352 311-415 596-452 284-38 396-22 396-148 0-197-107-312-324-312-225 0-348 120-400 232l-224-80c120-280 384-360 616-360 196 0 568 56 568 544V0h-236v-208h-12C1076-108 936 36 668 36zm36-212c280 0 432-188 432-380v-216c-40 48-308 76-408 88-184 24-348 80-348 260 0 164 136 248 324 248" id="aD"/><path fill="#333" d="M216 0v-1536h228v232h16c56-152 216-256 400-256 35 0 97 2 124 4v240c-16-4-81-16-144-16-224 0-388 152-388 360V0H216" id="aE"/><path fill="#333" d="M840 32c-432 0-696-332-696-792 0-468 276-796 692-796 324 0 568 192 608 480h-236c-36-140-160-268-368-268-276 0-460 228-460 576 0 356 180 588 460 588 184 0 324-100 368-268h236c-40 272-264 480-604 480" id="aF"/><path fill="#333" d="M452-924V0H216v-2048h236v752h20c72-159 210-260 452-260 314 0 524 185 524 580V0h-236v-960c0-244-134-384-356-384-233 0-404 152-404 420" id="aG"/><g id="k"><use transform="matrix(0.01025883838383838,0,0,0.01025883838383838,0,0)" xlink:href="#aA"/><use transform="matrix(0.01025883838383838,0,0,0.01025883838383838,18.465909090909086,0)" xlink:href="#aB"/><use transform="matrix(0.01025883838383838,0,0,0.01025883838383838,35.29040404040403,0)" xlink:href="#aC"/><use transform="matrix(0.01025883838383838,0,0,0.01025883838383838,50.391414141414124,0)" xlink:href="#aB"/><use transform="matrix(0.01025883838383838,0,0,0.01025883838383838,67.21590909090907,0)" xlink:href="#aD"/><use transform="matrix(0.01025883838383838,0,0,0.01025883838383838,83.50694444444441,0)" xlink:href="#aE"/><use transform="matrix(0.01025883838383838,0,0,0.01025883838383838,94.25820707070704,0)" xlink:href="#aF"/><use transform="matrix(0.01025883838383838,0,0,0.01025883838383838,110.38510101010097,0)" xlink:href="#aG"/><use transform="matrix(0.01025883838383838,0,0,0.01025883838383838,127.45580808080805,0)" xlink:href="#aB"/><use transform="matrix(0.01025883838383838,0,0,0.01025883838383838,144.280303030303,0)" xlink:href="#aE"/></g><g id="l"><use transform="matrix(0.01025883838383838,0,0,0.01025883838383838,0,0)" xlink:href="#aA"/><use transform="matrix(0.01025883838383838,0,0,0.01025883838383838,18.465909090909086,0)" xlink:href="#aB"/><use transform="matrix(0.01025883838383838,0,0,0.01025883838383838,35.29040404040403,0)" xlink:href="#aC"/><use transform="matrix(0.01025883838383838,0,0,0.01025883838383838,50.391414141414124,0)" xlink:href="#aB"/><use transform="matrix(0.01025883838383838,0,0,0.01025883838383838,67.21590909090907,0)" xlink:href="#aD"/><use transform="matrix(0.01025883838383838,0,0,0.01025883838383838,83.50694444444441,0)" xlink:href="#aE"/><use transform="matrix(0.01025883838383838,0,0,0.01025883838383838,94.25820707070704,0)" xlink:href="#aF"/><use transform="matrix(0.01025883838383838,0,0,0.01025883838383838,110.38510101010097,0)" xlink:href="#aG"/></g><path fill="#333" d="M1976-1024c0 648-380 1052-904 1052S168-376 168-1024s380-1052 904-1052 904 404 904 1052zm-240 0c0-532-292-820-664-820s-664 288-664 820 292 820 664 820 664-288 664-820" id="aH"/><path fill="#333" d="M1184-628v-908h236V0h-236v-260h-16C1096-104 944 20 712 20c-288 0-496-188-496-580v-976h236v960c0 224 140 368 336 368 176 0 396-132 396-420" id="aI"/><path fill="#333" d="M884-1536v200H556v896c3 250 148 245 308 220L912-8C642 78 320-42 320-376v-960H88v-200h232v-368h236v368h328" id="aJ"/><path fill="#333" d="M216 576v-2112h228v244h28c52-80 144-264 444-264 388 0 656 308 656 792 0 488-268 796-652 796-296 0-396-184-448-268h-20v812H216zM448-768c0 348 156 588 440 588 296 0 448-260 448-588 0-324-148-576-448-576-288 0-440 232-440 576" id="aK"/><g id="m"><use transform="matrix(0.01025883838383838,0,0,0.01025883838383838,0,0)" xlink:href="#aH"/><use transform="matrix(0.01025883838383838,0,0,0.01025883838383838,21.994949494949488,0)" xlink:href="#aI"/><use transform="matrix(0.01025883838383838,0,0,0.01025883838383838,38.77840909090908,0)" xlink:href="#aJ"/><use transform="matrix(0.01025883838383838,0,0,0.01025883838383838,49.28345959595958,0)" xlink:href="#aK"/><use transform="matrix(0.01025883838383838,0,0,0.01025883838383838,66.88762626262624,0)" xlink:href="#aI"/><use transform="matrix(0.01025883838383838,0,0,0.01025883838383838,83.67108585858583,0)" xlink:href="#aJ"/></g><g id="n"><use transform="matrix(0.006313131313131313,0,0,0.006313131313131313,0,0)" xlink:href="#aq"/><use transform="matrix(0.006313131313131313,0,0,0.006313131313131313,13.371212121212121,0)" xlink:href="#ag"/><use transform="matrix(0.006313131313131313,0,0,0.006313131313131313,20.637626262626263,0)" xlink:href="#af"/><use transform="matrix(0.006313131313131313,0,0,0.006313131313131313,31.262626262626263,0)" xlink:href="#ad"/><use transform="matrix(0.006313131313131313,0,0,0.006313131313131313,41.57828282828283,0)" xlink:href="#al"/><use transform="matrix(0.006313131313131313,0,0,0.006313131313131313,48.484848484848484,0)" xlink:href="#af"/></g><path fill="#333" d="M496-2048V0H248v-2048h248" id="aL"/><path fill="#333" d="M248 0v-2048h692c481 0 696 286 696 648s-215 652-692 652H496V0H248zm248-968h440c329 0 456-186 456-432s-127-428-460-428H496v860" id="aM"/><path fill="#333" d="M248 0v-2048h1228v220H496v692h888v220H496V0H248" id="aN"/><path fill="#333" d="M1368-1536c-24-202-212-320-460-320-272 0-452 144-452 340 0 220 244 300 396 340l208 56c212 56 576 180 576 564 0 332-268 592-740 592-440 0-712-228-736-564h256c20 232 236 340 480 340 284 0 500-148 500-372 3-291-407-333-660-412-318-99-520-256-520-532 0-344 308-572 700-572 396 0 681 231 692 540h-240" id="aO"/><g id="o"><use transform="matrix(0.01025883838383838,0,0,0.01025883838383838,0,0)" xlink:href="#aL"/><use transform="matrix(0.01025883838383838,0,0,0.01025883838383838,7.632575757575755,0)" xlink:href="#aM"/><use transform="matrix(0.01025883838383838,0,0,0.01025883838383838,25.97537878787878,0)" xlink:href="#aN"/><use transform="matrix(0.01025883838383838,0,0,0.01025883838383838,42.92297979797978,0)" xlink:href="#aO"/></g><path fill="#333" d="M1062-2144L402 308H35l660-2452h367" id="aP"/><g id="p"><use transform="matrix(0.006313131313131313,0,0,0.006313131313131313,0,0)" xlink:href="#ac"/><use transform="matrix(0.006313131313131313,0,0,0.006313131313131313,11.641414141414142,0)" xlink:href="#al"/><use transform="matrix(0.006313131313131313,0,0,0.006313131313131313,18.5479797979798,0)" xlink:href="#ak"/><use transform="matrix(0.006313131313131313,0,0,0.006313131313131313,29.457070707070706,0)" xlink:href="#ag"/><use transform="matrix(0.006313131313131313,0,0,0.006313131313131313,36.723484848484844,0)" xlink:href="#af"/><use transform="matrix(0.006313131313131313,0,0,0.006313131313131313,47.348484848484844,0)" xlink:href="#aP"/><use transform="matrix(0.006313131313131313,0,0,0.006313131313131313,54.28030303030303,0)" xlink:href="#ao"/><use transform="matrix(0.006313131313131313,0,0,0.006313131313131313,65.79545454545453,0)" xlink:href="#aw"/><use transform="matrix(0.006313131313131313,0,0,0.006313131313131313,76.84974747474746,0)" xlink:href="#ax"/><use transform="matrix(0.006313131313131313,0,0,0.006313131313131313,88.14393939393938,0)" xlink:href="#ar"/><use transform="matrix(0.006313131313131313,0,0,0.006313131313131313,92.97979797979797,0)" xlink:href="#ah"/><use transform="matrix(0.006313131313131313,0,0,0.006313131313131313,97.81565656565655,0)" xlink:href="#am"/><use transform="matrix(0.006313131313131313,0,0,0.006313131313131313,107.80303030303028,0)" xlink:href="#au"/></g><path fill="#333" d="M248 0v-2048h716c428 0 628 244 628 544 0 264-156 380-332 428v20c188 12 412 188 412 512 0 308-200 544-684 544H248zm248-220h492c324 0 448-144 448-324 0-208-168-388-436-388H496v712zm0-928h460c224 0 400-140 400-356 0-180-120-324-392-324H496v680" id="aQ"/><path fill="#333" d="M452-2048V0H216v-2048h236" id="aR"/><path fill="#333" d="M840 32c-416 0-696-316-696-792 0-480 280-796 696-796s696 316 696 796c0 476-280 792-696 792zm0-212c316 0 460-272 460-580s-144-584-460-584-460 276-460 584 144 580 460 580" id="aS"/><path fill="#333" d="M216 0v-2048h236v1196h28l672-684h292L795-880 1492 0h-300L617-728 452-575V0H216" id="aT"/><path fill="#333" d="M216 0v-1536h236V0H216zm120-1792c-92 0-168-72-168-160s76-160 168-160 168 72 168 160-76 160-168 160" id="aU"/><path fill="#333" d="M452-924V0H216v-1536h228v240h20c72-156 216-260 448-260 311 0 520 188 520 580V0h-236v-960c0-241-133-384-352-384-226 0-392 152-392 420" id="aV"/><g id="q"><use transform="matrix(0.01025883838383838,0,0,0.01025883838383838,0,0)" xlink:href="#aQ"/><use transform="matrix(0.01025883838383838,0,0,0.01025883838383838,18.794191919191913,0)" xlink:href="#aR"/><use transform="matrix(0.01025883838383838,0,0,0.01025883838383838,25.64709595959595,0)" xlink:href="#aS"/><use transform="matrix(0.01025883838383838,0,0,0.01025883838383838,42.88194444444443,0)" xlink:href="#aF"/><use transform="matrix(0.01025883838383838,0,0,0.01025883838383838,59.008838383838366,0)" xlink:href="#aT"/><use transform="matrix(0.01025883838383838,0,0,0.01025883838383838,74.72537878787877,0)" xlink:href="#aF"/><use transform="matrix(0.01025883838383838,0,0,0.01025883838383838,90.85227272727269,0)" xlink:href="#aG"/><use transform="matrix(0.01025883838383838,0,0,0.01025883838383838,107.92297979797976,0)" xlink:href="#aD"/><use transform="matrix(0.01025883838383838,0,0,0.01025883838383838,124.21401515151511,0)" xlink:href="#aU"/><use transform="matrix(0.01025883838383838,0,0,0.01025883838383838,131.06691919191914,0)" xlink:href="#aV"/></g><path fill="#333" d="M100-1691v-357h1682v357h-627V0H727v-1691H100" id="aW"/><g id="r"><use transform="matrix(0.006313131313131313,0,0,0.006313131313131313,0,0)" xlink:href="#aW"/><use transform="matrix(0.006313131313131313,0,0,0.006313131313131313,11.881313131313131,0)" xlink:href="#ah"/><use transform="matrix(0.006313131313131313,0,0,0.006313131313131313,16.717171717171716,0)" xlink:href="#as"/><use transform="matrix(0.006313131313131313,0,0,0.006313131313131313,32.92929292929293,0)" xlink:href="#af"/><use transform="matrix(0.006313131313131313,0,0,0.006313131313131313,43.55429292929293,0)" xlink:href="#am"/><use transform="matrix(0.006313131313131313,0,0,0.006313131313131313,53.541666666666664,0)" xlink:href="#al"/><use transform="matrix(0.006313131313131313,0,0,0.006313131313131313,60.448232323232325,0)" xlink:href="#ad"/><use transform="matrix(0.006313131313131313,0,0,0.006313131313131313,70.76388888888889,0)" xlink:href="#as"/><use transform="matrix(0.006313131313131313,0,0,0.006313131313131313,86.9760101010101,0)" xlink:href="#av"/></g><path fill="#333" d="M332 0H72l752-2048h256L1832 0h-260l-206-580H538zm284-800h672l-328-924h-16" id="aX"/><g id="s"><use transform="matrix(0.01025883838383838,0,0,0.01025883838383838,0,0)" xlink:href="#aX"/><use transform="matrix(0.01025883838383838,0,0,0.01025883838383838,19.532828282828277,0)" xlink:href="#aE"/><use transform="matrix(0.01025883838383838,0,0,0.01025883838383838,30.2840909090909,0)" xlink:href="#aJ"/><use transform="matrix(0.01025883838383838,0,0,0.01025883838383838,40.7891414141414,0)" xlink:href="#aU"/><use transform="matrix(0.01025883838383838,0,0,0.01025883838383838,47.64204545454544,0)" xlink:href="#aF"/><use transform="matrix(0.01025883838383838,0,0,0.01025883838383838,63.76893939393938,0)" xlink:href="#aR"/><use transform="matrix(0.01025883838383838,0,0,0.01025883838383838,70.62184343434342,0)" xlink:href="#aB"/></g><path fill="#333" d="M639 0L53-2048h473L865-625h17l374-1423h405l373 1426h18l339-1426h473L2278 0h-422l-390-1339h-16L1061 0H639" id="aY"/><g id="t"><use transform="matrix(0.006313131313131313,0,0,0.006313131313131313,0,0)" xlink:href="#aY"/><use transform="matrix(0.006313131313131313,0,0,0.006313131313131313,18.41540404040404,0)" xlink:href="#ag"/><use transform="matrix(0.006313131313131313,0,0,0.006313131313131313,25.681818181818183,0)" xlink:href="#ah"/><use transform="matrix(0.006313131313131313,0,0,0.006313131313131313,30.517676767676768,0)" xlink:href="#al"/><use transform="matrix(0.006313131313131313,0,0,0.006313131313131313,37.42424242424242,0)" xlink:href="#af"/></g><g id="u"><use transform="matrix(0.01025883838383838,0,0,0.01025883838383838,0,0)" xlink:href="#aM"/><use transform="matrix(0.01025883838383838,0,0,0.01025883838383838,18.342803030303024,0)" xlink:href="#aB"/><use transform="matrix(0.01025883838383838,0,0,0.01025883838383838,35.167297979797965,0)" xlink:href="#aB"/><use transform="matrix(0.01025883838383838,0,0,0.01025883838383838,51.99179292929291,0)" xlink:href="#aE"/></g><path fill="#333" d="M1472-1536L904 0H664L96-1536h256L776-312h16l424-1224h256" id="aZ"/><path fill="#333" d="M564 0L96-1536h248L676-360h16l328-1176h252l324 1172h16l332-1172h248L1724 0h-232l-336-1180h-24L796 0H564" id="ba"/><path fill="#333" d="M796 32c-384 0-652-308-652-796 0-484 268-792 656-792 300 0 392 184 444 264h20v-756h236V0h-228v-236h-28c-52 84-152 268-448 268zm32-212c284 0 440-240 440-588 0-344-152-576-440-576-300 0-448 252-448 576 0 328 152 588 448 588" id="bb"/><g id="v"><use transform="matrix(0.01025883838383838,0,0,0.01025883838383838,0,0)" xlink:href="#aA"/><use transform="matrix(0.01025883838383838,0,0,0.01025883838383838,18.465909090909086,0)" xlink:href="#aB"/><use transform="matrix(0.01025883838383838,0,0,0.01025883838383838,35.29040404040403,0)" xlink:href="#aZ"/><use transform="matrix(0.01025883838383838,0,0,0.01025883838383838,51.37626262626261,0)" xlink:href="#aU"/><use transform="matrix(0.01025883838383838,0,0,0.01025883838383838,58.229166666666636,0)" xlink:href="#aB"/><use transform="matrix(0.01025883838383838,0,0,0.01025883838383838,75.05366161616159,0)" xlink:href="#ba"/><use transform="matrix(0.01025883838383838,0,0,0.01025883838383838,98.5258838383838,0)" xlink:href="#aB"/><use transform="matrix(0.01025883838383838,0,0,0.01025883838383838,115.35037878787875,0)" xlink:href="#bb"/></g><g id="w"><use transform="matrix(0.01025883838383838,0,0,0.01025883838383838,0,0)" xlink:href="#aX"/><use transform="matrix(0.01025883838383838,0,0,0.01025883838383838,19.532828282828277,0)" xlink:href="#aE"/><use transform="matrix(0.01025883838383838,0,0,0.01025883838383838,30.2840909090909,0)" xlink:href="#aJ"/><use transform="matrix(0.01025883838383838,0,0,0.01025883838383838,40.7891414141414,0)" xlink:href="#aU"/><use transform="matrix(0.01025883838383838,0,0,0.01025883838383838,47.64204545454544,0)" xlink:href="#aF"/><use transform="matrix(0.01025883838383838,0,0,0.01025883838383838,63.76893939393938,0)" xlink:href="#aR"/><use transform="matrix(0.01025883838383838,0,0,0.01025883838383838,70.62184343434342,0)" xlink:href="#aB"/></g><g id="x"><use transform="matrix(0.01025883838383838,0,0,0.01025883838383838,0,0)" xlink:href="#aA"/><use transform="matrix(0.01025883838383838,0,0,0.01025883838383838,18.465909090909086,0)" xlink:href="#aB"/><use transform="matrix(0.01025883838383838,0,0,0.01025883838383838,35.29040404040403,0)" xlink:href="#aZ"/><use transform="matrix(0.01025883838383838,0,0,0.01025883838383838,51.37626262626261,0)" xlink:href="#aU"/><use transform="matrix(0.01025883838383838,0,0,0.01025883838383838,58.229166666666636,0)" xlink:href="#aB"/><use transform="matrix(0.01025883838383838,0,0,0.01025883838383838,75.05366161616159,0)" xlink:href="#ba"/><use transform="matrix(0.01025883838383838,0,0,0.01025883838383838,98.5258838383838,0)" xlink:href="#aB"/><use transform="matrix(0.01025883838383838,0,0,0.01025883838383838,115.35037878787875,0)" xlink:href="#aE"/></g><path fill="#333" d="M932-2048V0H684v-1788h-12l-500 332v-252l512-340h248" id="bc"/><use transform="matrix(0.01025883838383838,0,0,0.01025883838383838,0,0)" xlink:href="#bc" id="y"/><g id="z"><use transform="matrix(0.01025883838383838,0,0,0.01025883838383838,0,0)" xlink:href="#aA"/><use transform="matrix(0.01025883838383838,0,0,0.01025883838383838,18.465909090909086,0)" xlink:href="#aB"/><use transform="matrix(0.01025883838383838,0,0,0.01025883838383838,35.29040404040403,0)" xlink:href="#aZ"/><use transform="matrix(0.01025883838383838,0,0,0.01025883838383838,51.37626262626261,0)" xlink:href="#aU"/><use transform="matrix(0.01025883838383838,0,0,0.01025883838383838,58.229166666666636,0)" xlink:href="#aB"/><use transform="matrix(0.01025883838383838,0,0,0.01025883838383838,75.05366161616159,0)" xlink:href="#ba"/><use transform="matrix(0.01025883838383838,0,0,0.01025883838383838,98.5258838383838,0)" xlink:href="#aB"/><use transform="matrix(0.01025883838383838,0,0,0.01025883838383838,115.35037878787875,0)" xlink:href="#aE"/></g><path fill="#333" d="M212 0v-180l676-740c237-259 348-399 348-588 0-216-170-352-392-352-237 0-388 155-388 388H220c0-360 273-604 632-604 360 0 616 252 616 568 0 227-104 403-456 780L552-236v16h952V0H212" id="bd"/><use transform="matrix(0.01025883838383838,0,0,0.01025883838383838,0,0)" xlink:href="#bd" id="A"/><path fill="#333" d="M904 28c-397 0-681-218-696-540h252c15 198 203 320 440 320 263 0 452-147 452-364 0-226-173-384-484-384H704v-220h164c243 0 412-140 412-356 0-207-146-344-372-344-213 0-407 120-416 324H252c12-322 306-540 660-540 379 0 608 258 608 548 0 231-129 401-336 464v16c258 43 412 232 412 492 0 335-295 584-692 584" id="be"/><use transform="matrix(0.01025883838383838,0,0,0.01025883838383838,0,0)" xlink:href="#be" id="B"/><path fill="#333" d="M178 0v-2048h808c465 0 734 262 734 669 0 280-129 483-362 583L1793 0h-478L927-726H611V0H178zm433-1074h294c248 0 369-102 369-305 0-204-121-315-371-315H611v620" id="bf"/><path fill="#333" d="M864 30c-473 0-756-325-756-792 0-471 288-794 754-794 401 0 670 233 688 588h-402c-23-153-123-256-279-256-198 0-328 166-328 456 0 294 129 461 328 461 146 0 254-92 279-256h402c-20 353-277 593-686 593" id="bg"/><g id="C"><use transform="matrix(0.006313131313131313,0,0,0.006313131313131313,0,0)" xlink:href="#bf"/><use transform="matrix(0.006313131313131313,0,0,0.006313131313131313,11.666666666666666,0)" xlink:href="#af"/><use transform="matrix(0.006313131313131313,0,0,0.006313131313131313,22.291666666666664,0)" xlink:href="#bg"/><use transform="matrix(0.006313131313131313,0,0,0.006313131313131313,32.733585858585855,0)" xlink:href="#ak"/><use transform="matrix(0.006313131313131313,0,0,0.006313131313131313,43.64267676767676,0)" xlink:href="#ag"/><use transform="matrix(0.006313131313131313,0,0,0.006313131313131313,50.9090909090909,0)" xlink:href="#az"/></g><g id="D"><use transform="matrix(0.006313131313131313,0,0,0.006313131313131313,0,0)" xlink:href="#az"/><use transform="matrix(0.006313131313131313,0,0,0.006313131313131313,11.294191919191919,0)" xlink:href="#af"/><use transform="matrix(0.006313131313131313,0,0,0.006313131313131313,21.919191919191917,0)" xlink:href="#bg"/><use transform="matrix(0.006313131313131313,0,0,0.006313131313131313,32.36111111111111,0)" xlink:href="#ah"/><use transform="matrix(0.006313131313131313,0,0,0.006313131313131313,37.196969696969695,0)" xlink:href="#am"/><use transform="matrix(0.006313131313131313,0,0,0.006313131313131313,47.18434343434343,0)" xlink:href="#ah"/><use transform="matrix(0.006313131313131313,0,0,0.006313131313131313,52.02020202020202,0)" xlink:href="#ak"/><use transform="matrix(0.006313131313131313,0,0,0.006313131313131313,62.92929292929293,0)" xlink:href="#aj"/></g><g id="E"><use transform="matrix(0.006313131313131313,0,0,0.006313131313131313,0,0)" xlink:href="#aq"/><use transform="matrix(0.006313131313131313,0,0,0.006313131313131313,13.371212121212121,0)" xlink:href="#ak"/><use transform="matrix(0.006313131313131313,0,0,0.006313131313131313,24.28030303030303,0)" xlink:href="#as"/><use transform="matrix(0.006313131313131313,0,0,0.006313131313131313,40.49242424242424,0)" xlink:href="#ax"/><use transform="matrix(0.006313131313131313,0,0,0.006313131313131313,51.78661616161616,0)" xlink:href="#ah"/><use transform="matrix(0.006313131313131313,0,0,0.006313131313131313,56.62247474747475,0)" xlink:href="#aj"/><use transform="matrix(0.006313131313131313,0,0,0.006313131313131313,67.67676767676768,0)" xlink:href="#af"/><use transform="matrix(0.006313131313131313,0,0,0.006313131313131313,78.30176767676768,0)" xlink:href="#az"/></g><path fill="#333" d="M170 0v-2048h426v1095h23l492-583h489l-570 665L1629 0h-499L711-619 596-488V0H170" id="bh"/><path fill="#333" d="M862 608c-414 0-651-186-702-428l394-53c35 93 130 175 318 175 185 0 320-82 320-293v-281h-18C1118-145 981-22 736-22c-346 0-623-238-623-749 0-523 285-785 622-785 257 0 382 153 439 278h16v-258h423V15c0 393-312 593-751 593zm9-950c205 0 323-160 323-431 0-269-116-444-323-444-211 0-323 183-323 444 0 265 114 431 323 431" id="bi"/><g id="F"><use transform="matrix(0.006313131313131313,0,0,0.006313131313131313,0,0)" xlink:href="#av"/><use transform="matrix(0.006313131313131313,0,0,0.006313131313131313,11.243686868686869,0)" xlink:href="#ad"/><use transform="matrix(0.006313131313131313,0,0,0.006313131313131313,21.559343434343432,0)" xlink:href="#bg"/><use transform="matrix(0.006313131313131313,0,0,0.006313131313131313,32.00126262626262,0)" xlink:href="#bh"/><use transform="matrix(0.006313131313131313,0,0,0.006313131313131313,42.34217171717171,0)" xlink:href="#ad"/><use transform="matrix(0.006313131313131313,0,0,0.006313131313131313,52.657828282828284,0)" xlink:href="#bi"/><use transform="matrix(0.006313131313131313,0,0,0.006313131313131313,63.91414141414141,0)" xlink:href="#af"/></g><path fill="#333" d="M996-1536v320H691V0H265v-1216H48v-320h217v-111c0-334 215-497 504-497 131 0 248 26 301 42l-75 320c-34-11-86-22-137-22-169-4-174 112-167 268h305" id="bj"/><g id="G"><use transform="matrix(0.006313131313131313,0,0,0.006313131313131313,0,0)" xlink:href="#ak"/><use transform="matrix(0.006313131313131313,0,0,0.006313131313131313,10.909090909090908,0)" xlink:href="#bj"/></g><g id="H"><use transform="matrix(0.006313131313131313,0,0,0.006313131313131313,0,0)" xlink:href="#ad"/><use transform="matrix(0.006313131313131313,0,0,0.006313131313131313,10.315656565656566,0)" xlink:href="#aw"/><use transform="matrix(0.006313131313131313,0,0,0.006313131313131313,21.369949494949495,0)" xlink:href="#al"/><use transform="matrix(0.006313131313131313,0,0,0.006313131313131313,28.276515151515152,0)" xlink:href="#au"/><use transform="matrix(0.006313131313131313,0,0,0.006313131313131313,39.375,0)" xlink:href="#ak"/><use transform="matrix(0.006313131313131313,0,0,0.006313131313131313,50.28409090909091,0)" xlink:href="#ag"/></g><g id="I"><use transform="matrix(0.006313131313131313,0,0,0.006313131313131313,0,0)" xlink:href="#av"/><use transform="matrix(0.006313131313131313,0,0,0.006313131313131313,11.243686868686869,0)" xlink:href="#ag"/><use transform="matrix(0.006313131313131313,0,0,0.006313131313131313,18.51010101010101,0)" xlink:href="#ak"/><use transform="matrix(0.006313131313131313,0,0,0.006313131313131313,29.419191919191917,0)" xlink:href="#ak"/><use transform="matrix(0.006313131313131313,0,0,0.006313131313131313,40.32828282828282,0)" xlink:href="#bj"/></g><g id="J"><use transform="matrix(0.006313131313131313,0,0,0.006313131313131313,0,0)" xlink:href="#bf"/><use transform="matrix(0.006313131313131313,0,0,0.006313131313131313,11.666666666666666,0)" xlink:href="#af"/><use transform="matrix(0.006313131313131313,0,0,0.006313131313131313,22.291666666666664,0)" xlink:href="#ae"/><use transform="matrix(0.006313131313131313,0,0,0.006313131313131313,32.70833333333333,0)" xlink:href="#ah"/><use transform="matrix(0.006313131313131313,0,0,0.006313131313131313,37.54419191919192,0)" xlink:href="#af"/><use transform="matrix(0.006313131313131313,0,0,0.006313131313131313,48.16919191919192,0)" xlink:href="#ai"/><use transform="matrix(0.006313131313131313,0,0,0.006313131313131313,63.282828282828284,0)" xlink:href="#af"/><use transform="matrix(0.006313131313131313,0,0,0.006313131313131313,73.90782828282828,0)" xlink:href="#ag"/></g><g id="K"><use transform="matrix(0.006313131313131313,0,0,0.006313131313131313,0,0)" xlink:href="#ad"/><use transform="matrix(0.006313131313131313,0,0,0.006313131313131313,10.315656565656566,0)" xlink:href="#av"/><use transform="matrix(0.006313131313131313,0,0,0.006313131313131313,21.559343434343432,0)" xlink:href="#av"/><use transform="matrix(0.006313131313131313,0,0,0.006313131313131313,32.8030303030303,0)" xlink:href="#ag"/><use transform="matrix(0.006313131313131313,0,0,0.006313131313131313,40.069444444444436,0)" xlink:href="#ak"/><use transform="matrix(0.006313131313131313,0,0,0.006313131313131313,50.97853535353534,0)" xlink:href="#ae"/><use transform="matrix(0.006313131313131313,0,0,0.006313131313131313,61.39520202020201,0)" xlink:href="#ad"/><use transform="matrix(0.006313131313131313,0,0,0.006313131313131313,71.71085858585857,0)" xlink:href="#ar"/></g><path fill="#333" d="M178 0v-2048h820c452 0 680 218 680 525 0 241-157 392-370 440v20c233 11 450 194 450 497 0 326-245 566-705 566H178zm433-354h353c242 0 347-101 347-255 0-169-129-289-337-289H611v544zm0-837h321c177 0 309-98 309-260 0-148-109-247-301-247H611v507" id="bk"/><g id="L"><use transform="matrix(0.006313131313131313,0,0,0.006313131313131313,0,0)" xlink:href="#bk"/><use transform="matrix(0.006313131313131313,0,0,0.006313131313131313,11.748737373737374,0)" xlink:href="#af"/><use transform="matrix(0.006313131313131313,0,0,0.006313131313131313,22.373737373737374,0)" xlink:href="#bg"/><use transform="matrix(0.006313131313131313,0,0,0.006313131313131313,32.81565656565657,0)" xlink:href="#ak"/><use transform="matrix(0.006313131313131313,0,0,0.006313131313131313,43.724747474747474,0)" xlink:href="#as"/><use transform="matrix(0.006313131313131313,0,0,0.006313131313131313,59.936868686868685,0)" xlink:href="#af"/><use transform="matrix(0.006313131313131313,0,0,0.006313131313131313,70.56186868686868,0)" xlink:href="#am"/></g><path fill="#333" d="M531 0H67l707-2048h558L2038 0h-464l-152-467H683zm262-805h520l-252-775h-16" id="bl"/><g id="M"><use transform="matrix(0.006313131313131313,0,0,0.006313131313131313,0,0)" xlink:href="#bl"/><use transform="matrix(0.006313131313131313,0,0,0.006313131313131313,13.295454545454545,0)" xlink:href="#av"/><use transform="matrix(0.006313131313131313,0,0,0.006313131313131313,24.53914141414141,0)" xlink:href="#av"/><use transform="matrix(0.006313131313131313,0,0,0.006313131313131313,35.78282828282828,0)" xlink:href="#ag"/><use transform="matrix(0.006313131313131313,0,0,0.006313131313131313,43.049242424242415,0)" xlink:href="#ak"/><use transform="matrix(0.006313131313131313,0,0,0.006313131313131313,53.95833333333332,0)" xlink:href="#ae"/><use transform="matrix(0.006313131313131313,0,0,0.006313131313131313,64.37499999999999,0)" xlink:href="#af"/></g><g id="N"><use transform="matrix(0.006313131313131313,0,0,0.006313131313131313,0,0)" xlink:href="#ad"/><use transform="matrix(0.006313131313131313,0,0,0.006313131313131313,10.315656565656566,0)" xlink:href="#aj"/><use transform="matrix(0.006313131313131313,0,0,0.006313131313131313,21.369949494949495,0)" xlink:href="#az"/></g><g id="O"><use transform="matrix(0.006313131313131313,0,0,0.006313131313131313,0,0)" xlink:href="#bl"/><use transform="matrix(0.006313131313131313,0,0,0.006313131313131313,13.295454545454545,0)" xlink:href="#ag"/><use transform="matrix(0.006313131313131313,0,0,0.006313131313131313,20.561868686868685,0)" xlink:href="#al"/><use transform="matrix(0.006313131313131313,0,0,0.006313131313131313,27.468434343434343,0)" xlink:href="#ah"/><use transform="matrix(0.006313131313131313,0,0,0.006313131313131313,32.30429292929293,0)" xlink:href="#bg"/><use transform="matrix(0.006313131313131313,0,0,0.006313131313131313,42.74621212121212,0)" xlink:href="#ar"/><use transform="matrix(0.006313131313131313,0,0,0.006313131313131313,47.582070707070706,0)" xlink:href="#af"/></g><g id="P"><use transform="matrix(0.006313131313131313,0,0,0.006313131313131313,0,0)" xlink:href="#ad"/><use transform="matrix(0.006313131313131313,0,0,0.006313131313131313,10.315656565656566,0)" xlink:href="#aj"/><use transform="matrix(0.006313131313131313,0,0,0.006313131313131313,21.369949494949495,0)" xlink:href="#az"/></g><g id="Q"><use transform="matrix(0.006313131313131313,0,0,0.006313131313131313,0,0)" xlink:href="#ad"/><use transform="matrix(0.006313131313131313,0,0,0.006313131313131313,10.315656565656566,0)" xlink:href="#am"/><use transform="matrix(0.006313131313131313,0,0,0.006313131313131313,20.303030303030305,0)" xlink:href="#am"/><use transform="matrix(0.006313131313131313,0,0,0.006313131313131313,30.29040404040404,0)" xlink:href="#ak"/><use transform="matrix(0.006313131313131313,0,0,0.006313131313131313,41.19949494949495,0)" xlink:href="#bg"/><use transform="matrix(0.006313131313131313,0,0,0.006313131313131313,51.64141414141414,0)" xlink:href="#ah"/><use transform="matrix(0.006313131313131313,0,0,0.006313131313131313,56.47727272727273,0)" xlink:href="#ad"/><use transform="matrix(0.006313131313131313,0,0,0.006313131313131313,66.79292929292929,0)" xlink:href="#al"/><use transform="matrix(0.006313131313131313,0,0,0.006313131313131313,73.69949494949495,0)" xlink:href="#af"/><use transform="matrix(0.006313131313131313,0,0,0.006313131313131313,84.32449494949495,0)" xlink:href="#az"/></g><g id="R"><use transform="matrix(0.006313131313131313,0,0,0.006313131313131313,0,0)" xlink:href="#az"/><use transform="matrix(0.006313131313131313,0,0,0.006313131313131313,11.294191919191919,0)" xlink:href="#ad"/><use transform="matrix(0.006313131313131313,0,0,0.006313131313131313,21.609848484848484,0)" xlink:href="#al"/><use transform="matrix(0.006313131313131313,0,0,0.006313131313131313,28.516414141414142,0)" xlink:href="#ad"/></g><path fill="#333" d="M1032-2048h248v1464c0 393-228 612-584 612-336 0-580-193-580-508h244c0 174 141 288 336 288 214 0 336-137 336-392v-1464" id="bm"/><g id="S"><use transform="matrix(0.01025883838383838,0,0,0.01025883838383838,0,0)" xlink:href="#bm"/><use transform="matrix(0.01025883838383838,0,0,0.01025883838383838,15.675505050505045,0)" xlink:href="#aS"/><use transform="matrix(0.01025883838383838,0,0,0.01025883838383838,32.91035353535352,0)" xlink:href="#aI"/><use transform="matrix(0.01025883838383838,0,0,0.01025883838383838,49.693813131313114,0)" xlink:href="#aE"/><use transform="matrix(0.01025883838383838,0,0,0.01025883838383838,60.44507575757574,0)" xlink:href="#aV"/><use transform="matrix(0.01025883838383838,0,0,0.01025883838383838,77.35164141414138,0)" xlink:href="#aD"/><use transform="matrix(0.01025883838383838,0,0,0.01025883838383838,93.64267676767673,0)" xlink:href="#aR"/></g><g id="T"><use transform="matrix(0.01025883838383838,0,0,0.01025883838383838,0,0)" xlink:href="#bm"/><use transform="matrix(0.01025883838383838,0,0,0.01025883838383838,15.675505050505045,0)" xlink:href="#aS"/><use transform="matrix(0.01025883838383838,0,0,0.01025883838383838,32.91035353535352,0)" xlink:href="#aI"/><use transform="matrix(0.01025883838383838,0,0,0.01025883838383838,49.693813131313114,0)" xlink:href="#aE"/><use transform="matrix(0.01025883838383838,0,0,0.01025883838383838,60.44507575757574,0)" xlink:href="#aV"/><use transform="matrix(0.01025883838383838,0,0,0.01025883838383838,77.35164141414138,0)" xlink:href="#aD"/><use transform="matrix(0.01025883838383838,0,0,0.01025883838383838,93.64267676767673,0)" xlink:href="#aR"/></g><path fill="#333" d="M836 608c-343 0-532-147-628-308l188-132c63 85 161 232 440 232 248 0 428-116 428-372v-312h-20c-52 84-148 260-448 260-372 0-652-272-652-752 0-472 268-780 656-780 300 0 396 184 448 264h24v-244h228V44c0 396-296 564-664 564zm-8-844c284 0 440-204 440-544 0-332-152-564-440-564-300 0-448 252-448 564 0 320 152 544 448 544" id="bn"/><g id="U"><use transform="matrix(0.01025883838383838,0,0,0.01025883838383838,0,0)" xlink:href="#aQ"/><use transform="matrix(0.01025883838383838,0,0,0.01025883838383838,18.794191919191913,0)" xlink:href="#aR"/><use transform="matrix(0.01025883838383838,0,0,0.01025883838383838,25.64709595959595,0)" xlink:href="#aS"/><use transform="matrix(0.01025883838383838,0,0,0.01025883838383838,42.88194444444443,0)" xlink:href="#bn"/></g><g id="V"><use transform="matrix(0.006313131313131313,0,0,0.006313131313131313,0,0)" xlink:href="#ac"/><use transform="matrix(0.006313131313131313,0,0,0.006313131313131313,11.641414141414142,0)" xlink:href="#ad"/><use transform="matrix(0.006313131313131313,0,0,0.006313131313131313,21.957070707070706,0)" xlink:href="#as"/><use transform="matrix(0.006313131313131313,0,0,0.006313131313131313,38.16919191919192,0)" xlink:href="#af"/></g><g id="W"><use transform="matrix(0.006313131313131313,0,0,0.006313131313131313,0,0)" xlink:href="#bj"/><use transform="matrix(0.006313131313131313,0,0,0.006313131313131313,6.8560606060606055,0)" xlink:href="#ah"/><use transform="matrix(0.006313131313131313,0,0,0.006313131313131313,11.69191919191919,0)" xlink:href="#ar"/><use transform="matrix(0.006313131313131313,0,0,0.006313131313131313,16.527777777777775,0)" xlink:href="#af"/><use transform="matrix(0.006313131313131313,0,0,0.006313131313131313,27.15277777777778,0)" xlink:href="#aP"/><use transform="matrix(0.006313131313131313,0,0,0.006313131313131313,34.08459595959596,0)" xlink:href="#az"/><use transform="matrix(0.006313131313131313,0,0,0.006313131313131313,45.378787878787875,0)" xlink:href="#ak"/><use transform="matrix(0.006313131313131313,0,0,0.006313131313131313,56.28787878787879,0)" xlink:href="#bg"/><use transform="matrix(0.006313131313131313,0,0,0.006313131313131313,66.72979797979798,0)" xlink:href="#aw"/><use transform="matrix(0.006313131313131313,0,0,0.006313131313131313,77.7840909090909,0)" xlink:href="#as"/><use transform="matrix(0.006313131313131313,0,0,0.006313131313131313,93.99621212121212,0)" xlink:href="#af"/><use transform="matrix(0.006313131313131313,0,0,0.006313131313131313,104.62121212121212,0)" xlink:href="#aj"/><use transform="matrix(0.006313131313131313,0,0,0.006313131313131313,115.67550505050505,0)" xlink:href="#al"/></g><g id="X"><use transform="matrix(0.006313131313131313,0,0,0.006313131313131313,0,0)" xlink:href="#ah"/><use transform="matrix(0.006313131313131313,0,0,0.006313131313131313,4.835858585858586,0)" xlink:href="#am"/></g><path fill="#333" d="M526-1536l282 537 289-537h437l-445 768L1546 0h-435L808-531 510 0H70l456-768-440-768h440" id="bo"/><g id="Y"><use transform="matrix(0.006313131313131313,0,0,0.006313131313131313,0,0)" xlink:href="#ah"/><use transform="matrix(0.006313131313131313,0,0,0.006313131313131313,4.835858585858586,0)" xlink:href="#aj"/><use transform="matrix(0.006313131313131313,0,0,0.006313131313131313,15.890151515151516,0)" xlink:href="#az"/><use transform="matrix(0.006313131313131313,0,0,0.006313131313131313,27.184343434343432,0)" xlink:href="#af"/><use transform="matrix(0.006313131313131313,0,0,0.006313131313131313,37.80934343434343,0)" xlink:href="#bo"/><use transform="matrix(0.006313131313131313,0,0,0.006313131313131313,48.01136363636363,0)" xlink:href="#af"/><use transform="matrix(0.006313131313131313,0,0,0.006313131313131313,58.63636363636363,0)" xlink:href="#az"/></g><g id="Z"><use transform="matrix(0.006313131313131313,0,0,0.006313131313131313,0,0)" xlink:href="#ah"/><use transform="matrix(0.006313131313131313,0,0,0.006313131313131313,4.835858585858586,0)" xlink:href="#aj"/></g><g id="aa"><use transform="matrix(0.006313131313131313,0,0,0.006313131313131313,0,0)" xlink:href="#as"/><use transform="matrix(0.006313131313131313,0,0,0.006313131313131313,16.21212121212121,0)" xlink:href="#aw"/><use transform="matrix(0.006313131313131313,0,0,0.006313131313131313,27.266414141414142,0)" xlink:href="#ar"/><use transform="matrix(0.006313131313131313,0,0,0.006313131313131313,32.10227272727273,0)" xlink:href="#al"/><use transform="matrix(0.006313131313131313,0,0,0.006313131313131313,39.00883838383838,0)" xlink:href="#ah"/><use transform="matrix(0.006313131313131313,0,0,0.006313131313131313,43.84469696969697,0)" xlink:href="#av"/><use transform="matrix(0.006313131313131313,0,0,0.006313131313131313,55.08838383838384,0)" xlink:href="#ar"/><use transform="matrix(0.006313131313131313,0,0,0.006313131313131313,59.92424242424242,0)" xlink:href="#af"/></g><g id="ab"><use transform="matrix(0.006313131313131313,0,0,0.006313131313131313,0,0)" xlink:href="#av"/><use transform="matrix(0.006313131313131313,0,0,0.006313131313131313,11.243686868686869,0)" xlink:href="#aw"/><use transform="matrix(0.006313131313131313,0,0,0.006313131313131313,22.2979797979798,0)" xlink:href="#ax"/><use transform="matrix(0.006313131313131313,0,0,0.006313131313131313,33.592171717171716,0)" xlink:href="#ar"/><use transform="matrix(0.006313131313131313,0,0,0.006313131313131313,38.428030303030305,0)" xlink:href="#ah"/><use transform="matrix(0.006313131313131313,0,0,0.006313131313131313,43.26388888888889,0)" xlink:href="#bg"/><use transform="matrix(0.006313131313131313,0,0,0.006313131313131313,53.70580808080808,0)" xlink:href="#ad"/><use transform="matrix(0.006313131313131313,0,0,0.006313131313131313,64.02146464646465,0)" xlink:href="#al"/><use transform="matrix(0.006313131313131313,0,0,0.006313131313131313,70.92803030303031,0)" xlink:href="#ah"/><use transform="matrix(0.006313131313131313,0,0,0.006313131313131313,75.7638888888889,0)" xlink:href="#ak"/><use transform="matrix(0.006313131313131313,0,0,0.006313131313131313,86.6729797979798,0)" xlink:href="#aj"/><use transform="matrix(0.006313131313131313,0,0,0.006313131313131313,97.72727272727273,0)" xlink:href="#am"/></g></defs></g></svg>